<svg width="695" height="181" viewBox="0 0 695 181" fill="none" xmlns="http://www.w3.org/2000/svg">
<path d="M53.0936 57.616V82H39.6536V19.888H67.6856V31.504H53.0936V46.384H66.7256V57.616H53.0936ZM109.736 46.864V70.288C109.736 78.736 105.768 82.96 97.8319 82.96H86.9839C79.0479 82.96 75.0799 78.736 75.0799 70.288V46.864C75.0799 38.416 79.0479 34.192 86.9839 34.192H97.8319C105.768 34.192 109.736 38.416 109.736 46.864ZM96.8719 72.976V44.08C96.8719 43.568 96.6799 43.12 96.2959 42.736C95.9759 42.352 95.5599 42.16 95.0479 42.16H89.7679C89.2559 42.16 88.8079 42.352 88.4239 42.736C88.1039 43.12 87.9439 43.568 87.9439 44.08V72.976C87.9439 73.488 88.1039 73.936 88.4239 74.32C88.8079 74.704 89.2559 74.896 89.7679 74.896H95.0479C95.5599 74.896 95.9759 74.704 96.2959 74.32C96.6799 73.936 96.8719 73.488 96.8719 72.976ZM138.454 34.192H140.95V46.672H134.614C132.438 46.672 131.35 47.792 131.35 50.032V82H118.486V35.152H130.198V39.664C132.054 36.016 134.806 34.192 138.454 34.192ZM181.361 35.152V85.552C181.361 94 177.393 98.224 169.457 98.224H159.857C151.921 98.224 147.953 94 147.953 85.552V84.016H159.569V87.088C159.569 87.6 159.729 88.048 160.049 88.432C160.433 88.816 160.881 89.008 161.393 89.008H166.673C167.185 89.008 167.601 88.816 167.921 88.432C168.305 88.048 168.497 87.6 168.497 87.088V77.488C166.513 79.024 163.889 79.792 160.625 79.792H158.609C150.673 79.792 146.705 75.568 146.705 67.12V46.864C146.705 38.416 150.673 34.192 158.609 34.192H160.625C165.233 34.192 168.529 35.664 170.513 38.608V35.152H181.361ZM168.497 68.656V45.328C168.497 44.816 168.305 44.368 167.921 43.984C167.601 43.6 167.185 43.408 166.673 43.408H161.393C160.881 43.408 160.433 43.6 160.049 43.984C159.729 44.368 159.569 44.816 159.569 45.328V68.656C159.569 69.168 159.729 69.616 160.049 70C160.433 70.384 160.881 70.576 161.393 70.576H166.673C167.185 70.576 167.601 70.384 167.921 70C168.305 69.616 168.497 69.168 168.497 68.656ZM224.767 46.864V70.288C224.767 78.736 220.799 82.96 212.863 82.96H202.015C194.079 82.96 190.111 78.736 190.111 70.288V46.864C190.111 38.416 194.079 34.192 202.015 34.192H212.863C220.799 34.192 224.767 38.416 224.767 46.864ZM211.903 72.976V44.08C211.903 43.568 211.711 43.12 211.327 42.736C211.007 42.352 210.591 42.16 210.079 42.16H204.799C204.287 42.16 203.839 42.352 203.455 42.736C203.135 43.12 202.975 43.568 202.975 44.08V72.976C202.975 73.488 203.135 73.936 203.455 74.32C203.839 74.704 204.287 74.896 204.799 74.896H210.079C210.591 74.896 211.007 74.704 211.327 74.32C211.711 73.936 211.903 73.488 211.903 72.976ZM250.605 74.608H254.445V82.96H245.421C237.485 82.96 233.517 78.736 233.517 70.288V24.976H246.381V35.152H254.445V44.464H246.381V70C246.381 71.792 246.733 73.008 247.437 73.648C248.141 74.288 249.197 74.608 250.605 74.608ZM305.252 19.888C313.188 19.888 317.156 24.112 317.156 32.56V44.944C317.156 53.392 313.188 57.616 305.252 57.616H294.404V82H280.964V19.888H305.252ZM303.716 46.48V31.024C303.716 30.512 303.524 30.064 303.14 29.68C302.82 29.296 302.404 29.104 301.892 29.104H294.404V48.4H301.892C302.404 48.4 302.82 48.208 303.14 47.824C303.524 47.44 303.716 46.992 303.716 46.48ZM347.232 35.152H358.08V82H347.232V78.544C345.248 81.488 341.952 82.96 337.344 82.96H335.328C327.392 82.96 323.424 78.736 323.424 70.288V46.864C323.424 38.416 327.392 34.192 335.328 34.192H337.344C341.952 34.192 345.248 35.664 347.232 38.608V35.152ZM345.216 71.824V45.328C345.216 44.816 345.024 44.368 344.64 43.984C344.32 43.6 343.904 43.408 343.392 43.408H338.112C337.6 43.408 337.152 43.6 336.768 43.984C336.448 44.368 336.288 44.816 336.288 45.328V71.824C336.288 72.336 336.448 72.784 336.768 73.168C337.152 73.552 337.6 73.744 338.112 73.744H343.392C343.904 73.744 344.32 73.552 344.64 73.168C345.024 72.784 345.216 72.336 345.216 71.824ZM388.91 52.624C396.846 52.624 400.814 56.848 400.814 65.296V70.288C400.814 78.736 396.846 82.96 388.91 82.96H378.254C370.318 82.96 366.35 78.736 366.35 70.288V67.312H378.254V71.536C378.254 72.048 378.414 72.496 378.734 72.88C379.118 73.264 379.566 73.456 380.078 73.456H387.95C388.462 73.456 388.878 73.264 389.198 72.88C389.582 72.496 389.774 72.048 389.774 71.536V65.776C389.774 65.264 389.582 64.816 389.198 64.432C388.878 64.048 388.462 63.856 387.95 63.856H378.062C370.126 63.856 366.158 59.632 366.158 51.184V46.864C366.158 38.416 370.126 34.192 378.062 34.192H388.142C396.078 34.192 400.046 38.416 400.046 46.864V48.592H388.142V45.616C388.142 45.104 387.95 44.656 387.566 44.272C387.246 43.888 386.83 43.696 386.318 43.696H379.022C378.51 43.696 378.062 43.888 377.678 44.272C377.358 44.656 377.198 45.104 377.198 45.616V50.704C377.198 51.216 377.358 51.664 377.678 52.048C378.062 52.432 378.51 52.624 379.022 52.624H388.91ZM430.441 52.624C438.377 52.624 442.345 56.848 442.345 65.296V70.288C442.345 78.736 438.377 82.96 430.441 82.96H419.785C411.849 82.96 407.881 78.736 407.881 70.288V67.312H419.785V71.536C419.785 72.048 419.945 72.496 420.265 72.88C420.649 73.264 421.097 73.456 421.609 73.456H429.481C429.993 73.456 430.409 73.264 430.729 72.88C431.113 72.496 431.305 72.048 431.305 71.536V65.776C431.305 65.264 431.113 64.816 430.729 64.432C430.409 64.048 429.993 63.856 429.481 63.856H419.593C411.657 63.856 407.689 59.632 407.689 51.184V46.864C407.689 38.416 411.657 34.192 419.593 34.192H429.673C437.609 34.192 441.577 38.416 441.577 46.864V48.592H429.673V45.616C429.673 45.104 429.481 44.656 429.097 44.272C428.777 43.888 428.361 43.696 427.849 43.696H420.553C420.041 43.696 419.593 43.888 419.209 44.272C418.889 44.656 418.729 45.104 418.729 45.616V50.704C418.729 51.216 418.889 51.664 419.209 52.048C419.593 52.432 420.041 52.624 420.553 52.624H430.441ZM471.204 35.152H483.492L490.5 71.536L495.972 35.152H508.452L498.18 82H482.628L477.348 53.104L472.068 82H456.516L446.244 35.152H458.724L464.196 71.536L471.204 35.152ZM548.111 46.864V70.288C548.111 78.736 544.143 82.96 536.207 82.96H525.359C517.423 82.96 513.455 78.736 513.455 70.288V46.864C513.455 38.416 517.423 34.192 525.359 34.192H536.207C544.143 34.192 548.111 38.416 548.111 46.864ZM535.247 72.976V44.08C535.247 43.568 535.055 43.12 534.671 42.736C534.351 42.352 533.935 42.16 533.423 42.16H528.143C527.631 42.16 527.183 42.352 526.799 42.736C526.479 43.12 526.319 43.568 526.319 44.08V72.976C526.319 73.488 526.479 73.936 526.799 74.32C527.183 74.704 527.631 74.896 528.143 74.896H533.423C533.935 74.896 534.351 74.704 534.671 74.32C535.055 73.936 535.247 73.488 535.247 72.976ZM576.829 34.192H579.325V46.672H572.989C570.813 46.672 569.725 47.792 569.725 50.032V82H556.861V35.152H568.573V39.664C570.429 36.016 573.181 34.192 576.829 34.192ZM599 34.192C602.264 34.192 604.888 34.96 606.872 36.496V19.888H619.736V82H608.888V78.544C606.904 81.488 603.608 82.96 599 82.96H596.984C589.048 82.96 585.08 78.736 585.08 70.288V46.864C585.08 38.416 589.048 34.192 596.984 34.192H599ZM606.872 71.824V45.328C606.872 44.816 606.68 44.368 606.296 43.984C605.976 43.6 605.56 43.408 605.048 43.408H599.768C599.256 43.408 598.808 43.6 598.424 43.984C598.104 44.368 597.944 44.816 597.944 45.328V71.824C597.944 72.336 598.104 72.784 598.424 73.168C598.808 73.552 599.256 73.744 599.768 73.744H605.048C605.56 73.744 605.976 73.552 606.296 73.168C606.68 72.784 606.872 72.336 606.872 71.824Z" fill="white"/>
<path d="M7.88796 150.885C11.9569 150.331 17.2541 150.197 21.242 150.243C22.5259 150.254 21.8897 150.721 22.7588 150.749C24.4854 150.803 26.0184 150.498 27.6966 150.59C28.2625 150.622 27.6036 151.336 28.1983 151.354C28.2688 151.356 28.3393 151.358 28.4099 151.36C31.5211 151.438 34.4409 151.101 37.6005 151.061C53.5104 150.855 69.117 150.48 85.2023 150.453C90.5091 150.441 96.9554 150.96 102.436 150.656C103.068 150.62 102.687 150.033 102.807 149.984C104.697 149.227 104.075 150.422 105.32 150.573C110.261 151.173 115.769 151.234 120.508 151.041C122.538 150.957 120.509 149.77 122.554 150.444C122.696 150.49 122.173 151.112 122.732 151.183C123.978 151.344 126.36 151.258 127.343 151.32C129.233 151.443 129.52 151.441 131.302 151.475C133.755 151.528 136.593 151.891 139.231 151.807C139.783 151.787 139.066 151.129 139.949 151.039C140.832 150.949 143.18 151.06 143.975 151.232C144.768 151.404 144.415 151.899 144.554 152.019C145.678 153.023 148.418 151.748 148.774 151.726C155.153 151.343 160.625 152.315 166.577 152.568C167.197 152.595 167.823 152.617 168.455 152.637C172.419 152.76 176.562 152.781 180.297 153.011C185.423 153.33 189.764 153.933 194.756 154.184C195.282 154.211 194.713 153.419 195.356 153.451C202.201 153.792 208.971 154.338 215.73 155.338C216.407 155.439 215.481 156.036 216.155 156.177C220.288 157.021 226.769 158.826 229.466 156.144C232.28 156.475 235.694 156.862 238.17 157.645C239.767 158.149 238.129 158.741 240.152 158.596C240.608 158.564 240.073 157.886 240.753 157.886C243.616 157.886 246.71 158.347 249.549 158.257C250.127 158.237 250.018 157.659 250.188 157.571C251.617 156.862 253.778 158.414 254.262 158.555C257.96 159.61 260.744 159.557 264.242 159.877C265.057 159.952 264.158 159.111 264.945 159.156C269.019 159.4 273.224 159.834 277.162 160.521C278.042 160.676 277.169 161.25 277.587 161.357C279.428 161.821 279.949 160.639 281.709 161.06C282.08 161.148 281.819 161.682 281.882 161.748C282.866 162.796 283.928 161.53 284.207 161.525C287.748 161.43 289.852 163.039 293.252 163.142C293.657 163.153 292.81 162.372 293.947 162.446C301.537 162.932 309.525 163.844 316.968 165.069C318.122 165.258 317.246 165.71 317.313 165.781C318.414 166.899 319.298 165.611 319.69 165.594C322.741 165.493 325.41 166.873 327.604 165.437C338.828 166.918 350.209 167.207 361.323 168.895C362.71 169.103 364.072 169.33 365.409 169.58C365.566 169.608 365.237 170.257 365.549 170.309C369.41 170.949 368.69 169.855 371.334 168.748C372.005 168.471 373.849 170.125 374.009 170.247C374.604 170.699 373.902 171.656 374.104 171.749C375.808 172.483 375.746 169.177 378.07 169.306C378.142 169.315 377.804 169.905 377.995 169.976C378.583 170.198 379.213 169.99 379.807 170.231C381.171 170.786 381.536 172.411 383.707 171.58C383.977 171.471 383.672 169.586 385.749 169.767C386.568 169.843 390.259 169.955 391.308 170.108C392.344 170.263 391.611 170.842 391.684 170.87C394.444 171.753 393.363 172.05 394.751 173.268C396.134 174.479 395.807 171.665 396.381 171.365C396.936 171.067 399.005 171.762 399.494 171.996C399.991 172.232 399.362 172.606 399.805 172.742C402.767 173.622 401.127 171.365 402.106 170.929C404.383 169.89 406.175 171.966 408.307 172.145C408.878 172.193 408.407 171.726 408.913 171.674C410.91 171.475 412.126 172.098 414.411 171.427C414.78 171.318 416.571 169.999 417.799 170.856C417.973 170.98 417.522 171.522 418.376 171.595C419.672 171.706 421.977 171.678 423.337 171.401C424.335 171.197 423.11 170.435 424.405 170.6C424.982 170.673 423.969 171.255 425.051 171.35C426.121 171.448 428.826 171.172 429.852 171.04C430.878 170.912 430.245 170.328 430.324 170.276C430.797 169.976 432.715 169.436 432.887 169.413C441.556 168.268 449.745 167.761 458.037 165.449C458.689 165.268 458.094 164.706 458.192 164.672C458.537 164.544 458.794 164.49 458.99 164.492C460.019 164.501 459.292 166.083 460.733 166.264C460.178 164.972 461.179 164.991 462.713 164.456C463.455 164.196 462.912 163.778 462.968 163.707C463.901 162.636 464.94 163.458 465.194 163.616C466.132 164.196 466.718 163.078 467.36 163.459C467.997 163.837 467.028 164.894 468.534 164.492C468.832 163.902 467.385 162.939 468.476 162.437C472.603 160.553 480.889 159.269 484.376 158.331C487.84 157.411 488.923 156.979 490.98 156.534C494.683 155.723 493.079 155.213 495.178 154.09C497.292 152.955 496.919 155.557 497.397 155.939C497.867 156.323 498.052 155.714 498.531 155.853C499.01 155.993 498.265 156.596 499.222 156.398C500.188 156.199 502.426 154.516 502.589 153.901C502.926 152.603 501.432 151.852 503.986 151.444C504.133 151.421 503.876 152.162 504.431 152.044C508.841 151.084 513.263 149.598 517.636 148.505C518.236 148.356 517.947 149.192 518.3 149.113C521.987 148.275 520.322 147.626 521.815 145.714C521.962 147.494 523.399 148.105 526.068 147.145C527.68 146.564 527.146 145.956 527.995 145.078C528.249 144.815 529.562 144.882 529.646 144.473C529.919 143.136 528.415 142.312 531.322 141.782C531.45 141.76 531.29 142.497 531.718 142.378C534.5 141.606 534.379 140.357 537.226 139.117C539.442 138.152 543.748 137.279 546.353 136.383C547.007 138.212 549.284 136.838 549.77 135.204C551.463 134.591 553.224 133.805 554.907 133.326C555.486 133.16 555.332 133.828 555.424 133.856C556.853 134.307 557.083 132.808 557.424 132.615C559.379 131.539 561.264 130.928 563.124 130.224C564.782 129.598 566.423 128.895 567.989 127.743C568.106 127.656 567.796 126.325 569.165 126.818C569.255 126.853 568.271 127.932 570.03 127.244C571.784 126.558 575.341 125.833 577.5 124.226C578.027 123.836 579.06 122.201 580.579 122.475C580.782 122.514 580.764 122.943 581.076 123.042C582.082 123.354 581.947 121.928 583.266 122.617C584.583 123.306 586.74 123.314 588.832 121.523C588.899 121.468 589.037 120.228 589.806 119.909C591.037 119.397 592.84 118.846 594.108 118.276C594.714 118.003 594.053 117.562 594.153 117.504C598.067 115.354 601.216 114.597 605.669 112.868C606.492 112.549 608.395 110.682 610.242 110.634C612.265 110.581 611.886 114.374 615.459 111.877C616.901 110.872 617.144 106.165 620.861 106.832C626.097 103.823 631.608 102.476 636.744 99.2197C636.975 99.0738 637.256 97.6545 637.839 97.3975C638.707 97.0183 639.412 97.2884 640.037 97.034C642.667 95.9771 644.812 94.4487 647.312 93.3451C648.263 92.9243 648.174 93.5896 649.304 93.0888C650.433 92.5879 650.862 91.5639 652.528 91.169C653.786 90.8738 655.579 91.7002 657.174 91.1368C656.589 89.7588 657.641 89.2926 659.322 88.0539C659.645 87.8151 659.039 87.5272 659.18 87.39C659.75 86.8213 660.57 86.908 661.093 86.335C661.22 86.1963 661.008 85.7319 661.1 85.5925C661.873 84.3901 664.18 84.5611 664.578 84.5927C666.095 84.7094 666.365 83.8439 667.408 83.6765C668.45 83.5096 667.246 84.4999 668.391 84.1534C670.761 83.4353 673.566 82.0001 675.816 80.9468C676.713 80.5232 675.808 80.2014 675.929 80.1265C677.707 79.0821 679.888 78.8394 680.327 77.1223C683.13 79.6709 681.295 76.2797 684.242 75.6435C684.475 75.5946 685.459 76.9639 684.765 77.5678C684.07 78.1716 682.636 78.2848 681.689 79.1611C681.465 79.3678 680.633 81.493 680.469 81.6764C679.18 83.112 677.878 80.9849 677.734 80.9029C676.131 80.0406 675.018 82.4337 674.584 82.77C672.594 84.3123 670.565 84.8973 668.871 86.128C667.763 86.9294 668.346 88.4522 667.372 88.8626C664.131 90.2295 662.054 88.7088 659.91 91.9083C659.45 92.5918 660.851 93.8925 657.955 93.724C657.772 93.7134 655.518 93.3711 654.881 94.5684C654.801 94.7192 655.027 95.1849 654.883 95.3017C653.912 96.0741 653.001 96.0499 651.895 96.7932C650.789 97.5363 649.481 98.4818 648.043 98.9673C647.177 99.2607 645.714 98.8849 645.22 98.857C643.819 98.7665 643.105 100.336 642.067 99.9144C641.022 99.4915 641.839 97.7169 639.796 98.0874C640.302 99.3361 640.734 100.658 641.202 101.933C637.194 103.766 633.081 105.212 629.101 107.129C628.607 107.368 629.421 107.787 628.898 108.061C626.694 109.212 624.515 109.654 622.265 110.919C620.53 111.898 618.859 113.509 617.048 114.551C615.246 113.684 612.66 115.441 610.553 116.243C609.817 116.524 609.695 116.128 609.132 116.237C607.007 116.656 608.466 117.487 608.028 117.921C606.138 119.778 604.685 117.057 602.045 118.327C601.904 118.393 600.85 120.664 600.652 120.864C599.406 122.151 600.168 120.455 599.169 120.769C597.347 121.339 595.988 121.515 594.147 122.856C593.613 123.248 592.604 124.812 591.129 124.596C590.935 124.568 590.801 124.034 590.666 124.059C588.245 124.544 588.873 126.128 587.835 127.212C586.797 128.295 584.377 128.063 583.841 127.925C582.449 127.572 584.491 127.235 584.514 127.131C584.77 125.903 583.41 126.686 582.286 127.077C581.465 125.612 579.985 126.359 581.124 127.488C581.251 127.61 582.037 127.102 582.286 127.077C581.981 128.995 580.382 129.913 577.926 129.297C576.775 129.007 577.275 127.886 574.753 129.291C573.61 129.927 574.521 130.79 573.587 131.526C571.447 133.208 567.882 133.537 565.452 134.724C565.224 134.836 565.13 134.933 565.105 135.021C565.035 135.274 565.54 135.453 565.096 135.688C563.503 136.53 561.888 136.681 560.31 137.585C560.168 137.667 560.785 138.129 560.271 138.346C556.392 140.006 552.815 140.983 548.708 142.583C546.73 143.356 543.311 145.072 541.214 145.795C537.594 147.051 532.862 147.8 529.869 149.148C527.928 150.019 528.585 150.48 527.88 151.216C526.521 152.64 523.045 152.231 522.573 152.142C522.558 152.139 524.232 151.374 523.196 151.386C522.423 150.913 522.592 152.132 522.573 152.142C522.27 152.087 518.752 153.176 518.114 153.53C517.762 153.727 518.179 154.243 517.991 154.334C513.545 156.484 508.932 158.221 504.105 159.498C504.018 159.514 503.925 158.809 503.723 158.853C500.897 159.452 499.404 160.829 497.277 162.036C495.168 163.235 493.302 163.634 491.601 162.901C489.929 163.573 487.304 163.809 485.798 163.918C484.28 164.031 484.469 165.391 484.35 165.454C480.676 167.421 478.192 167.315 474.08 168.308C472.125 168.779 468.304 169.985 466.232 170.655C464.573 171.195 463.506 171.13 461.998 171.703C461.795 171.78 462.148 172.318 462.09 172.356C460.719 173.341 460.934 172.186 460.72 171.779C460.691 171.724 460.653 171.683 460.603 171.662C459.075 171.034 458.186 170.72 456.062 171.662C455.583 171.877 454.534 174.292 453.618 174.614C452.428 175.029 452.727 174.186 451.481 174.633C451.374 174.671 451.492 175.129 450.694 175.269C446.978 175.932 442.864 176.392 438.974 177.016C438.442 177.1 439.236 177.739 438.466 177.871C434.853 178.489 430.84 178.929 427.259 178.895C426.384 178.884 426.882 178.314 426.681 178.176C425.449 177.341 423.906 178.828 423.638 178.872C417.169 179.986 412.163 178.899 405.63 179.521C405.274 179.559 402.519 181.022 401.296 179.751C401.206 179.666 400.015 178.369 398.942 179.231C398.873 179.285 399.62 179.959 398.302 179.87C396.957 179.781 394.87 180.177 393.07 179.396C392.517 179.151 391.202 177.829 389.469 178.789C389.372 178.858 386.636 181.067 385.769 179.431C385.627 179.162 385.871 177.485 383.81 178.258C383.413 178.407 384.103 178.817 383.065 179.003C381.48 179.291 379.444 178.735 377.489 179.38C377.154 179.495 375.674 180.559 374.566 179.623C374.392 179.476 374.77 178.934 374.162 178.835C371.354 178.365 368.341 178.549 365.436 177.959C364.429 177.753 365.015 176.88 363.973 176.563C363.229 176.336 361.925 176.074 360.803 176.061C360.369 176.057 359.964 176.094 359.638 176.189C358.497 176.523 359.608 178.061 357.926 178.052C350.604 178.012 343.472 176.574 336.241 175.836C335.165 175.726 335.998 176.319 334.428 176.195C328.581 175.737 318.473 175.335 313.526 173.785C309.553 172.543 314.695 172.326 311.648 171.693C310.178 171.389 308.408 172.925 308.041 172.946C304.471 173.168 302.082 172.203 298.904 172.148C298.247 172.137 298.826 172.876 298.268 172.859C296.36 172.807 294.369 172.321 292.561 172.215C291.745 172.169 291.848 172.703 291.102 172.596C289.313 172.344 287.741 171.983 286.042 171.34C285.887 171.281 287.018 170.73 285.694 170.587C283.547 170.358 280.923 169.64 278.409 169.918C277.661 170.002 277.528 171.189 276.019 170.228C275.702 170.027 276.251 168.636 274.31 169.708C273.985 169.886 270.754 171.279 269.33 170.074C268.957 169.756 268.042 168.499 267.145 168.606C267.023 168.624 267.446 169.305 266.71 169.304C264.115 169.288 261.425 168.987 258.762 168.96C258.051 168.954 259.047 169.706 257.988 169.676C255.079 169.596 251.479 169.121 248.668 168.679C247.632 168.514 248.398 168.026 248.327 167.96C247.188 166.889 246.357 168.138 245.945 168.181C243.384 168.429 241.52 167.657 239.183 167.632C238.538 167.623 238.942 168.284 238.81 168.33C237.443 168.767 238.519 167.725 237.691 167.534C235.373 166.995 232.753 166.837 230.374 166.732C229.499 166.694 230.423 167.494 229.639 167.452C225 167.215 220.197 166.783 215.707 166.054C214.862 165.916 215.437 165.397 215.269 165.257C214.111 164.276 212.235 165.364 211.816 165.451C209.902 165.847 209.208 165.302 207.548 165.28C199.435 165.175 189.485 164.221 181.87 163.604C176.853 163.196 172.393 162.774 168.018 162.429C163.7 162.091 159.465 161.826 154.778 161.734C154.173 161.722 154.758 162.486 154.236 162.485C147.532 162.438 140.953 161.977 134.221 162.071C133.674 162.078 134.45 162.797 133.571 162.831C131.739 162.906 129.453 162.833 127.626 162.585C126.726 162.465 127.942 161.875 127.037 161.767C124.925 161.514 122.709 161.443 120.532 161.54C119.614 161.583 120.992 162.314 119.801 162.315C111.685 162.334 103.732 162.481 95.5031 161.651C94.9401 161.594 94.4254 160.135 93.2435 160.433C93.1602 160.841 93.1721 161.319 93.1395 161.755C81.32 162.162 69.6192 161.989 57.7517 162.417C57.253 162.435 58.1465 163.174 57.1834 163.213C51.6058 163.443 46.1594 163.929 40.4076 163.476C39.8424 163.432 40.0632 162.05 38.3815 162.353C38.093 162.407 35.5713 162.735 34.9431 163.07C34.8587 163.12 35.3491 163.73 34.5499 163.796C32.7794 163.937 30.9717 164.05 29.2023 164.129C26.1692 164.264 23.0975 164.311 20.1212 164.264C19.3566 164.251 20.1189 163.519 19.5772 163.503C15.7044 163.403 11.5879 164.206 7.93541 163.911C5.52507 163.72 6.27699 162.47 4.89691 161.459C4.67984 161.313 3.29933 161.482 3.1354 160.845C2.57998 159.228 3.05249 157.259 2.40829 155.544C2.30876 155.373 1.72622 155.441 0.810482 155.686C0.595156 155.744 0.376828 155.815 0.245813 155.843C0.114874 155.871 0.0603298 155.857 0.028939 155.817C-0.0198398 155.741 -0.0993274 155.565 0.668272 155.036C0.712003 155.005 0.975217 154.884 1.2752 154.764C1.55545 154.647 1.87824 154.525 2.1534 154.412C2.72704 154.183 3.1984 153.965 3.40335 153.777C3.6564 153.523 3.05099 152.91 3.6102 152.556C4.16159 152.206 4.84016 152.708 5.71024 152.291C6.58942 151.872 6.12875 151.129 7.88796 150.885ZM478.996 164.389C477.5 164.133 477.951 166.491 479.226 165.537C479.287 165.488 479.073 164.401 478.996 164.389ZM632.341 103.561C630.278 103.36 629.83 105.28 631.314 105.488C632.798 105.694 632.969 103.621 632.341 103.561ZM648.721 95.0021C646.482 95.1415 647.637 98.3489 649.361 96.7738C649.462 96.6831 648.852 94.9937 648.721 95.0021ZM10.8455 160.584C10.8392 160.552 9.71976 160.61 9.70972 160.643C9.19193 161.447 11.3733 161.334 10.8455 160.584ZM664.9 86.3737C664.116 86.2401 662.657 87.524 663.631 87.6913C664.415 87.8258 665.877 86.5397 664.9 86.3737ZM408.378 173.312C408.357 173.277 407.563 173.254 407.58 173.455C407.642 174.104 408.745 173.908 408.378 173.312ZM692.946 72.8743C688.748 74.7512 685.018 73.4344 689.67 71.5486C690.513 71.2069 688.295 73.2016 689.445 72.9289C691.549 72.4281 692.048 70.2357 694.401 70.1505C694.828 70.1369 693.188 72.7729 692.941 72.8813C692.942 72.879 692.944 72.8766 692.946 72.8743ZM477.458 161.837C477.422 161.814 476.366 162.079 476.35 162.116C475.985 163.007 478.117 162.473 477.458 161.837ZM362.459 170.029C362.433 169.995 361.866 169.924 361.253 169.862C360.577 169.793 359.842 169.737 359.796 169.767C359.043 170.379 360.158 170.81 361.18 170.86C362.096 170.906 362.939 170.669 362.459 170.029ZM546.412 136.416C547.245 135.268 548.53 134.663 549.765 135.205C548.648 135.594 547.54 136.023 546.412 136.416Z" fill="white"/>
<path d="M67.3772 119.947C71.0686 119.469 75.8625 119.415 79.4837 119.518C80.6524 119.547 80.0741 120.004 80.8594 120.045C82.4303 120.123 83.8222 119.84 85.3357 119.955C85.8466 119.995 85.2497 120.7 85.7867 120.726C85.9014 120.732 86.0164 120.736 86.1317 120.74C88.8949 120.845 91.5 120.557 94.317 120.556C108.751 120.55 122.887 120.31 137.478 120.351C142.287 120.363 148.147 120.899 153.092 120.601C153.677 120.565 153.325 119.978 153.435 119.929C155.155 119.174 154.585 120.368 155.712 120.521C160.204 121.123 165.171 121.181 169.482 120.977C171.316 120.89 169.481 119.707 171.331 120.377C171.459 120.422 170.987 121.045 171.492 121.115C172.649 121.273 174.781 121.179 175.675 121.238C177.389 121.355 177.661 121.352 179.268 121.379C181.477 121.422 184.074 121.773 186.45 121.674C186.958 121.651 186.298 120.997 187.11 120.902C187.916 120.808 190.033 120.904 190.752 121.071C191.47 121.238 191.152 121.736 191.277 121.854C192.318 122.852 194.784 121.558 195.107 121.533C200.902 121.105 205.839 122.028 211.251 122.221C212.16 122.253 213.087 122.275 214.023 122.291C217.281 122.348 220.646 122.342 223.69 122.506C228.352 122.762 232.275 123.305 236.814 123.485C237.291 123.504 236.773 122.721 237.355 122.744C243.56 122.986 249.702 123.425 255.839 124.314C256.453 124.404 255.616 125.016 256.228 125.145C259.978 125.921 265.867 127.614 268.301 124.885C270.853 125.167 273.954 125.493 276.203 126.231C277.654 126.706 276.17 127.327 278.004 127.145C278.418 127.105 277.93 126.437 278.547 126.425C281.146 126.373 283.95 126.776 286.529 126.633C287.053 126.602 286.951 126.027 287.106 125.936C288.402 125.2 290.362 126.71 290.805 126.842C294.17 127.827 296.687 127.72 299.867 127.973C300.604 128.032 299.788 127.209 300.5 127.239C304.198 127.403 308.01 127.755 311.592 128.365C312.387 128.502 311.601 129.093 311.979 129.191C313.64 129.619 314.119 128.427 315.719 128.814C316.057 128.894 315.822 129.433 315.88 129.499C316.783 130.527 317.732 129.24 317.984 129.229C321.202 129.065 323.101 130.629 326.199 130.667C326.568 130.67 325.794 129.906 326.829 129.957C333.716 130.292 340.967 131.047 347.723 132.126C348.778 132.294 347.98 132.761 348.042 132.831C349.052 133.927 349.855 132.624 350.202 132.599C352.937 132.437 355.41 133.769 357.368 132.29C368.35 133.654 379.354 133.648 390.178 135.522C390.69 135.609 391.198 135.701 391.702 135.796C391.847 135.821 391.544 136.475 391.834 136.523C395.277 137.108 394.699 136.028 397.071 134.888C397.661 134.602 399.341 136.235 399.5 136.356C400.052 136.802 399.402 137.765 399.59 137.856C401.152 138.572 401.037 135.265 403.179 135.372C403.246 135.381 402.933 135.973 403.111 136.042C403.663 136.26 404.227 136.046 404.758 136.281C405.961 136.822 406.35 138.446 408.295 137.598C408.541 137.487 408.252 135.604 410.141 135.771C410.92 135.842 414.246 135.935 415.194 136.085C416.124 136.236 415.463 136.818 415.529 136.846C418.011 137.721 417.073 138.022 418.307 139.237C419.545 140.446 419.262 137.633 419.78 137.333C420.314 137.035 422.163 137.731 422.605 137.967C423.051 138.204 422.483 138.577 422.881 138.713C425.586 139.602 424.093 137.34 424.986 136.908C427.071 135.879 428.668 137.967 430.603 138.166C431.12 138.22 430.698 137.747 431.155 137.701C432.978 137.523 434.066 138.161 436.147 137.525C436.482 137.423 438.125 136.134 439.229 137.016C439.385 137.143 438.969 137.675 439.743 137.766C440.918 137.902 443.007 137.928 444.247 137.688C445.155 137.512 444.058 136.716 445.227 136.917C445.75 137.006 444.82 137.56 445.802 137.685C446.774 137.812 449.234 137.622 450.163 137.528C451.098 137.436 450.533 136.831 450.605 136.781C451.043 136.497 452.789 136.03 452.948 136.014C460.84 135.205 468.293 135.147 475.878 133.313C476.473 133.169 475.943 132.576 476.033 132.548C478.036 131.863 476.764 133.965 478.317 134.276C477.904 133.136 478.513 133.042 479.611 132.747C479.78 132.702 479.961 132.651 480.152 132.591C480.831 132.376 480.344 131.928 480.397 131.861C481.261 130.85 482.2 131.728 482.426 131.9C483.27 132.532 483.82 131.457 484.4 131.873C484.977 132.286 484.074 133.279 485.452 132.97C485.733 132.401 484.434 131.357 485.436 130.924C489.226 129.297 496.806 128.544 500.003 127.842C503.18 127.156 504.179 126.8 506.06 126.496C509.461 125.94 507.997 125.329 509.938 124.356C511.889 123.376 511.498 125.931 511.929 126.342C512.352 126.755 512.532 126.164 512.968 126.335C513.403 126.506 512.71 127.053 513.59 126.923C514.479 126.79 516.548 125.28 516.711 124.681C517.046 123.417 515.687 122.57 518.03 122.345C518.166 122.332 517.916 123.049 518.427 122.971C522.473 122.33 526.543 121.177 530.562 120.416C531.115 120.312 530.834 121.119 531.159 121.066C534.542 120.51 533.035 119.744 534.439 117.961C534.545 119.732 535.831 120.448 538.303 119.694C539.788 119.241 539.304 118.601 540.103 117.796C540.341 117.554 541.545 117.718 541.629 117.32C541.903 116.019 540.529 115.094 543.21 114.787C543.329 114.775 543.167 115.492 543.563 115.407C546.114 114.859 546.048 113.607 548.663 112.607C550.729 111.817 554.659 111.301 557.082 110.616C557.651 112.472 559.748 111.3 560.234 109.722C561.791 109.253 563.434 108.613 564.977 108.278C565.508 108.162 565.355 108.808 565.439 108.844C566.738 109.404 566.985 107.941 567.301 107.777C569.805 106.526 572.213 106.135 574.547 105.182C575.402 104.832 576.247 104.406 577.083 103.831C577.192 103.755 576.939 102.415 578.181 103.014C578.263 103.057 577.344 104.039 578.965 103.507C580.588 102.975 583.866 102.555 585.88 101.15C586.367 100.812 587.353 99.2833 588.743 99.6807C588.929 99.7359 588.904 100.157 589.188 100.282C590.105 100.673 590.002 99.2586 591.204 100.047C592.41 100.833 594.37 101.029 596.341 99.4362C596.406 99.387 596.554 98.1779 597.264 97.9286C598.397 97.5319 600.079 97.1362 601.247 96.6849C601.808 96.4679 601.21 95.9778 601.303 95.9292C604.948 94.1404 607.843 93.6693 611.977 92.3461C612.734 92.1053 614.531 90.4258 616.223 90.5409C618.082 90.6637 617.672 94.3606 620.997 92.2144C622.345 91.348 622.651 86.7401 626.065 87.7159C630.937 85.2098 636.033 84.365 640.822 81.6117C641.037 81.4886 641.322 80.1174 641.863 79.916C642.669 79.6191 643.31 79.9477 643.892 79.7511C646.333 78.9422 648.338 77.6267 650.658 76.7626C651.539 76.433 651.448 77.0781 652.498 76.6851C653.546 76.292 653.958 75.3237 655.501 75.0816C656.666 74.9014 658.298 75.873 659.776 75.4599C659.265 74.0533 660.244 73.6868 661.814 72.618C662.115 72.4118 661.564 72.0752 661.696 71.9528C662.231 71.4441 662.984 71.6017 663.478 71.084C663.598 70.959 663.411 70.4836 663.499 70.3547C664.233 69.241 666.352 69.6134 666.718 69.6796C668.115 69.9275 668.378 69.1013 669.342 69.029C670.304 68.9572 669.177 69.8241 670.237 69.5848C672.435 69.088 675.043 67.9257 677.134 67.0897C677.969 66.7529 677.141 66.3563 677.255 66.2934C678.911 65.4245 680.924 65.3787 681.361 63.7299C683.892 66.4839 682.269 62.9872 684.994 62.6233C685.209 62.5959 686.089 64.0291 685.439 64.5612C684.788 65.0931 683.464 65.0776 682.576 65.8548C682.366 66.0381 681.559 68.0534 681.404 68.2192C680.191 69.5159 679.031 67.3101 678.901 67.2166C677.442 66.2269 676.371 68.4806 675.966 68.7728C674.103 70.1132 672.224 70.5086 670.641 71.5685C669.606 72.2582 670.113 73.8068 669.209 74.1241C666.198 75.1818 664.314 73.5036 662.281 76.4594C661.844 77.091 663.111 78.4924 660.446 78.0726C660.278 78.046 658.21 77.5102 657.602 78.6312C657.525 78.7724 657.725 79.2502 657.589 79.3524C656.677 80.0281 655.843 79.9226 654.81 80.5561C653.78 81.1885 652.553 82.0052 651.223 82.3553C650.422 82.5671 649.08 82.0702 648.626 81.9994C647.339 81.7869 646.652 83.2676 645.706 82.7616C644.751 82.2545 645.54 80.5797 643.649 80.7665C644.09 82.039 644.463 83.3772 644.869 84.6721C641.149 86.1222 637.334 87.1857 633.634 88.7258C633.175 88.9182 633.916 89.4013 633.431 89.6249C631.387 90.5635 629.366 90.812 627.277 91.8593C625.653 92.676 624.099 94.1116 622.406 94.9838C620.771 93.9727 618.349 95.4826 616.405 96.0883C615.723 96.3016 615.617 95.9017 615.095 95.9606C613.131 96.1915 614.46 97.1343 614.048 97.5237C612.284 99.1866 610.984 96.3893 608.543 97.4102C608.416 97.4625 607.394 99.6122 607.21 99.7919C606.043 100.952 606.773 99.3477 605.851 99.5704C604.171 99.9752 602.908 100.037 601.199 101.199C600.698 101.541 599.736 102.997 598.391 102.658C598.214 102.614 598.1 102.077 597.976 102.09C595.741 102.364 596.283 103.98 595.314 104.958C594.345 105.936 592.114 105.509 591.631 105.326C590.363 104.861 592.239 104.702 592.262 104.601C592.519 103.413 591.259 104.069 590.222 104.359C589.497 102.846 588.118 103.461 589.144 104.669C589.259 104.8 589.993 104.363 590.222 104.359C589.901 106.226 588.418 106.996 586.174 106.185C585.123 105.804 585.594 104.742 583.262 105.916C582.204 106.446 583.02 107.375 582.147 108.024C580.595 109.177 578.259 109.454 576.247 109.975C575.669 110.125 575.118 110.295 574.618 110.512C573.798 110.866 574.826 111.171 574.273 111.434C572.814 112.128 571.298 112.158 569.852 112.916C569.721 112.986 570.276 113.491 569.803 113.664C566.205 114.993 562.913 115.67 559.122 116.926C557.284 117.537 554.122 118.964 552.195 119.514C548.864 120.472 544.497 120.858 541.742 121.962C539.942 122.681 540.547 123.182 539.887 123.857C538.607 125.167 535.446 124.5 535.01 124.379C534.996 124.376 536.546 123.741 535.596 123.677C534.896 123.152 535.027 124.371 535.01 124.379C534.729 124.303 531.498 125.12 530.906 125.426C530.583 125.594 530.953 126.136 530.781 126.212C526.679 128.015 522.428 129.406 517.995 130.335C517.914 130.344 517.843 129.639 517.657 129.669C515.059 130.066 513.673 131.328 511.711 132.379C509.765 133.425 508.05 133.697 506.515 132.855C504.975 133.41 502.575 133.471 501.202 133.481C499.814 133.494 499.961 134.858 499.852 134.912C496.466 136.628 494.203 136.366 490.437 137.099C488.649 137.447 485.144 138.416 483.244 138.962C482.361 139.218 481.662 139.282 480.964 139.386C480.454 139.462 479.945 139.558 479.371 139.76C479.186 139.825 479.497 140.38 479.443 140.415C478.01 141.438 478.475 139.836 478.099 139.64C476.725 138.929 475.91 138.568 473.965 139.386C473.524 139.573 472.521 141.921 471.682 142.192C470.583 142.542 470.879 141.717 469.735 142.096C469.637 142.128 469.738 142.59 469.005 142.688C465.608 143.152 461.865 143.404 458.324 143.856C457.839 143.915 458.547 144.588 457.845 144.686C454.554 145.146 450.923 145.433 447.684 145.29C446.892 145.252 447.352 144.698 447.172 144.554C446.068 143.682 444.653 145.126 444.41 145.163C438.54 146.109 434.045 144.947 428.121 145.519C427.807 145.554 425.287 147 424.204 145.726C424.135 145.642 423.029 144.34 422.071 145.2C422.009 145.254 422.676 145.929 421.493 145.839C420.293 145.748 418.39 146.144 416.758 145.368C416.229 145.123 415.097 143.806 413.501 144.772C413.378 144.84 410.959 147.064 410.153 145.434C410.034 145.166 410.209 143.486 408.375 144.274C408.02 144.426 408.637 144.83 407.708 145.025C406.262 145.324 404.441 144.786 402.651 145.449C402.328 145.566 400.999 146.646 400.013 145.723C399.859 145.578 400.196 145.032 399.654 144.94C397.058 144.498 394.316 144.718 391.746 144.171C390.822 143.978 391.356 143.098 390.392 142.794C390.206 142.735 389.983 142.675 389.736 142.618C388.736 142.38 387.317 142.201 386.469 142.483C385.422 142.833 386.436 144.354 384.907 144.371C378.281 144.443 371.812 143.129 365.251 142.523C364.283 142.433 365.051 143.011 363.615 142.915C358.315 142.564 349.149 142.357 344.638 140.903C341.039 139.74 345.707 139.423 342.93 138.849C341.589 138.574 339.978 140.143 339.655 140.171C336.433 140.465 334.253 139.547 331.367 139.554C330.769 139.556 331.3 140.283 330.791 140.277C329.041 140.261 327.271 139.819 325.612 139.747C324.869 139.717 324.966 140.248 324.286 140.155C322.658 139.94 321.249 139.611 319.693 139.001C319.552 138.945 320.579 138.372 319.373 138.256C317.412 138.068 315.052 137.404 312.758 137.73C312.078 137.829 311.965 139.018 310.599 138.087C310.312 137.893 310.804 136.492 309.044 137.601C308.749 137.785 305.817 139.24 304.53 138.064C304.189 137.754 303.352 136.515 302.537 136.639C302.426 136.66 302.814 137.332 302.145 137.345C299.785 137.379 297.354 137.131 294.931 137.155C294.286 137.163 295.191 137.894 294.233 137.885C291.599 137.861 288.325 137.455 285.775 137.065C284.833 136.919 285.527 136.418 285.462 136.353C284.423 135.303 283.674 136.567 283.301 136.618C280.982 136.914 279.284 136.176 277.164 136.193C276.579 136.196 276.948 136.85 276.829 136.898C275.591 137.359 276.562 136.299 275.811 136.123C273.705 135.626 271.328 135.515 269.168 135.451C268.375 135.429 269.216 136.213 268.505 136.184C264.298 136.03 259.937 135.679 255.86 135.025C255.093 134.901 255.613 134.373 255.46 134.236C254.408 133.275 252.708 134.393 252.326 134.486C250.592 134.912 249.962 134.379 248.458 134.383C241.096 134.407 232.07 133.597 225.16 133.077C221 132.764 217.275 132.428 213.645 132.146C209.36 131.814 205.22 131.553 200.573 131.495C200.026 131.487 200.556 132.246 200.085 132.25C194.001 132.257 188.026 131.838 181.934 131.962C181.43 131.971 182.145 132.687 181.337 132.725C179.671 132.809 177.627 132.745 175.943 132.502C175.13 132.386 176.229 131.792 175.41 131.687C173.508 131.441 171.473 131.375 169.512 131.477C168.682 131.522 169.93 132.25 168.852 132.253C161.502 132.287 154.261 132.433 146.811 131.583C146.3 131.525 145.846 130.064 144.761 130.359C144.684 130.767 144.695 131.246 144.664 131.681C133.957 132.054 123.321 131.811 112.568 132.129C112.117 132.143 112.923 132.89 112.052 132.92C107 133.098 102.039 133.525 96.8338 133.002C96.3285 132.951 96.5103 131.574 94.9954 131.855C94.7398 131.905 92.4397 132.202 91.8766 132.528C91.8002 132.577 92.2418 133.193 91.5193 133.248C89.9513 133.364 88.3685 133.45 86.8118 133.504C84.013 133.603 81.1701 133.609 78.4244 133.517C77.7335 133.492 78.4245 132.772 77.935 132.749C74.4199 132.591 70.6811 133.331 67.3659 132.966C65.1789 132.725 65.8649 131.492 64.6164 130.449C64.4209 130.299 63.1587 130.426 63.0145 129.781C62.527 128.146 62.9679 126.203 62.4004 124.467C62.3096 124.291 61.7937 124.344 60.9682 124.518C60.7714 124.56 60.5721 124.611 60.4489 124.629C60.3271 124.646 60.2767 124.627 60.2487 124.585C60.2026 124.505 60.1439 124.329 60.8482 123.865C60.8855 123.838 61.125 123.737 61.3921 123.635C61.6448 123.536 61.9299 123.43 62.179 123.329C62.6944 123.123 63.1203 122.919 63.3063 122.737C63.5358 122.491 62.9933 121.862 63.4991 121.524C63.998 121.189 64.6092 121.707 65.3988 121.309C66.1946 120.909 65.7806 120.158 67.3772 119.947ZM494.989 133.513C493.629 133.163 493.998 135.534 495.178 134.667C495.235 134.622 495.059 133.529 494.989 133.513ZM636.684 85.4985C634.792 85.1198 634.344 86.9696 635.704 87.3039C637.064 87.6367 637.261 85.6122 636.684 85.4985ZM651.922 78.5161C649.86 78.4557 650.861 81.7113 652.477 80.3146C652.572 80.2344 652.043 78.5193 651.922 78.5161ZM70.0222 129.694C70.0184 129.662 68.9991 129.701 68.9916 129.733C68.5185 130.527 70.4988 130.453 70.0222 129.694ZM666.981 71.4591C666.261 71.2583 664.894 72.3913 665.787 72.642C666.506 72.8436 667.877 71.7087 666.981 71.4591ZM430.658 139.334C430.639 139.298 429.922 139.268 429.936 139.469C429.986 140.118 430.984 139.933 430.658 139.334ZM693.061 60.6732C689.16 62.1459 685.751 60.5205 690.071 59.0796C690.853 58.8185 688.773 60.5824 689.837 60.4164C691.784 60.1107 692.285 57.9999 694.453 58.1248C694.846 58.1493 693.286 60.595 693.056 60.6796C693.058 60.6775 693.06 60.6753 693.061 60.6732ZM493.631 130.88C493.599 130.856 492.631 131.052 492.616 131.088C492.268 131.95 494.221 131.554 493.631 130.88ZM389.014 136.284C388.969 136.214 386.679 136.005 386.594 136.061C385.315 137.224 389.954 137.652 389.014 136.284ZM557.135 110.652C557.915 109.586 559.103 109.091 560.229 109.723C559.193 110.019 558.172 110.355 557.135 110.652Z" fill="#A85F5F"/>
</svg>
