<svg width="695" height="161" viewBox="0 0 695 161" fill="none" xmlns="http://www.w3.org/2000/svg">
<path d="M215.094 70.672H229.782V82H201.654V19.888H215.094V70.672ZM270.33 46.864V70.288C270.33 78.736 266.362 82.96 258.426 82.96H247.578C239.642 82.96 235.674 78.736 235.674 70.288V46.864C235.674 38.416 239.642 34.192 247.578 34.192H258.426C266.362 34.192 270.33 38.416 270.33 46.864ZM257.466 72.976V44.08C257.466 43.568 257.274 43.12 256.89 42.736C256.57 42.352 256.154 42.16 255.642 42.16H250.362C249.85 42.16 249.402 42.352 249.018 42.736C248.698 43.12 248.538 43.568 248.538 44.08V72.976C248.538 73.488 248.698 73.936 249.018 74.32C249.402 74.704 249.85 74.896 250.362 74.896H255.642C256.154 74.896 256.57 74.704 256.89 74.32C257.274 73.936 257.466 73.488 257.466 72.976ZM313.736 35.152V85.552C313.736 94 309.768 98.224 301.832 98.224H292.232C284.296 98.224 280.328 94 280.328 85.552V84.016H291.944V87.088C291.944 87.6 292.104 88.048 292.424 88.432C292.808 88.816 293.256 89.008 293.768 89.008H299.048C299.56 89.008 299.976 88.816 300.296 88.432C300.68 88.048 300.872 87.6 300.872 87.088V77.488C298.888 79.024 296.264 79.792 293 79.792H290.984C283.048 79.792 279.08 75.568 279.08 67.12V46.864C279.08 38.416 283.048 34.192 290.984 34.192H293C297.608 34.192 300.904 35.664 302.888 38.608V35.152H313.736ZM300.872 68.656V45.328C300.872 44.816 300.68 44.368 300.296 43.984C299.976 43.6 299.56 43.408 299.048 43.408H293.768C293.256 43.408 292.808 43.6 292.424 43.984C292.104 44.368 291.944 44.816 291.944 45.328V68.656C291.944 69.168 292.104 69.616 292.424 70C292.808 70.384 293.256 70.576 293.768 70.576H299.048C299.56 70.576 299.976 70.384 300.296 70C300.68 69.616 300.872 69.168 300.872 68.656ZM335.542 29.296C334.198 30.64 332.566 31.312 330.646 31.312C328.726 31.312 327.062 30.64 325.654 29.296C324.246 27.888 323.542 26.224 323.542 24.304C323.542 22.32 324.246 20.656 325.654 19.312C327.062 17.904 328.726 17.2 330.646 17.2C332.566 17.2 334.198 17.904 335.542 19.312C336.95 20.656 337.654 22.32 337.654 24.304C337.654 26.288 336.95 27.952 335.542 29.296ZM324.214 82V35.152H337.078V82H324.214ZM358.975 82H346.111V35.152H357.823V37.552C359.807 35.312 362.815 34.192 366.847 34.192H368.863C376.799 34.192 380.767 38.416 380.767 46.864V82H367.903V45.328C367.903 44.816 367.711 44.368 367.327 43.984C367.007 43.6 366.591 43.408 366.079 43.408H360.799C360.287 43.408 359.839 43.6 359.455 43.984C359.135 44.368 358.975 44.816 358.975 45.328V82Z" fill="white"/>
<path d="M7.88796 130.885C11.9569 130.331 17.2541 130.197 21.242 130.243C22.5259 130.254 21.8897 130.721 22.7588 130.749C24.4854 130.803 26.0184 130.498 27.6966 130.59C28.2625 130.622 27.6036 131.336 28.1983 131.354C28.2688 131.356 28.3393 131.358 28.4099 131.36C31.5211 131.438 34.4409 131.101 37.6005 131.061C53.5104 130.855 69.117 130.48 85.2023 130.453C90.5091 130.441 96.9554 130.96 102.436 130.656C103.068 130.62 102.687 130.033 102.807 129.984C104.697 129.227 104.075 130.422 105.32 130.573C110.261 131.173 115.769 131.234 120.508 131.041C122.538 130.957 120.509 129.77 122.554 130.444C122.696 130.49 122.173 131.112 122.732 131.183C123.978 131.344 126.36 131.258 127.343 131.32C129.233 131.443 129.52 131.441 131.302 131.475C133.755 131.528 136.593 131.891 139.231 131.807C139.783 131.787 139.066 131.129 139.949 131.039C140.832 130.949 143.18 131.06 143.975 131.232C144.768 131.404 144.415 131.899 144.554 132.019C145.678 133.023 148.418 131.748 148.774 131.726C155.153 131.343 160.625 132.315 166.577 132.568C167.197 132.595 167.823 132.617 168.455 132.637C172.419 132.76 176.562 132.781 180.297 133.011C185.423 133.33 189.764 133.933 194.756 134.184C195.282 134.211 194.713 133.419 195.356 133.451C202.201 133.792 208.971 134.338 215.73 135.338C216.407 135.439 215.481 136.036 216.155 136.177C220.288 137.021 226.769 138.826 229.466 136.144C232.28 136.475 235.694 136.862 238.17 137.645C239.767 138.149 238.129 138.741 240.152 138.596C240.608 138.564 240.073 137.886 240.753 137.886C243.616 137.886 246.71 138.347 249.549 138.257C250.127 138.237 250.018 137.659 250.188 137.571C251.617 136.862 253.778 138.414 254.262 138.555C257.96 139.61 260.744 139.557 264.242 139.877C265.057 139.952 264.158 139.111 264.945 139.156C269.019 139.4 273.224 139.834 277.162 140.521C278.042 140.676 277.169 141.25 277.587 141.357C279.428 141.821 279.949 140.639 281.709 141.06C282.08 141.148 281.819 141.682 281.882 141.748C282.866 142.796 283.928 141.53 284.207 141.525C287.748 141.43 289.852 143.039 293.252 143.142C293.657 143.153 292.81 142.372 293.947 142.446C301.537 142.932 309.525 143.844 316.968 145.069C318.122 145.258 317.246 145.71 317.313 145.781C318.414 146.899 319.298 145.611 319.69 145.594C322.741 145.493 325.41 146.873 327.604 145.437C338.828 146.918 350.209 147.207 361.323 148.895C362.71 149.103 364.072 149.33 365.409 149.58C365.566 149.608 365.237 150.257 365.549 150.309C369.41 150.949 368.69 149.855 371.334 148.748C372.005 148.471 373.849 150.125 374.009 150.247C374.604 150.699 373.902 151.656 374.104 151.749C375.808 152.483 375.746 149.177 378.07 149.306C378.142 149.315 377.804 149.905 377.995 149.976C378.583 150.198 379.213 149.99 379.807 150.231C381.171 150.786 381.536 152.411 383.707 151.58C383.977 151.471 383.672 149.586 385.749 149.767C386.568 149.843 390.259 149.955 391.308 150.108C392.344 150.263 391.611 150.842 391.684 150.87C394.444 151.753 393.363 152.05 394.751 153.268C396.134 154.479 395.807 151.665 396.381 151.365C396.936 151.067 399.005 151.762 399.494 151.996C399.991 152.232 399.362 152.606 399.805 152.742C402.767 153.622 401.127 151.365 402.106 150.929C404.383 149.89 406.175 151.966 408.307 152.145C408.878 152.193 408.407 151.726 408.913 151.674C410.91 151.475 412.126 152.098 414.411 151.427C414.78 151.318 416.571 149.999 417.799 150.856C417.973 150.98 417.522 151.522 418.376 151.595C419.672 151.706 421.977 151.678 423.337 151.401C424.335 151.197 423.109 150.435 424.405 150.6C424.982 150.673 423.969 151.255 425.051 151.35C426.121 151.448 428.826 151.172 429.852 151.04C430.878 150.912 430.245 150.328 430.324 150.276C430.797 149.976 432.715 149.436 432.887 149.413C441.556 148.268 449.745 147.761 458.037 145.449C458.689 145.268 458.094 144.706 458.192 144.672C458.537 144.544 458.794 144.49 458.99 144.492C460.019 144.501 459.292 146.083 460.733 146.264C460.178 144.972 461.179 144.991 462.713 144.456C463.455 144.196 462.912 143.778 462.968 143.707C463.901 142.636 464.94 143.458 465.194 143.616C466.132 144.196 466.718 143.078 467.36 143.459C467.997 143.837 467.028 144.894 468.534 144.492C468.832 143.902 467.385 142.939 468.476 142.437C472.603 140.553 480.889 139.269 484.376 138.331C487.84 137.411 488.923 136.979 490.98 136.534C494.683 135.723 493.079 135.213 495.178 134.09C497.292 132.955 496.919 135.557 497.397 135.939C497.867 136.323 498.052 135.714 498.531 135.853C499.01 135.993 498.265 136.596 499.222 136.398C500.188 136.199 502.426 134.516 502.589 133.901C502.926 132.603 501.432 131.852 503.986 131.444C504.133 131.421 503.876 132.162 504.431 132.044C508.841 131.084 513.263 129.598 517.636 128.505C518.236 128.356 517.947 129.192 518.3 129.113C521.987 128.275 520.322 127.626 521.815 125.714C521.962 127.494 523.399 128.105 526.068 127.145C527.68 126.564 527.146 125.956 527.995 125.078C528.249 124.815 529.562 124.882 529.646 124.473C529.919 123.136 528.415 122.312 531.322 121.782C531.45 121.76 531.29 122.497 531.718 122.378C534.5 121.606 534.379 120.357 537.226 119.117C539.442 118.152 543.748 117.279 546.353 116.383C547.007 118.212 549.284 116.838 549.77 115.204C551.463 114.591 553.224 113.805 554.907 113.326C555.486 113.16 555.332 113.828 555.424 113.856C556.853 114.307 557.083 112.808 557.424 112.615C559.379 111.539 561.264 110.928 563.124 110.224C564.782 109.598 566.422 108.895 567.989 107.743C568.106 107.656 567.796 106.325 569.165 106.818C569.255 106.853 568.271 107.932 570.03 107.244C571.784 106.558 575.341 105.833 577.5 104.226C578.027 103.836 579.06 102.201 580.579 102.475C580.782 102.514 580.764 102.943 581.076 103.042C582.082 103.354 581.947 101.928 583.266 102.617C584.583 103.306 586.74 103.314 588.832 101.523C588.899 101.468 589.037 100.228 589.806 99.9085C591.037 99.3974 592.84 98.8465 594.108 98.2758C594.714 98.0027 594.053 97.5625 594.153 97.5045C598.067 95.3539 601.216 94.5971 605.669 92.8679C606.492 92.5491 608.395 90.6818 610.242 90.6342C612.265 90.5806 611.886 94.3743 615.459 91.8771C616.901 90.8715 617.144 86.1653 620.861 86.8319C626.097 83.8233 631.608 82.4761 636.744 79.2197C636.975 79.0738 637.255 77.6545 637.839 77.3975C638.707 77.0183 639.412 77.2884 640.037 77.034C642.667 75.9771 644.812 74.4487 647.312 73.3451C648.263 72.9243 648.174 73.5896 649.304 73.0888C650.433 72.5879 650.862 71.5639 652.528 71.169C653.786 70.8738 655.579 71.7002 657.174 71.1368C656.589 69.7588 657.641 69.2926 659.322 68.0539C659.645 67.8151 659.039 67.5272 659.18 67.39C659.75 66.8213 660.57 66.908 661.093 66.335C661.22 66.1963 661.008 65.7319 661.1 65.5925C661.873 64.3901 664.18 64.5611 664.578 64.5927C666.095 64.7094 666.365 63.8439 667.408 63.6765C668.45 63.5096 667.246 64.4999 668.391 64.1534C670.761 63.4353 673.566 62.0001 675.816 60.9468C676.713 60.5232 675.808 60.2014 675.929 60.1265C677.707 59.0821 679.888 58.8394 680.326 57.1223C683.13 59.6709 681.295 56.2797 684.242 55.6435C684.475 55.5946 685.459 56.9639 684.765 57.5678C684.07 58.1716 682.636 58.2848 681.689 59.1611C681.465 59.3678 680.633 61.493 680.469 61.6764C679.18 63.112 677.878 60.9849 677.734 60.9029C676.131 60.0406 675.018 62.4337 674.584 62.77C672.594 64.3123 670.565 64.8973 668.871 66.128C667.763 66.9294 668.346 68.4522 667.372 68.8626C664.131 70.2295 662.054 68.7088 659.91 71.9083C659.45 72.5918 660.851 73.8925 657.955 73.724C657.772 73.7134 655.518 73.3711 654.881 74.5684C654.801 74.7192 655.027 75.1849 654.883 75.3017C653.912 76.0741 653.001 76.0499 651.895 76.7932C650.789 77.5363 649.481 78.4818 648.043 78.9673C647.177 79.2607 645.714 78.8849 645.22 78.857C643.819 78.7665 643.105 80.3361 642.067 79.9144C641.021 79.4915 641.839 77.7169 639.796 78.0874C640.302 79.3361 640.734 80.6581 641.202 81.9331C637.194 83.7659 633.081 85.2116 629.101 87.1288C628.607 87.3681 629.421 87.787 628.898 88.0607C626.695 89.212 624.515 89.6539 622.265 90.9186C620.53 91.8976 618.859 93.5093 617.048 94.551C615.246 93.6844 612.66 95.4411 610.553 96.2434C609.817 96.5244 609.695 96.1283 609.132 96.2368C607.007 96.6558 608.466 97.487 608.028 97.9209C606.138 99.7778 604.685 97.0569 602.045 98.3268C601.904 98.3935 600.85 100.664 600.652 100.864C599.406 102.151 600.168 100.455 599.169 100.769C597.347 101.339 595.988 101.515 594.147 102.856C593.613 103.248 592.604 104.812 591.129 104.596C590.935 104.568 590.801 104.034 590.666 104.059C588.245 104.544 588.873 106.128 587.835 107.212C586.797 108.295 584.377 108.063 583.841 107.925C582.449 107.572 584.491 107.235 584.514 107.131C584.77 105.903 583.41 106.686 582.286 107.077C581.465 105.612 579.985 106.359 581.124 107.488C581.251 107.61 582.037 107.102 582.286 107.077C581.981 108.995 580.382 109.913 577.926 109.297C576.775 109.007 577.275 107.886 574.753 109.291C573.61 109.927 574.521 110.79 573.587 111.526C571.447 113.208 567.882 113.537 565.452 114.724C565.224 114.836 565.13 114.933 565.105 115.021C565.035 115.274 565.54 115.453 565.096 115.688C563.503 116.53 561.888 116.681 560.31 117.585C560.168 117.667 560.785 118.129 560.271 118.346C556.392 120.006 552.815 120.983 548.708 122.583C546.73 123.356 543.311 125.072 541.214 125.795C537.594 127.051 532.862 127.8 529.869 129.148C527.928 130.019 528.585 130.48 527.88 131.216C526.521 132.64 523.045 132.231 522.573 132.142C522.558 132.139 524.232 131.374 523.196 131.386C522.423 130.913 522.592 132.132 522.573 132.142C522.27 132.087 518.752 133.176 518.114 133.53C517.762 133.727 518.179 134.243 517.991 134.334C513.545 136.484 508.932 138.221 504.105 139.498C504.018 139.514 503.925 138.809 503.723 138.853C500.897 139.452 499.404 140.829 497.277 142.036C495.168 143.235 493.302 143.634 491.601 142.901C489.929 143.573 487.304 143.809 485.798 143.918C484.28 144.031 484.469 145.391 484.35 145.454C480.676 147.421 478.192 147.315 474.08 148.308C472.125 148.779 468.304 149.985 466.232 150.655C464.573 151.195 463.506 151.13 461.998 151.703C461.795 151.78 462.148 152.318 462.09 152.356C460.719 153.341 460.934 152.186 460.72 151.779C460.691 151.724 460.653 151.683 460.603 151.662C459.075 151.034 458.186 150.72 456.062 151.662C455.583 151.877 454.534 154.292 453.618 154.614C452.428 155.029 452.727 154.186 451.481 154.633C451.374 154.671 451.492 155.129 450.694 155.269C446.978 155.932 442.864 156.392 438.974 157.016C438.442 157.1 439.236 157.739 438.466 157.871C434.853 158.489 430.84 158.929 427.259 158.895C426.384 158.884 426.882 158.314 426.681 158.176C425.449 157.341 423.906 158.828 423.638 158.872C417.169 159.986 412.163 158.899 405.63 159.521C405.274 159.559 402.519 161.022 401.296 159.751C401.206 159.666 400.015 158.369 398.942 159.231C398.873 159.285 399.62 159.959 398.302 159.87C396.957 159.781 394.87 160.177 393.07 159.396C392.517 159.151 391.202 157.829 389.469 158.789C389.372 158.858 386.636 161.067 385.769 159.431C385.627 159.162 385.871 157.485 383.81 158.258C383.413 158.407 384.103 158.817 383.065 159.003C381.48 159.291 379.444 158.735 377.489 159.38C377.154 159.495 375.674 160.559 374.566 159.623C374.392 159.476 374.77 158.934 374.162 158.835C371.354 158.365 368.341 158.549 365.436 157.959C364.429 157.753 365.015 156.88 363.973 156.563C363.229 156.336 361.925 156.074 360.803 156.061C360.369 156.057 359.964 156.094 359.638 156.189C358.497 156.523 359.608 158.061 357.926 158.052C350.604 158.012 343.472 156.574 336.241 155.836C335.165 155.726 335.998 156.319 334.428 156.195C328.581 155.737 318.473 155.335 313.526 153.785C309.553 152.543 314.695 152.326 311.648 151.693C310.178 151.389 308.408 152.925 308.041 152.946C304.471 153.168 302.082 152.203 298.904 152.148C298.247 152.137 298.826 152.876 298.268 152.859C296.36 152.807 294.369 152.321 292.561 152.215C291.745 152.169 291.848 152.703 291.102 152.596C289.313 152.344 287.741 151.983 286.042 151.34C285.887 151.281 287.018 150.73 285.694 150.587C283.547 150.358 280.923 149.64 278.409 149.918C277.661 150.002 277.528 151.189 276.019 150.228C275.702 150.027 276.251 148.636 274.31 149.708C273.985 149.886 270.754 151.279 269.33 150.074C268.957 149.756 268.042 148.499 267.145 148.606C267.023 148.624 267.446 149.305 266.71 149.304C264.115 149.288 261.425 148.987 258.762 148.96C258.051 148.954 259.047 149.706 257.988 149.676C255.079 149.596 251.479 149.121 248.668 148.679C247.632 148.514 248.398 148.026 248.327 147.96C247.188 146.889 246.357 148.138 245.945 148.181C243.384 148.429 241.52 147.657 239.183 147.632C238.538 147.623 238.942 148.284 238.81 148.33C237.443 148.767 238.519 147.725 237.691 147.534C235.373 146.995 232.753 146.837 230.374 146.732C229.499 146.694 230.423 147.494 229.639 147.452C225 147.215 220.197 146.783 215.707 146.054C214.862 145.916 215.437 145.397 215.269 145.257C214.111 144.276 212.235 145.364 211.816 145.451C209.902 145.847 209.208 145.302 207.548 145.28C199.435 145.175 189.485 144.221 181.87 143.604C176.853 143.196 172.393 142.774 168.018 142.429C163.7 142.091 159.465 141.826 154.778 141.734C154.173 141.722 154.758 142.486 154.236 142.485C147.532 142.438 140.953 141.977 134.221 142.071C133.674 142.078 134.45 142.797 133.571 142.831C131.739 142.906 129.452 142.833 127.626 142.585C126.726 142.465 127.942 141.875 127.037 141.767C124.925 141.514 122.709 141.443 120.532 141.54C119.614 141.583 120.992 142.314 119.801 142.315C111.685 142.334 103.732 142.481 95.5031 141.651C94.9401 141.594 94.4254 140.135 93.2435 140.433C93.1602 140.841 93.1721 141.319 93.1395 141.755C81.32 142.162 69.6192 141.989 57.7517 142.417C57.253 142.435 58.1465 143.174 57.1834 143.213C51.6058 143.443 46.1594 143.929 40.4076 143.476C39.8424 143.432 40.0632 142.05 38.3815 142.353C38.093 142.407 35.5713 142.735 34.9431 143.07C34.8587 143.12 35.3491 143.73 34.5499 143.796C32.7794 143.937 30.9717 144.05 29.2023 144.129C26.1692 144.264 23.0975 144.311 20.1212 144.264C19.3566 144.251 20.1189 143.519 19.5772 143.503C15.7044 143.403 11.5879 144.206 7.93541 143.911C5.52507 143.72 6.27699 142.47 4.89691 141.459C4.67984 141.313 3.29933 141.482 3.1354 140.845C2.57998 139.228 3.05249 137.259 2.40829 135.544C2.30876 135.373 1.72622 135.441 0.810482 135.686C0.595156 135.744 0.376828 135.815 0.245813 135.843C0.114874 135.871 0.0603298 135.857 0.028939 135.817C-0.0198398 135.741 -0.0993274 135.565 0.668272 135.036C0.712003 135.005 0.975217 134.884 1.2752 134.764C1.55545 134.647 1.87824 134.525 2.1534 134.412C2.72704 134.183 3.1984 133.965 3.40335 133.777C3.6564 133.523 3.05099 132.91 3.6102 132.556C4.16159 132.206 4.84016 132.708 5.71024 132.291C6.58942 131.872 6.12875 131.129 7.88796 130.885ZM478.996 144.389C477.5 144.133 477.951 146.491 479.226 145.537C479.288 145.488 479.073 144.401 478.996 144.389ZM632.341 83.5611C630.278 83.36 629.83 85.2804 631.314 85.4881C632.798 85.6942 632.969 83.621 632.341 83.5611ZM648.721 75.0021C646.482 75.1415 647.637 78.3489 649.361 76.7738C649.462 76.6831 648.852 74.9937 648.721 75.0021ZM10.8455 140.584C10.8392 140.552 9.71976 140.61 9.70972 140.643C9.19193 141.447 11.3733 141.334 10.8455 140.584ZM664.9 66.3737C664.116 66.2401 662.656 67.524 663.631 67.6913C664.415 67.8258 665.877 66.5397 664.9 66.3737ZM408.378 153.312C408.357 153.277 407.563 153.254 407.58 153.455C407.642 154.104 408.745 153.908 408.378 153.312ZM692.946 52.8743C688.748 54.7512 685.018 53.4344 689.67 51.5486C690.513 51.2069 688.295 53.2016 689.445 52.9289C691.549 52.4281 692.048 50.2357 694.401 50.1505C694.828 50.1369 693.188 52.7729 692.941 52.8813C692.943 52.879 692.944 52.8766 692.946 52.8743ZM477.458 141.837C477.422 141.814 476.366 142.079 476.35 142.116C475.985 143.007 478.117 142.473 477.458 141.837ZM362.459 150.029C362.433 149.995 361.866 149.924 361.253 149.862C360.577 149.793 359.842 149.737 359.796 149.767C359.043 150.379 360.158 150.81 361.18 150.86C362.096 150.906 362.939 150.669 362.459 150.029ZM546.412 116.416C547.245 115.268 548.53 114.663 549.765 115.205C548.648 115.594 547.54 116.023 546.412 116.416Z" fill="white"/>
<path d="M67.3772 99.9472C71.0686 99.4694 75.8625 99.4148 79.4837 99.5176C80.6524 99.5472 80.0741 100.004 80.8594 100.045C82.4303 100.123 83.8222 99.8397 85.3357 99.9553C85.8466 99.9952 85.2497 100.7 85.7867 100.726C85.9014 100.732 86.0164 100.736 86.1317 100.74C88.8949 100.845 91.5 100.557 94.317 100.556C108.751 100.55 122.887 100.31 137.478 100.351C142.287 100.363 148.147 100.899 153.092 100.601C153.677 100.565 153.325 99.9781 153.435 99.9288C155.155 99.1744 154.585 100.368 155.712 100.521C160.204 101.123 165.171 101.181 169.482 100.977C171.316 100.89 169.481 99.7073 171.331 100.377C171.459 100.422 170.987 101.045 171.492 101.115C172.649 101.273 174.781 101.179 175.675 101.238C177.389 101.355 177.661 101.352 179.268 101.379C181.477 101.422 184.074 101.773 186.45 101.674C186.958 101.651 186.298 100.997 187.11 100.902C187.916 100.808 190.033 100.904 190.752 101.071C191.47 101.238 191.152 101.736 191.277 101.854C192.318 102.852 194.784 101.558 195.107 101.533C200.902 101.105 205.839 102.028 211.251 102.221C212.16 102.253 213.087 102.275 214.023 102.291C217.281 102.348 220.646 102.341 223.69 102.506C228.352 102.762 232.275 103.305 236.814 103.485C237.291 103.504 236.773 102.721 237.355 102.744C243.56 102.986 249.702 103.425 255.839 104.314C256.453 104.404 255.616 105.016 256.228 105.145C259.978 105.921 265.867 107.614 268.301 104.885C270.853 105.167 273.954 105.493 276.203 106.231C277.654 106.706 276.17 107.327 278.004 107.145C278.418 107.105 277.93 106.437 278.547 106.425C281.146 106.373 283.95 106.776 286.529 106.633C287.053 106.602 286.951 106.027 287.106 105.936C288.402 105.2 290.362 106.71 290.805 106.842C294.17 107.827 296.687 107.72 299.867 107.973C300.604 108.032 299.788 107.209 300.5 107.239C304.198 107.403 308.01 107.755 311.592 108.365C312.387 108.502 311.601 109.093 311.979 109.191C313.64 109.619 314.119 108.427 315.719 108.814C316.057 108.894 315.822 109.433 315.88 109.499C316.783 110.527 317.732 109.24 317.984 109.229C321.202 109.065 323.101 110.629 326.199 110.667C326.568 110.67 325.794 109.906 326.829 109.957C333.716 110.292 340.967 111.047 347.723 112.126C348.778 112.294 347.98 112.761 348.042 112.831C349.052 113.927 349.855 112.624 350.202 112.599C352.937 112.437 355.41 113.769 357.368 112.29C368.35 113.654 379.354 113.648 390.178 115.522C390.69 115.609 391.198 115.701 391.702 115.796C391.847 115.821 391.544 116.475 391.834 116.523C395.277 117.108 394.699 116.028 397.071 114.888C397.661 114.602 399.341 116.235 399.5 116.356C400.052 116.802 399.402 117.765 399.59 117.856C401.152 118.572 401.037 115.265 403.179 115.372C403.246 115.381 402.933 115.973 403.111 116.042C403.663 116.26 404.227 116.046 404.758 116.281C405.961 116.822 406.35 118.446 408.295 117.598C408.541 117.487 408.252 115.604 410.141 115.771C410.92 115.842 414.246 115.935 415.194 116.085C416.124 116.236 415.463 116.818 415.529 116.846C418.011 117.721 417.073 118.022 418.307 119.237C419.545 120.446 419.262 117.633 419.78 117.333C420.314 117.035 422.163 117.731 422.605 117.967C423.051 118.204 422.483 118.577 422.881 118.713C425.586 119.602 424.093 117.34 424.986 116.908C427.071 115.879 428.668 117.967 430.603 118.166C431.12 118.22 430.698 117.747 431.155 117.701C432.978 117.523 434.066 118.161 436.147 117.525C436.482 117.423 438.125 116.134 439.229 117.016C439.385 117.143 438.969 117.675 439.743 117.766C440.918 117.902 443.007 117.928 444.247 117.688C445.155 117.512 444.058 116.716 445.227 116.917C445.75 117.006 444.82 117.56 445.802 117.685C446.774 117.812 449.234 117.622 450.163 117.528C451.098 117.436 450.533 116.831 450.605 116.781C451.043 116.497 452.789 116.03 452.948 116.014C460.84 115.205 468.293 115.147 475.878 113.313C476.473 113.169 475.943 112.576 476.033 112.548C478.036 111.863 476.764 113.965 478.317 114.276C477.904 113.136 478.513 113.042 479.611 112.747C479.78 112.702 479.961 112.651 480.152 112.591C480.831 112.376 480.344 111.928 480.397 111.861C481.261 110.85 482.2 111.728 482.426 111.9C483.27 112.532 483.82 111.457 484.4 111.873C484.977 112.286 484.074 113.279 485.452 112.97C485.733 112.401 484.434 111.357 485.436 110.924C489.226 109.297 496.806 108.544 500.003 107.842C503.18 107.156 504.179 106.8 506.06 106.496C509.461 105.94 507.997 105.329 509.938 104.356C511.889 103.376 511.498 105.931 511.929 106.342C512.352 106.755 512.532 106.164 512.968 106.335C513.403 106.506 512.71 107.053 513.59 106.923C514.479 106.79 516.548 105.28 516.711 104.681C517.046 103.417 515.687 102.57 518.03 102.345C518.166 102.332 517.916 103.049 518.427 102.971C522.473 102.33 526.543 101.177 530.562 100.416C531.115 100.312 530.834 101.119 531.159 101.066C534.542 100.51 533.035 99.7435 534.439 97.9609C534.545 99.7324 535.831 100.448 538.303 99.6939C539.788 99.2407 539.304 98.6012 540.103 97.7957C540.341 97.5537 541.545 97.7185 541.629 97.3205C541.903 96.0187 540.529 95.0939 543.21 94.787C543.329 94.7751 543.167 95.492 543.563 95.4068C546.114 94.8587 546.048 93.6074 548.663 92.6065C550.729 91.8168 554.659 91.3014 557.082 90.6157C557.651 92.4717 559.748 91.2997 560.234 89.7219C561.791 89.2533 563.434 88.6129 564.977 88.2778C565.508 88.1618 565.355 88.8084 565.439 88.8436C566.738 89.4037 566.985 87.9408 567.301 87.7774C569.805 86.526 572.213 86.1353 574.547 85.182C575.402 84.8325 576.247 84.406 577.083 83.8311C577.192 83.7551 576.939 82.4148 578.181 83.0143C578.263 83.0569 577.344 84.0387 578.965 83.507C580.588 82.9746 583.866 82.5547 585.88 81.1498C586.367 80.8116 587.353 79.2833 588.743 79.6807C588.929 79.7359 588.904 80.1573 589.188 80.2815C590.105 80.6733 590.002 79.2586 591.204 80.0467C592.41 80.8333 594.37 81.0292 596.341 79.4362C596.406 79.387 596.554 78.1779 597.264 77.9286C598.397 77.5319 600.079 77.1362 601.247 76.6849C601.808 76.4679 601.21 75.9778 601.303 75.9292C604.948 74.1404 607.843 73.6693 611.977 72.3461C612.734 72.1053 614.531 70.4258 616.223 70.5409C618.082 70.6637 617.672 74.3606 620.997 72.2144C622.345 71.348 622.651 66.7401 626.065 67.7159C630.938 65.2098 636.033 64.365 640.822 61.6117C641.037 61.4886 641.322 60.1174 641.863 59.916C642.669 59.6191 643.31 59.9477 643.892 59.7511C646.333 58.9422 648.338 57.6267 650.658 56.7626C651.539 56.433 651.448 57.0781 652.498 56.6851C653.546 56.292 653.958 55.3237 655.501 55.0816C656.666 54.9014 658.298 55.873 659.776 55.4599C659.265 54.0533 660.244 53.6868 661.814 52.618C662.115 52.4118 661.564 52.0752 661.696 51.9528C662.231 51.4441 662.984 51.6017 663.478 51.084C663.598 50.959 663.411 50.4836 663.499 50.3547C664.233 49.241 666.352 49.6134 666.718 49.6796C668.115 49.9275 668.378 49.1013 669.342 49.029C670.304 48.9572 669.177 49.8241 670.237 49.5848C672.435 49.088 675.043 47.9257 677.134 47.0897C677.969 46.7529 677.141 46.3563 677.255 46.2934C678.911 45.4245 680.924 45.3787 681.361 43.7299C683.892 46.4839 682.269 42.9872 684.994 42.6233C685.209 42.5959 686.089 44.0291 685.439 44.5612C684.788 45.0931 683.464 45.0776 682.576 45.8548C682.366 46.0381 681.559 48.0534 681.404 48.2192C680.191 49.5159 679.031 47.3101 678.901 47.2166C677.442 46.2269 676.371 48.4806 675.966 48.7728C674.103 50.1132 672.224 50.5086 670.641 51.5685C669.606 52.2582 670.113 53.8068 669.209 54.1241C666.198 55.1818 664.314 53.5036 662.281 56.4594C661.844 57.091 663.111 58.4924 660.446 58.0726C660.278 58.046 658.21 57.5102 657.602 58.6312C657.525 58.7724 657.724 59.2502 657.589 59.3524C656.677 60.0281 655.843 59.9226 654.81 60.5561C653.78 61.1885 652.553 62.0052 651.223 62.3553C650.422 62.5671 649.08 62.0702 648.626 61.9994C647.339 61.7869 646.652 63.2676 645.706 62.7616C644.751 62.2545 645.54 60.5797 643.649 60.7665C644.09 62.039 644.463 63.3772 644.869 64.6721C641.149 66.1222 637.334 67.1857 633.634 68.7258C633.175 68.9182 633.916 69.4013 633.431 69.6249C631.387 70.5635 629.366 70.812 627.277 71.8593C625.653 72.676 624.099 74.1116 622.406 74.9838C620.771 73.9727 618.349 75.4826 616.404 76.0883C615.723 76.3016 615.617 75.9017 615.095 75.9606C613.131 76.1915 614.46 77.1343 614.048 77.5237C612.284 79.1866 610.984 76.3893 608.543 77.4102C608.416 77.4625 607.394 79.6122 607.21 79.7919C606.043 80.9519 606.773 79.3477 605.852 79.5704C604.171 79.9752 602.908 80.0369 601.199 81.1985C600.698 81.5405 599.736 82.9972 598.391 82.6581C598.214 82.614 598.1 82.0772 597.976 82.0899C595.741 82.3643 596.283 83.98 595.314 84.9584C594.345 85.9363 592.114 85.5093 591.631 85.3265C590.363 84.8605 592.239 84.7016 592.262 84.601C592.519 83.4129 591.259 84.0691 590.222 84.3594C589.497 82.8463 588.118 83.4612 589.144 84.6686C589.259 84.7997 589.993 84.3629 590.222 84.3594C589.901 86.2261 588.418 86.9963 586.174 86.1847C585.123 85.8035 585.594 84.7424 583.262 85.9159C582.204 86.4465 583.02 87.3745 582.147 88.0238C580.595 89.1765 578.259 89.454 576.247 89.9752C575.669 90.1253 575.118 90.2953 574.618 90.5117C573.798 90.8656 574.826 91.1713 574.273 91.4336C572.814 92.1285 571.298 92.1582 569.852 92.9163C569.721 92.9859 570.276 93.4913 569.803 93.6641C566.205 94.9926 562.913 95.6695 559.122 96.9262C557.284 97.5369 554.122 98.9644 552.195 99.5142C548.864 100.472 544.497 100.858 541.742 101.962C539.942 102.681 540.547 103.182 539.887 103.857C538.607 105.167 535.446 104.5 535.01 104.379C534.996 104.376 536.546 103.741 535.596 103.677C534.896 103.152 535.027 104.371 535.01 104.379C534.729 104.303 531.498 105.12 530.906 105.426C530.583 105.594 530.953 106.136 530.781 106.212C526.679 108.015 522.428 109.406 517.995 110.335C517.914 110.344 517.843 109.639 517.657 109.669C515.059 110.066 513.673 111.328 511.711 112.379C509.765 113.425 508.05 113.697 506.515 112.855C504.975 113.41 502.575 113.471 501.202 113.481C499.814 113.494 499.961 114.858 499.852 114.912C496.466 116.628 494.203 116.366 490.437 117.099C488.649 117.447 485.144 118.416 483.244 118.962C482.361 119.218 481.662 119.282 480.965 119.386C480.454 119.462 479.945 119.558 479.371 119.76C479.186 119.825 479.497 120.38 479.443 120.415C478.01 121.438 478.475 119.836 478.099 119.64C476.725 118.929 475.91 118.568 473.965 119.386C473.524 119.573 472.521 121.921 471.682 122.192C470.583 122.542 470.879 121.717 469.735 122.096C469.637 122.128 469.738 122.59 469.005 122.688C465.608 123.152 461.865 123.404 458.324 123.856C457.839 123.915 458.547 124.588 457.845 124.686C454.554 125.146 450.923 125.433 447.684 125.29C446.892 125.252 447.352 124.698 447.172 124.554C446.068 123.682 444.653 125.126 444.41 125.163C438.54 126.109 434.045 124.947 428.121 125.519C427.807 125.554 425.287 127 424.204 125.726C424.135 125.642 423.029 124.34 422.071 125.2C422.009 125.254 422.676 125.929 421.493 125.839C420.293 125.748 418.39 126.144 416.758 125.368C416.229 125.123 415.097 123.806 413.501 124.772C413.378 124.84 410.959 127.064 410.154 125.434C410.034 125.166 410.209 123.486 408.375 124.274C408.02 124.426 408.637 124.83 407.708 125.025C406.262 125.324 404.441 124.786 402.651 125.449C402.328 125.566 400.999 126.646 400.013 125.723C399.859 125.578 400.196 125.032 399.654 124.94C397.058 124.498 394.316 124.718 391.746 124.171C390.822 123.978 391.356 123.098 390.392 122.794C390.206 122.735 389.983 122.675 389.736 122.618C388.736 122.38 387.317 122.201 386.469 122.483C385.422 122.833 386.436 124.354 384.907 124.371C378.281 124.443 371.812 123.129 365.251 122.523C364.283 122.433 365.051 123.011 363.615 122.915C358.315 122.564 349.149 122.357 344.638 120.903C341.039 119.74 345.707 119.423 342.93 118.849C341.589 118.574 339.978 120.143 339.655 120.171C336.433 120.465 334.253 119.547 331.367 119.554C330.769 119.556 331.3 120.283 330.791 120.277C329.041 120.261 327.271 119.819 325.612 119.747C324.869 119.717 324.966 120.248 324.286 120.155C322.658 119.94 321.249 119.611 319.693 119.001C319.552 118.945 320.579 118.372 319.373 118.256C317.412 118.068 315.052 117.404 312.758 117.73C312.078 117.829 311.965 119.018 310.599 118.087C310.312 117.893 310.804 116.492 309.044 117.601C308.749 117.785 305.817 119.24 304.53 118.064C304.189 117.754 303.352 116.515 302.537 116.639C302.426 116.66 302.814 117.332 302.145 117.345C299.785 117.379 297.354 117.131 294.931 117.155C294.286 117.163 295.191 117.894 294.233 117.885C291.599 117.861 288.325 117.455 285.775 117.065C284.833 116.919 285.527 116.418 285.462 116.353C284.423 115.303 283.674 116.567 283.301 116.618C280.982 116.914 279.284 116.176 277.164 116.193C276.579 116.196 276.948 116.85 276.829 116.898C275.591 117.359 276.562 116.299 275.811 116.123C273.705 115.626 271.328 115.515 269.168 115.451C268.375 115.429 269.216 116.213 268.505 116.184C264.298 116.03 259.937 115.679 255.86 115.025C255.093 114.901 255.613 114.373 255.46 114.236C254.408 113.275 252.708 114.393 252.326 114.486C250.592 114.912 249.962 114.379 248.458 114.383C241.096 114.407 232.07 113.597 225.16 113.077C221 112.764 217.275 112.428 213.645 112.146C209.36 111.814 205.22 111.553 200.573 111.495C200.026 111.487 200.556 112.246 200.085 112.25C194.001 112.257 188.026 111.838 181.934 111.962C181.43 111.971 182.145 112.687 181.337 112.725C179.671 112.809 177.627 112.745 175.943 112.502C175.13 112.386 176.229 111.792 175.41 111.687C173.508 111.441 171.473 111.375 169.512 111.477C168.682 111.522 169.93 112.25 168.852 112.253C161.502 112.287 154.261 112.433 146.812 111.583C146.3 111.525 145.846 110.064 144.761 110.359C144.684 110.767 144.695 111.246 144.664 111.681C133.957 112.054 123.321 111.811 112.568 112.129C112.117 112.143 112.923 112.89 112.052 112.92C107 113.098 102.039 113.525 96.8338 113.002C96.3285 112.951 96.5103 111.574 94.9954 111.855C94.7398 111.905 92.4397 112.202 91.8766 112.528C91.8002 112.577 92.2418 113.193 91.5193 113.248C89.9513 113.364 88.3685 113.45 86.8118 113.504C84.013 113.603 81.1701 113.609 78.4244 113.517C77.7335 113.492 78.4245 112.772 77.935 112.749C74.4199 112.591 70.6811 113.331 67.3659 112.966C65.1789 112.725 65.8649 111.492 64.6164 110.449C64.4209 110.299 63.1587 110.426 63.0145 109.781C62.527 108.146 62.9679 106.203 62.4004 104.467C62.3096 104.291 61.7937 104.344 60.9682 104.518C60.7714 104.56 60.5721 104.611 60.4489 104.629C60.3271 104.646 60.2767 104.627 60.2487 104.585C60.2026 104.505 60.1439 104.329 60.8482 103.865C60.8855 103.838 61.125 103.737 61.3921 103.635C61.6448 103.536 61.9299 103.43 62.179 103.329C62.6944 103.123 63.1203 102.919 63.3063 102.737C63.5358 102.491 62.9933 101.862 63.4991 101.524C63.998 101.189 64.6092 101.707 65.3988 101.309C66.1946 100.909 65.7806 100.158 67.3772 99.9472ZM494.989 113.513C493.629 113.163 493.998 115.534 495.178 114.667C495.235 114.622 495.059 113.529 494.989 113.513ZM636.684 65.4985C634.792 65.1198 634.344 66.9696 635.704 67.3039C637.064 67.6367 637.261 65.6122 636.684 65.4985ZM651.922 58.5161C649.86 58.4557 650.861 61.7113 652.477 60.3146C652.572 60.2344 652.043 58.5193 651.922 58.5161ZM70.0222 109.694C70.0184 109.662 68.9991 109.701 68.9916 109.733C68.5185 110.527 70.4988 110.453 70.0222 109.694ZM666.981 51.4591C666.261 51.2583 664.894 52.3913 665.787 52.642C666.506 52.8436 667.877 51.7087 666.981 51.4591ZM430.658 119.334C430.639 119.299 429.922 119.268 429.936 119.469C429.986 120.118 430.984 119.933 430.658 119.334ZM693.061 40.6732C689.16 42.1459 685.751 40.5205 690.071 39.0796C690.853 38.8185 688.773 40.5824 689.837 40.4164C691.784 40.1107 692.285 37.9999 694.453 38.1248C694.846 38.1493 693.286 40.595 693.056 40.6796C693.058 40.6775 693.06 40.6753 693.061 40.6732ZM493.631 110.88C493.599 110.856 492.631 111.052 492.616 111.088C492.268 111.95 494.221 111.554 493.631 110.88ZM389.014 116.284C388.969 116.214 386.679 116.005 386.594 116.061C385.315 117.224 389.954 117.652 389.014 116.284ZM557.135 90.6522C557.915 89.5856 559.103 89.0906 560.229 89.7225C559.193 90.0194 558.172 90.355 557.135 90.6522Z" fill="#A85F5F"/>
</svg>
