<?xml version="1.0" encoding="UTF-8"?>
<svg version="1.1" xmlns="http://www.w3.org/2000/svg" width="441" height="137">
<path d="M0 0 C2.875 2 2.875 2 5 4 C8.55379856 2.61839963 8.55379856 2.61839963 11.9375 0.875 C14.89144009 -0.37818671 16.81368651 -0.44608389 20 0 C22.82594342 1.64573503 25.43068155 3.55326134 26.6640625 6.6875 C27.15111763 10.04025161 27.1040137 13.37142369 27.0625 16.75 C27.05798828 17.44738281 27.05347656 18.14476563 27.04882812 18.86328125 C27.0371002 20.57555803 27.01916653 22.28779033 27 24 C27.66 24 28.32 24 29 24 C29 26.97 29 29.94 29 33 C30.32 32.67 31.64 32.34 33 32 C33 25.07 33 18.14 33 11 C32.01 11 31.02 11 30 11 C29.97310784 9.52093108 29.95365379 8.04172517 29.9375 6.5625 C29.92589844 5.73878906 29.91429687 4.91507813 29.90234375 4.06640625 C30 2 30 2 31 1 C33.69654854 0.92680379 36.36691458 0.90757463 39.0625 0.9375 C39.82111328 0.94201172 40.57972656 0.94652344 41.36132812 0.95117188 C43.24091871 0.9629932 45.12046899 0.98092922 47 1 C47.33 1.66 47.66 2.32 48 3 C48.70125 2.505 49.4025 2.01 50.125 1.5 C53.58135377 -0.30331501 55.15471598 -0.69215112 59 0 C63.21336169 2.12914013 65.50029665 4.61701819 67.109375 9.0703125 C67.8529982 12.03778998 68.48767688 14.98461247 69 18 C70.5159375 17.319375 70.5159375 17.319375 72.0625 16.625 C75.66601845 15.08691286 79.1830006 13.89811751 83 13 C83.66 13.33 84.32 13.66 85 14 C72.54150198 22 72.54150198 22 67 22 C66.67 23.98 66.34 25.96 66 28 C71.49549644 26.07009105 71.49549644 26.07009105 76.625 23.375 C79.41251225 21.76117712 81.82276973 21.36944538 85 21 C79.73192259 26.94782934 73.28357535 30.07500592 66.03125 33.13671875 C65.3609375 33.42160156 64.690625 33.70648438 64 34 C62.49953125 34.62841797 62.49953125 34.62841797 60.96875 35.26953125 C59.8859375 35.75808594 58.803125 36.24664062 57.6875 36.75 C56.66011719 37.19859375 55.63273437 37.6471875 54.57421875 38.109375 C51.16830551 40.20640263 51.16830551 40.20640263 50 47 C44.39 47 38.78 47 33 47 C33 47.66 33 48.32 33 49 C30.03 49.33 27.06 49.66 24 50 C24 50.66 24 51.32 24 52 C16.25471235 55.74398456 8.56232592 58.96595653 0.4296875 61.7734375 C-3.90956218 63.32528761 -8.12181167 65.12639763 -12.359375 66.93359375 C-15.53168773 68.21472005 -18.6984125 69.11957667 -22 70 C-22.33 70.33 -22.66 70.66 -23 71 C-23.99 71.12375 -24.98 71.2475 -26 71.375 C-29.75747261 71.85810362 -33.10399728 72.99145816 -36.66796875 74.2421875 C-39.71557507 75.23253193 -42.79610975 75.87614664 -45.9296875 76.53125 C-48.69126355 77.1565125 -51.32858026 78.06810939 -54 79 C-57.31083391 79.99064675 -60.42585123 80.19410554 -63.875 80.31640625 C-65.02613281 80.35830078 -66.17726563 80.40019531 -67.36328125 80.44335938 C-68.56339844 80.48267578 -69.76351562 80.52199219 -71 80.5625 C-72.75376953 80.62727539 -72.75376953 80.62727539 -74.54296875 80.69335938 C-96.00424167 81.44367025 -96.00424167 81.44367025 -101.5 79.9375 C-105.08602379 78.97695791 -105.6714029 79.14113256 -109 80 C-111.36254883 79.94580078 -111.36254883 79.94580078 -113.95703125 79.6953125 C-114.90513672 79.60636719 -115.85324219 79.51742187 -116.83007812 79.42578125 C-117.81427734 79.32652344 -118.79847656 79.22726563 -119.8125 79.125 C-121.27139648 78.98771484 -121.27139648 78.98771484 -122.75976562 78.84765625 C-127.86444503 78.35688816 -132.9232057 77.72607955 -138 77 C-141.4132601 76.62814712 -144.83078657 76.31172316 -148.25 76 C-149.10851562 75.9175 -149.96703125 75.835 -150.8515625 75.75 C-156.95115237 75.19072528 -163.04753612 74.83084748 -169.1640625 74.53125 C-175.27128393 74.22992639 -181.35615394 73.83995422 -187.4453125 73.28125 C-223.14788694 70.0318442 -258.89871286 69.38897975 -294.71044922 70.88134766 C-299.76537401 71.0636761 -304.81710822 71.11808086 -309.875 71.125 C-310.69073486 71.12943115 -311.50646973 71.1338623 -312.34692383 71.13842773 C-317.75063216 71.12468392 -317.75063216 71.12468392 -320 70 C-320 68.68 -320 67.36 -320 66 C-320.66 65.67 -321.32 65.34 -322 65 C-321.34 65 -320.68 65 -320 65 C-320 64.34 -320 63.68 -320 63 C-316.79978904 61.93326301 -314.49899263 61.86677414 -311.13476562 61.85473633 C-309.91637497 61.84844711 -308.69798431 61.8421579 -307.44267273 61.8356781 C-306.09719879 61.83416729 -304.75172447 61.83296104 -303.40625 61.83203125 C-302.00205936 61.82804167 -300.59786929 61.8238514 -299.19367981 61.81947327 C-294.62910852 61.8080127 -290.06458116 61.80982129 -285.5 61.8125 C-283.93435669 61.812444 -282.36871338 61.81238296 -280.80307007 61.81231689 C-260.29188216 61.81875152 -239.80984634 62.05644784 -219.3125 62.875 C-218.2915625 62.91420563 -217.270625 62.95341125 -216.21875 62.99380493 C-205.78065641 63.40695823 -195.41757509 63.99489559 -185.05378723 65.34591675 C-180.66949658 65.90134428 -176.40492142 66.07482886 -171.98486328 66.0002594 C-169.20866537 65.99989658 -166.55317484 66.38524651 -163.8125 66.8125 C-144.87502517 69.48535681 -125.76803896 71.06006343 -106.69238281 72.35351562 C-101.41734514 72.71573597 -96.22765306 73.17632912 -91 74 C-89.25171165 74.22224004 -87.50177872 74.43219417 -85.75 74.625 C-84.91984375 74.72039062 -84.0896875 74.81578125 -83.234375 74.9140625 C-80.82689004 75.13810501 -80.82689004 75.13810501 -78 74 C-75.85349704 74.03212453 -73.70748267 74.10057299 -71.5625 74.1875 C-57.62256239 74.42674575 -43.92260755 70.4854602 -30.6472168 66.57543945 C-27.66025714 65.69858121 -25.13211346 65 -22 65 C-21.34 64.34 -20.68 63.68 -20 63 C-16.57331715 62.06378782 -13.14456931 61.26707843 -9.67773438 60.5 C-7.77108452 60.0566736 -5.88329223 59.5339123 -4 59 C-3.67 58.34 -3.34 57.68 -3 57 C-1.17824739 56.17437813 0.68551543 55.44091457 2.5625 54.75 C3.72523438 54.316875 4.88796875 53.88375 6.0859375 53.4375 C6.71467773 53.20675781 7.34341797 52.97601563 7.99121094 52.73828125 C10.84436967 51.6896726 13.69059888 50.62281521 16.53686523 49.55566406 C17.95492539 49.02443481 19.37369449 48.49509366 20.79321289 47.96777344 C24.45131222 46.6126133 24.45131222 46.6126133 28 45 C28.66 45.33 29.32 45.66 30 46 C30 43.03 30 40.06 30 37 C29.43796875 37.29132813 28.8759375 37.58265625 28.296875 37.8828125 C20.40974593 41.72960244 12.27965817 44.14663298 3.8671875 46.5703125 C-1.81518562 48.21228959 -7.40911811 50.08895787 -12.98828125 52.05078125 C-17.00979201 53.3182613 -21.075368 54.2636877 -25.1875 55.1875 C-25.99380859 55.37763672 -26.80011719 55.56777344 -27.63085938 55.76367188 C-28.40623047 55.93833984 -29.18160156 56.11300781 -29.98046875 56.29296875 C-30.68067139 56.4530542 -31.38087402 56.61313965 -32.10229492 56.77807617 C-34 57 -34 57 -37 56 C-37 56.66 -37 57.32 -37 58 C-45.37221394 60.30421918 -53.71705411 60.27480537 -62.32348633 60.20581055 C-64.69298002 60.18745755 -67.0620829 60.18530216 -69.43164062 60.18554688 C-70.95833667 60.18063325 -72.48503011 60.17480561 -74.01171875 60.16796875 C-74.70980148 60.16685593 -75.40788422 60.1657431 -76.12712097 60.16459656 C-80.49901223 60.12283708 -84.68420137 59.67614179 -89 59 C-90.52030873 58.96005757 -92.04228926 58.95648771 -93.5625 59 C-108.48522017 59.16045936 -108.48522017 59.16045936 -115.08203125 57.46484375 C-118.36879408 56.66825561 -121.68889541 56.98576651 -125.05078125 57.0625 C-128 57 -128 57 -130.81396484 56.55688477 C-136.81337709 55.6731372 -142.87845356 55.41056618 -148.92578125 55.02734375 C-150.30280085 54.93886864 -151.67982009 54.85038789 -153.05683899 54.76190186 C-157.47497177 54.48017197 -161.89363397 54.20745999 -166.3125 53.9375 C-167.06345695 53.89152805 -167.81441391 53.84555611 -168.58812714 53.79819107 C-190.02440427 52.49090863 -211.36107431 51.33433802 -232.84765625 51.9395752 C-235.2707407 52.00760076 -237.69393783 52.06997954 -240.1171875 52.13183594 C-241.01732574 52.15499374 -241.91746399 52.17815155 -242.84487915 52.20201111 C-244.69527667 52.24955121 -246.54567951 52.29688465 -248.39608765 52.3440094 C-252.86829585 52.45926792 -257.33977246 52.58352634 -261.81103516 52.73120117 C-262.63015381 52.75610626 -263.44927246 52.78101135 -264.29321289 52.80667114 C-265.81648545 52.85308225 -267.33962837 52.90410399 -268.86254883 52.96090698 C-273.68419167 53.10075933 -278.22509454 52.69663358 -283 52 C-283.66 50.02 -284.32 48.04 -285 46 C-281.62908687 43.75272458 -280.50623631 43.74759874 -276.56201172 43.74121094 C-275.43737518 43.73499222 -274.31273865 43.7287735 -273.15402222 43.72236633 C-271.92499176 43.72632919 -270.6959613 43.73029205 -269.4296875 43.734375 C-268.14482452 43.73169113 -266.85996155 43.72900726 -265.53616333 43.72624207 C-262.04074419 43.72071965 -258.54550408 43.7296233 -255.05010986 43.74265671 C-252.87910594 43.74998614 -250.70812362 43.75368066 -248.53710938 43.75637817 C-229.01018444 43.78559577 -209.51162185 44.10686379 -190 44.9375 C-188.9753363 44.98088501 -187.95067261 45.02427002 -186.8949585 45.06896973 C-184.01296222 45.19450493 -181.13144082 45.32718487 -178.25 45.46484375 C-177.42259308 45.50345016 -176.59518616 45.54205658 -175.7427063 45.58183289 C-170.78483589 45.8369857 -165.92266033 46.36109461 -161 47 C-159.53794593 47.09641557 -158.07408565 47.17194056 -156.609375 47.2109375 C-155.83279541 47.23728271 -155.05621582 47.26362793 -154.25610352 47.29077148 C-153.01558228 47.3324646 -153.01558228 47.3324646 -151.75 47.375 C-143.30516554 47.71448703 -134.9582761 48.47946233 -126.5625 49.4375 C-113.93558227 50.87557778 -101.33429605 51.7968848 -88.65234375 52.5703125 C-84.50090741 52.8239439 -80.36620975 53.1373444 -76.2265625 53.5390625 C-59.55784209 55.107131 -44.03894369 53.3881395 -27.7578125 49.875 C-26.890354 49.6884082 -26.02289551 49.50181641 -25.12915039 49.30957031 C-23.45166127 48.9438512 -21.77621612 48.56859191 -20.10327148 48.18261719 C-14.32419653 46.89193449 -14.32419653 46.89193449 -11 48 C-11 47.34 -11 46.68 -11 46 C-9.60432165 45.68680856 -8.20844918 45.37448212 -6.8125 45.0625 C-5.58466797 44.78599609 -5.58466797 44.78599609 -4.33203125 44.50390625 C-2.56425805 44.12192511 -0.78396416 43.79732736 1 43.5 C1.66 43.335 2.32 43.17 3 43 C3.33 42.34 3.66 41.68 4 41 C5.85766602 40.22216797 5.85766602 40.22216797 8.25390625 39.4921875 C9.53491211 39.09580078 9.53491211 39.09580078 10.84179688 38.69140625 C11.73962891 38.42199219 12.63746094 38.15257812 13.5625 37.875 C14.46419922 37.59785156 15.36589844 37.32070312 16.29492188 37.03515625 C18.52794478 36.34988996 20.76291196 35.67185325 23 35 C22.14535156 34.93941406 21.29070312 34.87882812 20.41015625 34.81640625 C19.30542969 34.73261719 18.20070313 34.64882812 17.0625 34.5625 C15.96035156 34.48128906 14.85820312 34.40007812 13.72265625 34.31640625 C11 34 11 34 10 33 C9.85884839 30.32941149 9.95752893 27.67567762 10 25 C10.99 24.67 11.98 24.34 13 24 C12.67 20.37 12.34 16.74 12 13 C10.02 12.505 10.02 12.505 8 12 C7.67 15.96 7.34 19.92 7 24 C7.66 24 8.32 24 9 24 C9 27.3 9 30.6 9 34 C6.02077407 34.02683987 3.04178705 34.04676037 0.0625 34.0625 C-1.21270508 34.07506836 -1.21270508 34.07506836 -2.51367188 34.08789062 C-3.32255859 34.09111328 -4.13144531 34.09433594 -4.96484375 34.09765625 C-5.7137085 34.10289307 -6.46257324 34.10812988 -7.23413086 34.11352539 C-9 34 -9 34 -10 33 C-10.14115161 30.32941149 -10.04247107 27.67567762 -10 25 C-9.01 24.67 -8.02 24.34 -7 24 C-7.33 20.37 -7.66 16.74 -8 13 C-9.98 12.505 -9.98 12.505 -12 12 C-12.33 15.96 -12.66 19.92 -13 24 C-12.34 24 -11.68 24 -11 24 C-11 27.3 -11 30.6 -11 34 C-13.97922593 34.02683987 -16.95821295 34.04676037 -19.9375 34.0625 C-21.21270508 34.07506836 -21.21270508 34.07506836 -22.51367188 34.08789062 C-23.32255859 34.09111328 -24.13144531 34.09433594 -24.96484375 34.09765625 C-25.7137085 34.10289307 -26.46257324 34.10812988 -27.23413086 34.11352539 C-29 34 -29 34 -30 33 C-30.07179964 31.48071962 -30.08392007 29.95832518 -30.0625 28.4375 C-30.05347656 27.61121094 -30.04445313 26.78492187 -30.03515625 25.93359375 C-30.01775391 24.97646484 -30.01775391 24.97646484 -30 24 C-29.01 24 -28.02 24 -27 24 C-27 19.71 -27 15.42 -27 11 C-27.99 11 -28.98 11 -30 11 C-30.02689216 9.52093108 -30.04634621 8.04172517 -30.0625 6.5625 C-30.07410156 5.73878906 -30.08570313 4.91507813 -30.09765625 4.06640625 C-30 2 -30 2 -29 1 C-26.30345146 0.92680379 -23.63308542 0.90757463 -20.9375 0.9375 C-20.17888672 0.94201172 -19.42027344 0.94652344 -18.63867188 0.95117188 C-16.75908129 0.9629932 -14.87953101 0.98092922 -13 1 C-12.67 1.66 -12.34 2.32 -12 3 C-11.13375 2.505 -10.2675 2.01 -9.375 1.5 C-5.77899092 -0.09822626 -3.87117359 -0.57655777 0 0 Z M48 11 C46.71387324 12.05978933 46.71387324 12.05978933 46.90234375 14.50390625 C46.91394531 15.51324219 46.92554688 16.52257812 46.9375 17.5625 C46.94652344 18.57441406 46.95554687 19.58632812 46.96484375 20.62890625 C46.97644531 21.41136719 46.98804688 22.19382812 47 23 C48.89179203 23.6814823 48.89179203 23.6814823 51 24 C53.18939909 22.21892751 53.18939909 22.21892751 53.265625 19.90625 C53.26046875 19.1121875 53.2553125 18.318125 53.25 17.5 C53.25515625 16.7059375 53.2603125 15.911875 53.265625 15.09375 C53.18939909 12.78107249 53.18939909 12.78107249 51 11 C50.01 11 49.02 11 48 11 Z M47 31 C46.67 32.65 46.34 34.3 46 36 C48.60582371 36.93065133 49.64198224 37.14917407 52.25 36.0625 C52.8275 35.711875 53.405 35.36125 54 35 C51.68143083 33.45428722 49.49361571 32.20381448 47 31 Z " fill="#9B5A5A" transform="translate(324,52)"/>
<path d="M0 0 C-5.65931 4.92907645 -12.09074033 8.23303071 -18.96875 11.13671875 C-19.6390625 11.42160156 -20.309375 11.70648438 -21 12 C-22.50046875 12.62841797 -22.50046875 12.62841797 -24.03125 13.26953125 C-25.1140625 13.75808594 -26.196875 14.24664062 -27.3125 14.75 C-28.33988281 15.19859375 -29.36726563 15.6471875 -30.42578125 16.109375 C-33.83169449 18.20640263 -33.83169449 18.20640263 -35 25 C-40.61 25 -46.22 25 -52 25 C-52 25.66 -52 26.32 -52 27 C-54.97 27.33 -57.94 27.66 -61 28 C-61 28.66 -61 29.32 -61 30 C-68.74528765 33.74398456 -76.43767408 36.96595653 -84.5703125 39.7734375 C-88.90956218 41.32528761 -93.12181167 43.12639763 -97.359375 44.93359375 C-100.53168773 46.21472005 -103.6984125 47.11957667 -107 48 C-107.33 48.33 -107.66 48.66 -108 49 C-108.99 49.12375 -109.98 49.2475 -111 49.375 C-114.75747261 49.85810362 -118.10399728 50.99145816 -121.66796875 52.2421875 C-124.71557507 53.23253193 -127.79610975 53.87614664 -130.9296875 54.53125 C-133.69126355 55.1565125 -136.32858026 56.06810939 -139 57 C-142.31083391 57.99064675 -145.42585123 58.19410554 -148.875 58.31640625 C-150.02613281 58.35830078 -151.17726563 58.40019531 -152.36328125 58.44335938 C-153.56339844 58.48267578 -154.76351562 58.52199219 -156 58.5625 C-157.75376953 58.62727539 -157.75376953 58.62727539 -159.54296875 58.69335938 C-181.00424167 59.44367025 -181.00424167 59.44367025 -186.5 57.9375 C-190.08602379 56.97695791 -190.6714029 57.14113256 -194 58 C-196.36254883 57.94580078 -196.36254883 57.94580078 -198.95703125 57.6953125 C-199.90513672 57.60636719 -200.85324219 57.51742187 -201.83007812 57.42578125 C-202.81427734 57.32652344 -203.79847656 57.22726563 -204.8125 57.125 C-206.27139648 56.98771484 -206.27139648 56.98771484 -207.75976562 56.84765625 C-212.86444503 56.35688816 -217.9232057 55.72607955 -223 55 C-226.4132601 54.62814712 -229.83078657 54.31172316 -233.25 54 C-234.10851562 53.9175 -234.96703125 53.835 -235.8515625 53.75 C-241.95115237 53.19072528 -248.04753612 52.83084748 -254.1640625 52.53125 C-260.27128393 52.22992639 -266.35615394 51.83995422 -272.4453125 51.28125 C-308.14788694 48.0318442 -343.89871286 47.38897975 -379.71044922 48.88134766 C-384.76537401 49.0636761 -389.81710822 49.11808086 -394.875 49.125 C-395.69073486 49.12943115 -396.50646973 49.1338623 -397.34692383 49.13842773 C-402.75063216 49.12468392 -402.75063216 49.12468392 -405 48 C-405 46.68 -405 45.36 -405 44 C-405.66 43.67 -406.32 43.34 -407 43 C-406.34 43 -405.68 43 -405 43 C-405 42.34 -405 41.68 -405 41 C-401.79978904 39.93326301 -399.49899263 39.86677414 -396.13476562 39.85473633 C-394.91637497 39.84844711 -393.69798431 39.8421579 -392.44267273 39.8356781 C-391.09719879 39.83416729 -389.75172447 39.83296104 -388.40625 39.83203125 C-387.00205936 39.82804167 -385.59786929 39.8238514 -384.19367981 39.81947327 C-379.62910852 39.8080127 -375.06458116 39.80982129 -370.5 39.8125 C-368.93435669 39.812444 -367.36871338 39.81238296 -365.80307007 39.81231689 C-345.29188216 39.81875152 -324.80984634 40.05644784 -304.3125 40.875 C-303.2915625 40.91420563 -302.270625 40.95341125 -301.21875 40.99380493 C-290.78065641 41.40695823 -280.41757509 41.99489559 -270.05378723 43.34591675 C-265.66949658 43.90134428 -261.40492142 44.07482886 -256.98486328 44.0002594 C-254.20866537 43.99989658 -251.55317484 44.38524651 -248.8125 44.8125 C-229.87502517 47.48535681 -210.76803896 49.06006343 -191.69238281 50.35351562 C-186.41734514 50.71573597 -181.22765306 51.17632912 -176 52 C-174.25171165 52.22224004 -172.50177872 52.43219417 -170.75 52.625 C-169.91984375 52.72039062 -169.0896875 52.81578125 -168.234375 52.9140625 C-165.82689004 53.13810501 -165.82689004 53.13810501 -163 52 C-160.85349704 52.03212453 -158.70748267 52.10057299 -156.5625 52.1875 C-142.62256239 52.42674575 -128.92260755 48.4854602 -115.6472168 44.57543945 C-112.66025714 43.69858121 -110.13211346 43 -107 43 C-106.34 42.34 -105.68 41.68 -105 41 C-101.57331715 40.06378782 -98.14456931 39.26707843 -94.67773438 38.5 C-92.77108452 38.0566736 -90.88329223 37.5339123 -89 37 C-88.67 36.34 -88.34 35.68 -88 35 C-86.17824739 34.17437813 -84.31448457 33.44091457 -82.4375 32.75 C-81.27476562 32.316875 -80.11203125 31.88375 -78.9140625 31.4375 C-78.28532227 31.20675781 -77.65658203 30.97601563 -77.00878906 30.73828125 C-74.15563033 29.6896726 -71.30940112 28.62281521 -68.46313477 27.55566406 C-67.04507461 27.02443481 -65.62630551 26.49509366 -64.20678711 25.96777344 C-60.54868778 24.6126133 -60.54868778 24.6126133 -57 23 C-56.34 23.33 -55.68 23.66 -55 24 C-55 21.03 -55 18.06 -55 15 C-51.535 14.505 -51.535 14.505 -48 14 C-48 13.34 -48 12.68 -48 12 C-45.03 11.01 -42.06 10.02 -39 9 C-38.67 10.65 -38.34 12.3 -38 14 C-36.02 13.67 -34.04 13.34 -32 13 C-33.2375 12.319375 -33.2375 12.319375 -34.5 11.625 C-35.325 11.08875 -36.15 10.5525 -37 10 C-37 9.34 -37 8.68 -37 8 C-34.56495491 6.9936345 -32.12729136 5.99473587 -29.6875 5 C-28.99720703 4.71382813 -28.30691406 4.42765625 -27.59570312 4.1328125 C-24.58454326 2.91089256 -22.28113016 2 -19 2 C-18.67 3.32 -18.34 4.64 -18 6 C-14.61052558 4.60433406 -11.45099772 3.2726963 -8.3125 1.375 C-5.29975488 -0.41636196 -3.25196934 -1.62598467 0 0 Z " fill="#E4E4E4" transform="translate(409,74)"/>
<path d="M0 0 C2.875 2 2.875 2 5 4 C8.55379856 2.61839963 8.55379856 2.61839963 11.9375 0.875 C14.89144009 -0.37818671 16.81368651 -0.44608389 20 0 C22.82594342 1.64573503 25.43068155 3.55326134 26.6640625 6.6875 C27.15111763 10.04025161 27.1040137 13.37142369 27.0625 16.75 C27.05798828 17.44738281 27.05347656 18.14476563 27.04882812 18.86328125 C27.0371002 20.57555803 27.01916653 22.28779033 27 24 C27.66 24 28.32 24 29 24 C29 26.97 29 29.94 29 33 C22.73 33 16.46 33 10 33 C10 30.36 10 27.72 10 25 C10.99 24.67 11.98 24.34 13 24 C12.505 18.555 12.505 18.555 12 13 C10.68 12.67 9.36 12.34 8 12 C7.67 15.96 7.34 19.92 7 24 C7.66 24 8.32 24 9 24 C9 27.3 9 30.6 9 34 C6.02077407 34.02683987 3.04178705 34.04676037 0.0625 34.0625 C-1.21270508 34.07506836 -1.21270508 34.07506836 -2.51367188 34.08789062 C-3.32255859 34.09111328 -4.13144531 34.09433594 -4.96484375 34.09765625 C-5.7137085 34.10289307 -6.46257324 34.10812988 -7.23413086 34.11352539 C-9 34 -9 34 -10 33 C-10.14115161 30.32941149 -10.04247107 27.67567762 -10 25 C-9.01 24.67 -8.02 24.34 -7 24 C-7.33 20.37 -7.66 16.74 -8 13 C-9.32 12.67 -10.64 12.34 -12 12 C-12.33 15.96 -12.66 19.92 -13 24 C-12.34 24 -11.68 24 -11 24 C-11 27.3 -11 30.6 -11 34 C-13.97922593 34.02683987 -16.95821295 34.04676037 -19.9375 34.0625 C-20.78763672 34.07087891 -21.63777344 34.07925781 -22.51367188 34.08789062 C-23.32255859 34.09111328 -24.13144531 34.09433594 -24.96484375 34.09765625 C-25.7137085 34.10289307 -26.46257324 34.10812988 -27.23413086 34.11352539 C-29 34 -29 34 -30 33 C-30.07179964 31.48071962 -30.08392007 29.95832518 -30.0625 28.4375 C-30.05347656 27.61121094 -30.04445313 26.78492187 -30.03515625 25.93359375 C-30.02355469 25.29550781 -30.01195312 24.65742187 -30 24 C-29.01 24 -28.02 24 -27 24 C-27 19.71 -27 15.42 -27 11 C-27.99 11 -28.98 11 -30 11 C-30.02689216 9.52093108 -30.04634621 8.04172517 -30.0625 6.5625 C-30.07410156 5.73878906 -30.08570313 4.91507813 -30.09765625 4.06640625 C-30 2 -30 2 -29 1 C-26.30345146 0.92680379 -23.63308542 0.90757463 -20.9375 0.9375 C-20.17888672 0.94201172 -19.42027344 0.94652344 -18.63867188 0.95117188 C-16.75908129 0.9629932 -14.87953101 0.98092922 -13 1 C-12.67 1.66 -12.34 2.32 -12 3 C-11.13375 2.505 -10.2675 2.01 -9.375 1.5 C-5.77899092 -0.09822626 -3.87117359 -0.57655777 0 0 Z " fill="#CDCDCD" transform="translate(324,52)"/>
<path d="M0 0 C7.26 0 14.52 0 22 0 C22 3.3 22 6.6 22 10 C21.01 10.495 21.01 10.495 20 11 C20 18.92 20 26.84 20 35 C21.32 35 22.64 35 24 35 C25.25838557 32.48322887 25.20818973 30.58706712 25.31640625 27.7734375 C25.35830078 26.7421875 25.40019531 25.7109375 25.44335938 24.6484375 C25.48267578 23.56820312 25.52199219 22.48796875 25.5625 21.375 C25.60568359 20.28703125 25.64886719 19.1990625 25.69335938 18.078125 C25.7996453 15.3855483 25.90168057 12.69287747 26 10 C25.01 10 24.02 10 23 10 C23 6.7 23 3.4 23 0 C29.93 0 36.86 0 44 0 C44 3.3 44 6.6 44 10 C43.01 10 42.02 10 41 10 C41.01571045 10.65484375 41.0314209 11.3096875 41.04760742 11.984375 C41.11047934 14.98949331 41.14915488 17.99447263 41.1875 21 C41.21263672 22.02996094 41.23777344 23.05992188 41.26367188 24.12109375 C41.3334524 31.42478818 40.99290034 37.75056535 35.8125 43.375 C28.45684972 47.62493127 21.19155131 47.54154194 13 46 C9.22109545 44.71597081 6.7061534 42.97508565 4.328125 39.69140625 C2.29874227 34.050916 2.68697978 28.56629061 2.8125 22.625 C2.82603516 21.41199219 2.83957031 20.19898437 2.85351562 18.94921875 C2.88875418 15.96568794 2.93802475 12.98307542 3 10 C2.01 10 1.02 10 0 10 C0 6.7 0 3.4 0 0 Z " fill="#D0D0D0" transform="translate(68,40)"/>
<path d="M0 0 C0 5.28 0 10.56 0 16 C-4.62 16 -9.24 16 -14 16 C-14.33 13.69 -14.66 11.38 -15 9 C-17.07553648 8.4465236 -18.84365964 8 -21 8 C-21 15.92 -21 23.84 -21 32 C-19.35 32 -17.7 32 -16 32 C-14.03177114 30.03177114 -14.33751619 26.65191291 -14 24 C-9.38 24 -4.76 24 0 24 C0 29.28 0 34.56 0 40 C-9.14881957 44.04659327 -19.43460853 45.64220675 -29 42 C-33.65605775 39.87521174 -36.26077061 37.19756363 -38.4375 32.5625 C-41.06975783 24.97206687 -41.33567431 16.10852995 -38.8125 8.4375 C-35.73228552 2.59571391 -32.06579863 -0.4725839 -26 -3 C-17.27111495 -5.52678251 -7.98781607 -3.99390804 0 0 Z " fill="#D0D0D0" transform="translate(256,43)"/>
<path d="M0 0 C5.28 0 10.56 0 16 0 C16.33 4.95 16.66 9.9 17 15 C18.98 14.01 20.96 13.02 23 12 C25.88484533 11.61917955 28.27653734 11.97449863 31 13 C34.02316101 15.49448015 35.75642452 18.26927356 37 22 C38.14831717 38.03879064 38.14831717 38.03879064 33 44 C29.44695734 46.52660811 27.68013797 47.03458329 23.3125 46.8125 C20 46 20 46 17 44 C16.67 44.66 16.34 45.32 16 46 C10.72 46 5.44 46 0 46 C0 42.7 0 39.4 0 36 C0.99 35.505 0.99 35.505 2 35 C2.33 26.75 2.66 18.5 3 10 C2.01 10 1.02 10 0 10 C0 6.7 0 3.4 0 0 Z M18 23 C15.53675931 26.69486103 15.61008312 28.63293092 16 33 C17.35429841 34.94369738 17.35429841 34.94369738 19 36 C19.99 35.67 20.98 35.34 22 35 C23.11445498 32.77109005 23.16480286 31.46944894 23.1875 29 C23.20876953 27.948125 23.20876953 27.948125 23.23046875 26.875 C23.16512323 24.75475062 23.16512323 24.75475062 21 23 C20.01 23 19.02 23 18 23 Z " fill="#D1D1D1" transform="translate(113,40)"/>
<path d="M0 0 C3.53284575 2.47778775 5.37912399 5.16862197 6.7265625 9.2109375 C7.42105115 16.36075504 7.18850351 21.45738198 2.7265625 27.2109375 C-2.06575847 31.54684695 -6.97392517 32.45723422 -13.2734375 32.2109375 C-18.58456602 31.20008309 -22.92052977 29.6367757 -26.2734375 25.2109375 C-29.48116368 20.03191777 -28.82436733 14.07798244 -28.2734375 8.2109375 C-27.30523195 4.44208369 -25.62417153 2.11322783 -22.3203125 -0.09375 C-14.66932179 -3.97274879 -7.51750985 -4.22298362 0 0 Z M-12.2734375 8.2109375 C-14.46283659 9.99200999 -14.46283659 9.99200999 -14.5390625 12.3046875 C-14.53390625 13.09875 -14.52875 13.8928125 -14.5234375 14.7109375 C-14.52859375 15.505 -14.53375 16.2990625 -14.5390625 17.1171875 C-14.46283659 19.42986501 -14.46283659 19.42986501 -12.2734375 21.2109375 C-10.9534375 20.8809375 -9.6334375 20.5509375 -8.2734375 20.2109375 C-8.2734375 16.5809375 -8.2734375 12.9509375 -8.2734375 9.2109375 C-9.5934375 8.8809375 -10.9134375 8.5509375 -12.2734375 8.2109375 Z " fill="#D0D0D0" transform="translate(286.2734375,54.7890625)"/>
<path d="M0 0 C3.71424724 3.80948434 4.23017291 6.73317571 4.25 11.875 C4.1675 13.56625 4.085 15.2575 4 17 C-1.94 17 -7.88 17 -14 17 C-11.28563786 20.4066366 -11.28563786 20.4066366 -7.42578125 20.07421875 C-6.05326192 19.96149977 -4.68203828 19.83199844 -3.3125 19.6875 C-2.2596582 19.5956543 -2.2596582 19.5956543 -1.18554688 19.50195312 C0.5442967 19.34897376 2.27238497 19.17637398 4 19 C4 21.97 4 24.94 4 28 C-2.43061253 31.99740779 -9.97358657 32.88249679 -17.375 31.3125 C-22.57877443 29.42837478 -25.06638351 27.64187727 -27.8125 22.8125 C-29.67916955 16.81950828 -29.67916955 12.18049172 -27.8125 6.1875 C-25.30675668 1.78084796 -22.78394243 -0.2071367 -18.1875 -2.25 C-11.34123618 -3.86088561 -6.14623487 -3.54590473 0 0 Z M-13 6 C-13.33 7.32 -13.66 8.64 -14 10 C-12.02 10 -10.04 10 -8 10 C-8.33 8.68 -8.66 7.36 -9 6 C-10.32 6 -11.64 6 -13 6 Z " fill="#CDCDCD" transform="translate(180,55)"/>
<path d="M0 0 C3.7651314 2.45854576 6.56064004 4.68192012 8 9 C8.0685495 10.89470816 8.08480372 12.7916834 8.0625 14.6875 C8.05347656 15.68136719 8.04445313 16.67523438 8.03515625 17.69921875 C8.02355469 18.45847656 8.01195312 19.21773437 8 20 C6.23244474 20.84026396 4.46082737 21.67198722 2.6875 22.5 C1.70136719 22.9640625 0.71523438 23.428125 -0.30078125 23.90625 C-3 25 -3 25 -6 25 C-6.33 25.99 -6.66 26.98 -7 28 C-7.58007812 28.03738281 -8.16015625 28.07476562 -8.7578125 28.11328125 C-13.8817856 28.54450671 -17.41440172 29.54723813 -22 32 C-23.32 32 -24.64 32 -26 32 C-26 25.07 -26 18.14 -26 11 C-26.99 11 -27.98 11 -29 11 C-29.02689216 9.52093108 -29.04634621 8.04172517 -29.0625 6.5625 C-29.07410156 5.73878906 -29.08570313 4.91507813 -29.09765625 4.06640625 C-29 2 -29 2 -28 1 C-25.30345146 0.92680379 -22.63308542 0.90757463 -19.9375 0.9375 C-19.17888672 0.94201172 -18.42027344 0.94652344 -17.63867188 0.95117188 C-15.75908129 0.9629932 -13.87953101 0.98092922 -12 1 C-11.67 1.66 -11.34 2.32 -11 3 C-10.29875 2.505 -9.5975 2.01 -8.875 1.5 C-5.41864623 -0.30331501 -3.84528402 -0.69215112 0 0 Z M-11 11 C-12.28612676 12.05978933 -12.28612676 12.05978933 -12.09765625 14.50390625 C-12.08605469 15.51324219 -12.07445312 16.52257812 -12.0625 17.5625 C-12.05347656 18.57441406 -12.04445313 19.58632812 -12.03515625 20.62890625 C-12.02355469 21.41136719 -12.01195312 22.19382812 -12 23 C-10.10820797 23.6814823 -10.10820797 23.6814823 -8 24 C-5.81060091 22.21892751 -5.81060091 22.21892751 -5.734375 19.90625 C-5.73953125 19.1121875 -5.7446875 18.318125 -5.75 17.5 C-5.74484375 16.7059375 -5.7396875 15.911875 -5.734375 15.09375 C-5.81060091 12.78107249 -5.81060091 12.78107249 -8 11 C-8.99 11 -9.98 11 -11 11 Z " fill="#D0D0D0" transform="translate(383,52)"/>
<path d="M0 0 C-5.65931 4.92907645 -12.09074033 8.23303071 -18.96875 11.13671875 C-19.6390625 11.42160156 -20.309375 11.70648438 -21 12 C-22.0003125 12.41894531 -23.000625 12.83789062 -24.03125 13.26953125 C-25.65546875 14.00236328 -25.65546875 14.00236328 -27.3125 14.75 C-28.33988281 15.19859375 -29.36726563 15.6471875 -30.42578125 16.109375 C-33.83169449 18.20640263 -33.83169449 18.20640263 -35 25 C-40.61 25 -46.22 25 -52 25 C-52 25.66 -52 26.32 -52 27 C-54.97 27.33 -57.94 27.66 -61 28 C-61 28.66 -61 29.32 -61 30 C-68.74528765 33.74398456 -76.43767408 36.96595653 -84.5703125 39.7734375 C-88.90956218 41.32528761 -93.12181167 43.12639763 -97.359375 44.93359375 C-100.53168773 46.21472005 -103.6984125 47.11957667 -107 48 C-107.33 48.33 -107.66 48.66 -108 49 C-110.3306218 49.35179197 -112.66435067 49.68330179 -115 50 C-116.33917261 50.30903983 -117.67653254 50.62942911 -119 51 C-119.66 50.01 -120.32 49.02 -121 48 C-123.05925139 47.27617533 -123.05925139 47.27617533 -125 47 C-122.5636811 46.32873871 -120.12611117 45.66283646 -117.6875 45 C-116.99720703 44.80921875 -116.30691406 44.6184375 -115.59570312 44.421875 C-112.64212051 43.62283816 -110.07440781 43 -107 43 C-106.34 42.34 -105.68 41.68 -105 41 C-101.57331715 40.06378782 -98.14456931 39.26707843 -94.67773438 38.5 C-92.77108452 38.0566736 -90.88329223 37.5339123 -89 37 C-88.505 36.01 -88.505 36.01 -88 35 C-86.17824739 34.17437813 -84.31448457 33.44091457 -82.4375 32.75 C-81.27476562 32.316875 -80.11203125 31.88375 -78.9140625 31.4375 C-78.28532227 31.20675781 -77.65658203 30.97601563 -77.00878906 30.73828125 C-74.15563033 29.6896726 -71.30940112 28.62281521 -68.46313477 27.55566406 C-67.04507461 27.02443481 -65.62630551 26.49509366 -64.20678711 25.96777344 C-60.54868778 24.6126133 -60.54868778 24.6126133 -57 23 C-56.34 23.33 -55.68 23.66 -55 24 C-55 21.03 -55 18.06 -55 15 C-51.535 14.505 -51.535 14.505 -48 14 C-48 13.34 -48 12.68 -48 12 C-45.03 11.01 -42.06 10.02 -39 9 C-38.505 11.475 -38.505 11.475 -38 14 C-35.03 13.505 -35.03 13.505 -32 13 C-32.825 12.54625 -33.65 12.0925 -34.5 11.625 C-35.7375 10.820625 -35.7375 10.820625 -37 10 C-37 9.34 -37 8.68 -37 8 C-34.56495491 6.9936345 -32.12729136 5.99473587 -29.6875 5 C-28.99720703 4.71382813 -28.30691406 4.42765625 -27.59570312 4.1328125 C-24.58454326 2.91089256 -22.28113016 2 -19 2 C-18.505 3.98 -18.505 3.98 -18 6 C-14.61052558 4.60433406 -11.45099772 3.2726963 -8.3125 1.375 C-5.29975488 -0.41636196 -3.25196934 -1.62598467 0 0 Z " fill="#D1D0D0" transform="translate(409,74)"/>
<path d="M0 0 C0 3.63 0 7.26 0 11 C-2.5390625 11.16276042 -5.078125 11.32552083 -7.6171875 11.48828125 C-10.36221601 11.7882039 -10.36221601 11.7882039 -12 15 C-12.45139459 17.0492094 -12.45139459 17.0492094 -12.625 19.1875 C-12.74875 20.445625 -12.8725 21.70375 -13 23 C-11.35 23 -9.7 23 -8 23 C-8 26.3 -8 29.6 -8 33 C-14.93 33 -21.86 33 -29 33 C-29 29.7 -29 26.4 -29 23 C-28.34 23 -27.68 23 -27 23 C-27 18.71 -27 14.42 -27 10 C-27.66 10 -28.32 10 -29 10 C-29 6.7 -29 3.4 -29 0 C-23.72 0 -18.44 0 -13 0 C-12.67 0.66 -12.34 1.32 -12 2 C-11.319375 1.484375 -10.63875 0.96875 -9.9375 0.4375 C-6.19881168 -1.39207088 -3.99556587 -0.86178872 0 0 Z " fill="#CECECE" transform="translate(215,53)"/>
<path d="M0 0 C-6.26582863 5.45733461 -13.42424625 8.75324839 -21 12 C-22.5446089 12.93264447 -24.08614331 13.87039467 -25.625 14.8125 C-29.59276333 17.09142048 -29.59276333 17.09142048 -33.0625 16.3125 C-33.701875 15.879375 -34.34125 15.44625 -35 15 C-34.01 14.34 -33.02 13.68 -32 13 C-32.825 12.54625 -33.65 12.0925 -34.5 11.625 C-35.7375 10.820625 -35.7375 10.820625 -37 10 C-37 9.34 -37 8.68 -37 8 C-34.56495491 6.9936345 -32.12729136 5.99473587 -29.6875 5 C-28.65206055 4.57074219 -28.65206055 4.57074219 -27.59570312 4.1328125 C-24.58454326 2.91089256 -22.28113016 2 -19 2 C-18.67 3.32 -18.34 4.64 -18 6 C-14.61052558 4.60433406 -11.45099772 3.2726963 -8.3125 1.375 C-5.29975488 -0.41636196 -3.25196934 -1.62598467 0 0 Z " fill="#D3D2D2" transform="translate(409,74)"/>
<path d="M0 0 C-12.45849802 8 -12.45849802 8 -18 8 C-18.33 8.99 -18.66 9.98 -19 11 C-19.86109375 11.11730469 -20.7221875 11.23460938 -21.609375 11.35546875 C-25.05204299 12.00989297 -28.00639075 12.99631182 -31.25 14.3125 C-32.28640625 14.72113281 -33.3228125 15.12976563 -34.390625 15.55078125 C-37.19709531 17.10946461 -37.95868218 18.02208502 -39 21 C-39 19.68 -39 18.36 -39 17 C-39.928125 17.495 -40.85625 17.99 -41.8125 18.5 C-45 20 -45 20 -48 20 C-48 20.66 -48 21.32 -48 22 C-49.32 22 -50.64 22 -52 22 C-52 20.68 -52 19.36 -52 18 C-39.5 13 -39.5 13 -33 13 C-32.67 12.34 -32.34 11.68 -32 11 C-29.85546875 9.96484375 -29.85546875 9.96484375 -27.1875 8.9375 C-26.31480469 8.59589844 -25.44210937 8.25429687 -24.54296875 7.90234375 C-22.36979031 7.13121592 -20.24667029 6.50798839 -18 6 C-17.67 4.68 -17.34 3.36 -17 2 C-16.505 2.99 -16.505 2.99 -16 4 C-14.989375 3.54625 -13.97875 3.0925 -12.9375 2.625 C-3.12582237 -1.56291118 -3.12582237 -1.56291118 0 0 Z " fill="#A86A6A" transform="translate(409,66)"/>
<path d="M0 0 C0.042721 1.66611905 0.04063832 3.33382885 0 5 C-1 6 -1 6 -4.37890625 6.09765625 C-5.77347077 6.09098369 -7.16801743 6.07902532 -8.5625 6.0625 C-9.27341797 6.05798828 -9.98433594 6.05347656 -10.71679688 6.04882812 C-12.47790013 6.03700864 -14.23896036 6.01907263 -16 6 C-13.77304595 3.77304595 -12.032382 3.03967825 -9.125 1.875 C-8.26132812 1.52179688 -7.39765625 1.16859375 -6.5078125 0.8046875 C-4 0 -4 0 0 0 Z " fill="#B8B8B8" transform="translate(375,93)"/>
<path d="M0 0 C0.99 0.33 1.98 0.66 3 1 C0.69125752 4.46311372 -0.01453002 4.56015245 -3.875 5.5625 C-6.45598776 6.24434304 -8.76164547 6.87995599 -11.1484375 8.08203125 C-13.51756547 9.25659891 -15.39214055 9.14488108 -18 9 C-14.68641465 4.99608436 -10.98691379 3.16525906 -6 2 C-3 2.3125 -3 2.3125 -1 3 C-0.67 2.01 -0.34 1.02 0 0 Z " fill="#F9F9F9" transform="translate(374,89)"/>
<path d="M0 0 C-12.45849802 8 -12.45849802 8 -18 8 C-18 6.02 -18 4.04 -18 2 C-17.34 2.66 -16.68 3.32 -16 4 C-14.989375 3.54625 -13.97875 3.0925 -12.9375 2.625 C-3.12582237 -1.56291118 -3.12582237 -1.56291118 0 0 Z " fill="#8B5454" transform="translate(409,66)"/>
<path d="M0 0 C-0.1875 1.875 -0.1875 1.875 -1 4 C-5.35378764 6.77059213 -9.15990481 5.82035512 -14 5 C-13 3 -13 3 -11 1 C-8.90625 0.5859375 -8.90625 0.5859375 -6.5 0.375 C-5.7059375 0.30023438 -4.911875 0.22546875 -4.09375 0.1484375 C-2.7316886 0.05187345 -1.36548008 0 0 0 Z " fill="#D9D8D8" transform="translate(315,114)"/>
<path d="M0 0 C-4.01254885 3.51098025 -8.20983041 5.76537994 -13 8 C-13 7.34 -13 6.68 -13 6 C-13.99 5.67 -14.98 5.34 -16 5 C-15.278125 4.731875 -14.55625 4.46375 -13.8125 4.1875 C-10.97360372 3.07032494 -10.97360372 3.07032494 -8.4375 1.4375 C-3.24705882 -1.62352941 -3.24705882 -1.62352941 0 0 Z " fill="#BCBBBB" transform="translate(409,74)"/>
<path d="M0 0 C0 1.65 0 3.3 0 5 C-1.546875 4.5359375 -1.546875 4.5359375 -3.125 4.0625 C-9.30186863 2.49040889 -15.65944709 2.3384003 -22 2 C-22 1.67 -22 1.34 -22 1 C-18.70837401 0.83252349 -15.41669287 0.66615639 -12.125 0.5 C-11.18785156 0.45230469 -10.25070312 0.40460938 -9.28515625 0.35546875 C-8.38925781 0.31035156 -7.49335938 0.26523438 -6.5703125 0.21875 C-5.74289551 0.17685547 -4.91547852 0.13496094 -4.06298828 0.09179688 C-2.70965236 0.03157743 -1.35467505 0 0 0 Z " fill="#896B6B" transform="translate(357,84)"/>
<path d="M0 0 C2.64 0.33 5.28 0.66 8 1 C7.01 1.495 7.01 1.495 6 2 C6 2.66 6 3.32 6 4 C3.69 4.33 1.38 4.66 -1 5 C-1.33 4.34 -1.66 3.68 -2 3 C-1.34 2.01 -0.68 1.02 0 0 Z " fill="#DAD9D9" transform="translate(351,97)"/>
<path d="M0 0 C-0.625 1.9375 -0.625 1.9375 -2 4 C-5.125 4.75 -5.125 4.75 -8 5 C-8.33 4.34 -8.66 3.68 -9 3 C-7.14340032 -0.71319936 -3.69365381 -0.09982848 0 0 Z " fill="#C8C8C8" transform="translate(396,80)"/>
<path d="M0 0 C0 0.66 0 1.32 0 2 C-0.66 2 -1.32 2 -2 2 C-2 2.66 -2 3.32 -2 4 C-3.65 4.33 -5.3 4.66 -7 5 C-7.33 3.68 -7.66 2.36 -8 1 C-2.25 -1.125 -2.25 -1.125 0 0 Z " fill="#CAC9C9" transform="translate(350,100)"/>
<path d="M0 0 C0.33 0.66 0.66 1.32 1 2 C-1.1875 3.625 -1.1875 3.625 -4 5 C-6.8125 4.1875 -6.8125 4.1875 -9 3 C-5.92807025 0.26939578 -4.09590633 -0.34132553 0 0 Z " fill="#BEBDBD" transform="translate(383,86)"/>
<path d="M0 0 C0 1.65 0 3.3 0 5 C-3.375 5.125 -3.375 5.125 -7 5 C-7.66 4.34 -8.32 3.68 -9 3 C-3.375 0 -3.375 0 0 0 Z " fill="#B28181" transform="translate(391,72)"/>
<path d="M0 0 C0 0.99 0 1.98 0 3 C-0.99 3 -1.98 3 -3 3 C-3 3.66 -3 4.32 -3 5 C-4.32 5 -5.64 5 -7 5 C-7 3.68 -7 2.36 -7 1 C-4.50935112 0.31292445 -2.62113708 0 0 0 Z " fill="#B27C7C" transform="translate(364,83)"/>
<path d="M0 0 C0.66 0 1.32 0 2 0 C2 0.66 2 1.32 2 2 C3.32 2.66 4.64 3.32 6 4 C-1.42857143 5.28571429 -1.42857143 5.28571429 -5 4 C-4.67 3.34 -4.34 2.68 -4 2 C-3.01 2 -2.02 2 -1 2 C-0.67 1.34 -0.34 0.68 0 0 Z " fill="#895252" transform="translate(328,93)"/>
<path d="M0 0 C0 1.65 0 3.3 0 5 C-0.99 5.33 -1.98 5.66 -3 6 C-3.66 5.34 -4.32 4.68 -5 4 C-4.67 3.01 -4.34 2.02 -4 1 C-1 0 -1 0 0 0 Z " fill="#BFB9B9" transform="translate(377,74)"/>
<path d="M0 0 C0.66 0.33 1.32 0.66 2 1 C1.67 2.32 1.34 3.64 1 5 C-0.65 4.67 -2.3 4.34 -4 4 C-2.68 3.34 -1.36 2.68 0 2 C0 1.34 0 0.68 0 0 Z " fill="#E5E5E5" transform="translate(386,82)"/>
<path d="M0 0 C0.66 0.33 1.32 0.66 2 1 C-0.31 3.31 -2.62 5.62 -5 8 C-5 5 -5 5 -2.5 2.3125 C-1.675 1.549375 -0.85 0.78625 0 0 Z " fill="#AFAEAE" transform="translate(265,54)"/>
<path d="M0 0 C-0.66 1.32 -1.32 2.64 -2 4 C-3.32 4 -4.64 4 -6 4 C-2.25 0 -2.25 0 0 0 Z " fill="#939292" transform="translate(415,69)"/>
<path d="M0 0 C0.66 0.33 1.32 0.66 2 1 C1.34 1.66 0.68 2.32 0 3 C-2.125 2.625 -2.125 2.625 -4 2 C-2.125 0.9375 -2.125 0.9375 0 0 Z " fill="#774B4B" transform="translate(413,62)"/>
<path d="M0 0 C0 0.99 0 1.98 0 3 C-0.99 3 -1.98 3 -3 3 C-3 2.34 -3 1.68 -3 1 C-2.01 0.67 -1.02 0.34 0 0 Z " fill="#8B8989" transform="translate(419,66)"/>
<path d="M0 0 C0.33 0.66 0.66 1.32 1 2 C-0.32 1.67 -1.64 1.34 -3 1 C-2.01 0.67 -1.02 0.34 0 0 Z " fill="#734949" transform="translate(419,59)"/>
</svg>
