<svg width="695" height="166" viewBox="0 0 695 166" fill="none" xmlns="http://www.w3.org/2000/svg">
<path d="M172.094 56.56V82H158.654V19.888H182.558C190.494 19.888 194.462 24.112 194.462 32.56V39.76C194.462 44.88 192.638 48.144 188.99 49.552C192.19 50.704 193.79 53.328 193.79 57.424V82H180.35V58.48C180.35 57.2 179.742 56.56 178.526 56.56H172.094ZM172.094 29.008V47.152H179.198C179.71 47.152 180.126 46.96 180.446 46.576C180.83 46.192 181.022 45.744 181.022 45.232V30.928C181.022 30.416 180.83 29.968 180.446 29.584C180.126 29.2 179.71 29.008 179.198 29.008H172.094ZM225.363 34.192C233.299 34.192 237.267 38.416 237.267 46.864V62.032H215.475V71.824C215.475 72.336 215.635 72.784 215.955 73.168C216.339 73.552 216.787 73.744 217.299 73.744H222.579C223.091 73.744 223.507 73.552 223.827 73.168C224.211 72.784 224.403 72.336 224.403 71.824V66.64H237.267V70.288C237.267 78.736 233.299 82.96 225.363 82.96H214.515C206.579 82.96 202.611 78.736 202.611 70.288V46.864C202.611 38.416 206.579 34.192 214.515 34.192H225.363ZM215.475 53.584H224.403V44.944C224.403 44.432 224.211 43.984 223.827 43.6C223.507 43.216 223.091 43.024 222.579 43.024H217.299C216.787 43.024 216.339 43.216 215.955 43.6C215.635 43.984 215.475 44.432 215.475 44.944V53.584ZM278.986 35.152V85.552C278.986 94 275.018 98.224 267.082 98.224H257.482C249.546 98.224 245.578 94 245.578 85.552V84.016H257.194V87.088C257.194 87.6 257.354 88.048 257.674 88.432C258.058 88.816 258.506 89.008 259.018 89.008H264.298C264.81 89.008 265.226 88.816 265.546 88.432C265.93 88.048 266.122 87.6 266.122 87.088V77.488C264.138 79.024 261.514 79.792 258.25 79.792H256.234C248.298 79.792 244.33 75.568 244.33 67.12V46.864C244.33 38.416 248.298 34.192 256.234 34.192H258.25C262.858 34.192 266.154 35.664 268.138 38.608V35.152H278.986ZM266.122 68.656V45.328C266.122 44.816 265.93 44.368 265.546 43.984C265.226 43.6 264.81 43.408 264.298 43.408H259.018C258.506 43.408 258.058 43.6 257.674 43.984C257.354 44.368 257.194 44.816 257.194 45.328V68.656C257.194 69.168 257.354 69.616 257.674 70C258.058 70.384 258.506 70.576 259.018 70.576H264.298C264.81 70.576 265.226 70.384 265.546 70C265.93 69.616 266.122 69.168 266.122 68.656ZM300.792 29.296C299.448 30.64 297.816 31.312 295.896 31.312C293.976 31.312 292.312 30.64 290.904 29.296C289.496 27.888 288.792 26.224 288.792 24.304C288.792 22.32 289.496 20.656 290.904 19.312C292.312 17.904 293.976 17.2 295.896 17.2C297.816 17.2 299.448 17.904 300.792 19.312C302.2 20.656 302.904 22.32 302.904 24.304C302.904 26.288 302.2 27.952 300.792 29.296ZM289.464 82V35.152H302.328V82H289.464ZM333.441 52.624C341.377 52.624 345.345 56.848 345.345 65.296V70.288C345.345 78.736 341.377 82.96 333.441 82.96H322.785C314.849 82.96 310.881 78.736 310.881 70.288V67.312H322.785V71.536C322.785 72.048 322.945 72.496 323.265 72.88C323.649 73.264 324.097 73.456 324.609 73.456H332.481C332.993 73.456 333.409 73.264 333.729 72.88C334.113 72.496 334.305 72.048 334.305 71.536V65.776C334.305 65.264 334.113 64.816 333.729 64.432C333.409 64.048 332.993 63.856 332.481 63.856H322.593C314.657 63.856 310.689 59.632 310.689 51.184V46.864C310.689 38.416 314.657 34.192 322.593 34.192H332.673C340.609 34.192 344.577 38.416 344.577 46.864V48.592H332.673V45.616C332.673 45.104 332.481 44.656 332.097 44.272C331.777 43.888 331.361 43.696 330.849 43.696H323.553C323.041 43.696 322.593 43.888 322.209 44.272C321.889 44.656 321.729 45.104 321.729 45.616V50.704C321.729 51.216 321.889 51.664 322.209 52.048C322.593 52.432 323.041 52.624 323.553 52.624H333.441ZM369.981 74.608H373.821V82.96H364.797C356.861 82.96 352.893 78.736 352.893 70.288V24.976H365.757V35.152H373.821V44.464H365.757V70C365.757 71.792 366.109 73.008 366.813 73.648C367.517 74.288 368.573 74.608 369.981 74.608ZM403.301 34.192C411.237 34.192 415.205 38.416 415.205 46.864V62.032H393.413V71.824C393.413 72.336 393.573 72.784 393.893 73.168C394.277 73.552 394.725 73.744 395.237 73.744H400.517C401.029 73.744 401.445 73.552 401.765 73.168C402.149 72.784 402.341 72.336 402.341 71.824V66.64H415.205V70.288C415.205 78.736 411.237 82.96 403.301 82.96H392.453C384.517 82.96 380.549 78.736 380.549 70.288V46.864C380.549 38.416 384.517 34.192 392.453 34.192H403.301ZM393.413 53.584H402.341V44.944C402.341 44.432 402.149 43.984 401.765 43.6C401.445 43.216 401.029 43.024 400.517 43.024H395.237C394.725 43.024 394.277 43.216 393.893 43.6C393.573 43.984 393.413 44.432 393.413 44.944V53.584ZM442.236 34.192H444.732V46.672H438.396C436.22 46.672 435.132 47.792 435.132 50.032V82H422.268V35.152H433.98V39.664C435.836 36.016 438.588 34.192 442.236 34.192Z" fill="white"/>
<path d="M7.88808 135.885C11.957 135.331 17.2542 135.197 21.2422 135.243C22.526 135.254 21.8898 135.721 22.7589 135.749C24.4855 135.803 26.0185 135.498 27.6968 135.59C28.2627 135.622 27.6038 136.336 28.1985 136.354C28.2689 136.356 28.3394 136.358 28.41 136.36C31.5212 136.438 34.441 136.101 37.6007 136.061C53.5105 135.855 69.1171 135.48 85.2024 135.453C90.5093 135.441 96.9555 135.96 102.436 135.656C103.068 135.62 102.687 135.033 102.807 134.984C104.697 134.227 104.075 135.422 105.32 135.573C110.261 136.173 115.769 136.234 120.508 136.041C122.538 135.957 120.509 134.77 122.554 135.444C122.696 135.49 122.173 136.112 122.732 136.183C123.978 136.344 126.36 136.258 127.343 136.32C129.234 136.443 129.521 136.441 131.302 136.475C133.755 136.528 136.593 136.891 139.231 136.807C139.783 136.787 139.066 136.129 139.95 136.039C140.832 135.949 143.18 136.06 143.975 136.232C144.768 136.404 144.416 136.899 144.554 137.019C145.678 138.023 148.418 136.748 148.774 136.726C155.153 136.343 160.625 137.315 166.578 137.568C167.197 137.595 167.823 137.617 168.455 137.637C172.419 137.76 176.562 137.781 180.297 138.011C185.423 138.33 189.764 138.933 194.756 139.184C195.282 139.211 194.713 138.419 195.356 138.451C202.201 138.792 208.971 139.338 215.73 140.338C216.408 140.439 215.482 141.036 216.156 141.177C220.288 142.021 226.769 143.826 229.466 141.144C232.28 141.475 235.694 141.862 238.17 142.645C239.767 143.149 238.129 143.741 240.152 143.596C240.608 143.564 240.073 142.886 240.754 142.886C243.616 142.886 246.71 143.347 249.549 143.257C250.127 143.237 250.018 142.659 250.188 142.571C251.617 141.862 253.778 143.414 254.263 143.555C257.96 144.61 260.744 144.557 264.242 144.877C265.057 144.952 264.158 144.111 264.945 144.156C269.019 144.4 273.225 144.834 277.162 145.521C278.042 145.676 277.169 146.25 277.587 146.357C279.428 146.821 279.949 145.639 281.709 146.06C282.08 146.148 281.819 146.682 281.882 146.748C282.866 147.796 283.928 146.53 284.207 146.525C287.748 146.43 289.852 148.039 293.252 148.142C293.657 148.153 292.811 147.372 293.947 147.446C301.537 147.932 309.525 148.844 316.968 150.069C318.122 150.258 317.246 150.71 317.313 150.781C318.414 151.899 319.298 150.611 319.69 150.594C322.741 150.493 325.41 151.873 327.604 150.437C338.829 151.918 350.21 152.207 361.323 153.895C362.71 154.103 364.072 154.33 365.409 154.58C365.566 154.608 365.237 155.257 365.55 155.309C369.41 155.949 368.691 154.855 371.334 153.748C372.005 153.471 373.849 155.125 374.009 155.247C374.604 155.699 373.902 156.656 374.104 156.749C375.808 157.483 375.747 154.177 378.07 154.306C378.142 154.315 377.804 154.905 377.995 154.976C378.584 155.198 379.213 154.99 379.807 155.231C381.171 155.786 381.537 157.411 383.707 156.58C383.977 156.471 383.672 154.586 385.749 154.767C386.568 154.843 390.259 154.955 391.309 155.108C392.344 155.263 391.611 155.842 391.684 155.87C394.444 156.753 393.363 157.05 394.752 158.268C396.134 159.479 395.807 156.665 396.381 156.365C396.936 156.067 399.005 156.762 399.494 156.996C399.991 157.232 399.362 157.606 399.805 157.742C402.767 158.622 401.127 156.365 402.106 155.929C404.383 154.89 406.176 156.966 408.307 157.145C408.878 157.193 408.407 156.726 408.913 156.674C410.91 156.475 412.126 157.098 414.411 156.427C414.78 156.318 416.571 154.999 417.799 155.856C417.973 155.98 417.522 156.522 418.376 156.595C419.672 156.706 421.977 156.678 423.337 156.401C424.335 156.197 423.11 155.435 424.405 155.6C424.982 155.673 423.97 156.255 425.051 156.35C426.122 156.448 428.826 156.172 429.853 156.04C430.879 155.912 430.245 155.328 430.324 155.276C430.797 154.976 432.715 154.436 432.887 154.413C441.556 153.268 449.745 152.761 458.037 150.449C458.689 150.268 458.094 149.706 458.192 149.672C458.537 149.544 458.794 149.49 458.99 149.492C460.019 149.501 459.292 151.083 460.733 151.264C460.178 149.972 461.179 149.991 462.713 149.456C463.455 149.196 462.912 148.778 462.968 148.707C463.901 147.636 464.94 148.458 465.194 148.616C466.133 149.196 466.718 148.078 467.36 148.459C467.997 148.837 467.028 149.894 468.534 149.492C468.832 148.902 467.385 147.939 468.477 147.437C472.603 145.553 480.889 144.269 484.376 143.331C487.84 142.411 488.923 141.979 490.98 141.534C494.683 140.723 493.079 140.213 495.178 139.09C497.293 137.955 496.919 140.557 497.397 140.939C497.867 141.323 498.052 140.714 498.531 140.853C499.01 140.993 498.265 141.596 499.222 141.398C500.188 141.199 502.426 139.516 502.589 138.901C502.926 137.603 501.432 136.852 503.986 136.444C504.134 136.421 503.876 137.162 504.431 137.044C508.841 136.084 513.263 134.598 517.636 133.505C518.236 133.356 517.947 134.192 518.3 134.113C521.988 133.275 520.322 132.626 521.815 130.714C521.962 132.494 523.399 133.105 526.068 132.145C527.68 131.564 527.146 130.956 527.995 130.078C528.25 129.815 529.563 129.882 529.646 129.473C529.919 128.136 528.415 127.312 531.322 126.782C531.45 126.76 531.29 127.497 531.718 127.378C534.5 126.606 534.379 125.357 537.226 124.117C539.442 123.152 543.749 122.279 546.353 121.383C547.007 123.212 549.284 121.838 549.77 120.204C551.463 119.591 553.224 118.805 554.907 118.326C555.486 118.16 555.332 118.828 555.425 118.856C556.853 119.307 557.084 117.808 557.424 117.615C559.379 116.539 561.264 115.928 563.124 115.224C564.782 114.598 566.423 113.895 567.989 112.743C568.107 112.656 567.796 111.325 569.165 111.818C569.255 111.853 568.271 112.932 570.03 112.244C571.784 111.558 575.341 110.833 577.5 109.226C578.027 108.836 579.06 107.201 580.579 107.475C580.783 107.514 580.764 107.943 581.076 108.042C582.082 108.354 581.947 106.928 583.266 107.617C584.583 108.306 586.74 108.314 588.832 106.523C588.9 106.468 589.038 105.228 589.806 104.909C591.037 104.397 592.84 103.846 594.108 103.276C594.714 103.003 594.053 102.562 594.153 102.504C598.067 100.354 601.216 99.5971 605.669 97.8679C606.492 97.5491 608.395 95.6818 610.242 95.6342C612.266 95.5806 611.887 99.3743 615.46 96.8771C616.901 95.8715 617.144 91.1653 620.862 91.8319C626.097 88.8233 631.608 87.4761 636.744 84.2197C636.975 84.0738 637.256 82.6545 637.84 82.3975C638.707 82.0183 639.412 82.2884 640.037 82.034C642.667 80.9771 644.812 79.4487 647.312 78.3451C648.263 77.9243 648.174 78.5896 649.304 78.0888C650.433 77.5879 650.862 76.5639 652.528 76.169C653.786 75.8738 655.579 76.7002 657.174 76.1368C656.589 74.7588 657.641 74.2926 659.322 73.0539C659.645 72.8151 659.039 72.5272 659.18 72.39C659.75 71.8213 660.57 71.908 661.093 71.335C661.221 71.1963 661.008 70.7319 661.1 70.5925C661.873 69.3901 664.18 69.5611 664.578 69.5927C666.095 69.7094 666.365 68.8439 667.408 68.6765C668.45 68.5096 667.247 69.4999 668.391 69.1534C670.762 68.4353 673.566 67.0001 675.816 65.9468C676.713 65.5232 675.808 65.2014 675.929 65.1265C677.707 64.0821 679.888 63.8394 680.327 62.1223C683.13 64.6709 681.295 61.2797 684.242 60.6435C684.475 60.5946 685.459 61.9639 684.765 62.5678C684.07 63.1716 682.636 63.2848 681.689 64.1611C681.465 64.3678 680.633 66.493 680.469 66.6764C679.18 68.112 677.878 65.9849 677.734 65.9029C676.131 65.0406 675.018 67.4337 674.584 67.77C672.595 69.3123 670.565 69.8973 668.871 71.128C667.763 71.9294 668.346 73.4522 667.372 73.8626C664.131 75.2295 662.054 73.7088 659.91 76.9083C659.45 77.5918 660.851 78.8925 657.955 78.724C657.772 78.7134 655.518 78.3711 654.881 79.5684C654.801 79.7192 655.027 80.1849 654.883 80.3017C653.912 81.0741 653.001 81.0499 651.895 81.7932C650.789 82.5363 649.481 83.4818 648.043 83.9673C647.177 84.2607 645.715 83.8849 645.22 83.857C643.819 83.7665 643.105 85.3361 642.067 84.9144C641.022 84.4915 641.839 82.7169 639.796 83.0874C640.302 84.3361 640.734 85.6581 641.202 86.9331C637.195 88.7659 633.081 90.2116 629.101 92.1288C628.607 92.3681 629.421 92.787 628.899 93.0607C626.695 94.212 624.515 94.6539 622.265 95.9186C620.53 96.8976 618.859 98.5093 617.048 99.551C615.246 98.6844 612.66 100.441 610.553 101.243C609.818 101.524 609.696 101.128 609.132 101.237C607.007 101.656 608.467 102.487 608.028 102.921C606.138 104.778 604.685 102.057 602.045 103.327C601.904 103.393 600.85 105.664 600.653 105.864C599.406 107.151 600.168 105.455 599.169 105.769C597.347 106.339 595.988 106.515 594.147 107.856C593.613 108.248 592.604 109.812 591.129 109.596C590.936 109.568 590.801 109.034 590.666 109.059C588.245 109.544 588.873 111.128 587.835 112.212C586.797 113.295 584.377 113.063 583.841 112.925C582.449 112.572 584.491 112.235 584.514 112.131C584.77 110.903 583.41 111.686 582.286 112.077C581.465 110.612 579.985 111.359 581.124 112.488C581.251 112.61 582.037 112.102 582.286 112.077C581.982 113.995 580.383 114.913 577.926 114.297C576.775 114.007 577.275 112.886 574.753 114.291C573.61 114.927 574.521 115.79 573.587 116.526C571.447 118.208 567.882 118.537 565.452 119.724C565.224 119.836 565.13 119.933 565.106 120.021C565.035 120.274 565.54 120.453 565.096 120.688C563.503 121.53 561.888 121.681 560.31 122.585C560.169 122.667 560.785 123.129 560.271 123.346C556.392 125.006 552.815 125.983 548.708 127.583C546.73 128.356 543.311 130.072 541.214 130.795C537.594 132.051 532.862 132.8 529.869 134.148C527.928 135.019 528.585 135.48 527.88 136.216C526.521 137.64 523.045 137.231 522.573 137.142C522.558 137.139 524.232 136.374 523.196 136.386C522.423 135.913 522.592 137.132 522.573 137.142C522.27 137.087 518.752 138.176 518.114 138.53C517.762 138.727 518.179 139.243 517.991 139.334C513.546 141.484 508.932 143.221 504.105 144.498C504.018 144.514 503.925 143.809 503.723 143.853C500.898 144.452 499.404 145.829 497.277 147.036C495.169 148.235 493.303 148.634 491.601 147.901C489.929 148.573 487.304 148.809 485.799 148.918C484.281 149.031 484.469 150.391 484.35 150.454C480.676 152.421 478.193 152.315 474.08 153.308C472.125 153.779 468.304 154.985 466.232 155.655C464.574 156.195 463.506 156.13 461.998 156.703C461.795 156.78 462.148 157.318 462.09 157.356C460.72 158.341 460.934 157.186 460.72 156.779C460.691 156.724 460.654 156.683 460.603 156.662C459.075 156.034 458.186 155.72 456.062 156.662C455.583 156.877 454.534 159.292 453.619 159.614C452.428 160.029 452.728 159.186 451.481 159.633C451.374 159.671 451.492 160.129 450.694 160.269C446.978 160.932 442.865 161.392 438.975 162.016C438.442 162.1 439.236 162.739 438.466 162.871C434.853 163.489 430.84 163.929 427.26 163.895C426.384 163.884 426.882 163.314 426.681 163.176C425.449 162.341 423.906 163.828 423.638 163.872C417.169 164.986 412.163 163.899 405.631 164.521C405.274 164.559 402.519 166.022 401.296 164.751C401.206 164.666 400.015 163.369 398.942 164.231C398.874 164.285 399.62 164.959 398.302 164.87C396.957 164.781 394.87 165.177 393.07 164.396C392.517 164.151 391.202 162.829 389.469 163.789C389.372 163.858 386.636 166.067 385.769 164.431C385.627 164.162 385.871 162.485 383.81 163.258C383.413 163.407 384.103 163.817 383.065 164.003C381.48 164.291 379.444 163.735 377.489 164.38C377.154 164.495 375.674 165.559 374.566 164.623C374.392 164.476 374.77 163.934 374.162 163.835C371.355 163.365 368.341 163.549 365.436 162.959C364.429 162.753 365.015 161.88 363.973 161.563C363.229 161.336 361.925 161.074 360.803 161.061C360.369 161.057 359.964 161.094 359.638 161.189C358.497 161.523 359.608 163.061 357.926 163.052C350.604 163.012 343.472 161.574 336.241 160.836C335.165 160.726 335.998 161.319 334.429 161.195C328.581 160.737 318.473 160.335 313.526 158.785C309.553 157.543 314.695 157.326 311.648 156.693C310.179 156.389 308.408 157.925 308.041 157.946C304.471 158.168 302.082 157.203 298.904 157.148C298.247 157.137 298.826 157.876 298.268 157.859C296.36 157.807 294.37 157.321 292.561 157.215C291.745 157.169 291.848 157.703 291.102 157.596C289.313 157.344 287.741 156.983 286.042 156.34C285.887 156.281 287.018 155.73 285.694 155.587C283.547 155.358 280.923 154.64 278.409 154.918C277.661 155.002 277.528 156.189 276.019 155.228C275.702 155.027 276.251 153.636 274.31 154.708C273.985 154.886 270.754 156.279 269.33 155.074C268.957 154.756 268.043 153.499 267.145 153.606C267.023 153.624 267.446 154.305 266.711 154.304C264.115 154.288 261.425 153.987 258.762 153.96C258.051 153.954 259.047 154.706 257.988 154.676C255.079 154.596 251.479 154.121 248.668 153.679C247.632 153.514 248.398 153.026 248.328 152.96C247.188 151.889 246.357 153.138 245.945 153.181C243.384 153.429 241.52 152.657 239.183 152.632C238.538 152.623 238.942 153.284 238.81 153.33C237.443 153.767 238.519 152.725 237.691 152.534C235.373 151.995 232.753 151.837 230.374 151.732C229.499 151.694 230.423 152.494 229.639 152.452C225 152.215 220.197 151.783 215.707 151.054C214.862 150.916 215.437 150.397 215.269 150.257C214.111 149.276 212.235 150.364 211.816 150.451C209.902 150.847 209.208 150.302 207.548 150.28C199.435 150.175 189.486 149.221 181.87 148.604C176.854 148.196 172.393 147.774 168.018 147.429C163.7 147.091 159.465 146.826 154.778 146.734C154.173 146.722 154.758 147.486 154.236 147.485C147.532 147.438 140.953 146.977 134.222 147.071C133.674 147.078 134.45 147.797 133.572 147.831C131.739 147.906 129.453 147.833 127.626 147.585C126.726 147.465 127.942 146.875 127.037 146.767C124.925 146.514 122.709 146.443 120.532 146.54C119.614 146.583 120.992 147.314 119.801 147.315C111.686 147.334 103.732 147.481 95.5032 146.651C94.9402 146.594 94.4256 145.135 93.2437 145.433C93.1603 145.841 93.1722 146.319 93.1396 146.755C81.3202 147.162 69.6193 146.989 57.7518 147.417C57.2531 147.435 58.1466 148.174 57.1835 148.213C51.6059 148.443 46.1595 148.929 40.4078 148.476C39.8425 148.432 40.0633 147.05 38.3816 147.353C38.0931 147.407 35.5714 147.735 34.9432 148.07C34.8588 148.12 35.3492 148.73 34.55 148.796C32.7795 148.937 30.9719 149.05 29.2024 149.129C26.1693 149.264 23.0976 149.311 20.1213 149.264C19.3568 149.251 20.119 148.519 19.5773 148.503C15.7046 148.403 11.588 149.206 7.93553 148.911C5.52519 148.72 6.27711 147.47 4.89703 146.459C4.67996 146.313 3.29945 146.482 3.13552 145.845C2.5801 144.228 3.05261 142.259 2.40841 140.544C2.30888 140.373 1.72634 140.441 0.810604 140.686C0.595278 140.744 0.37695 140.815 0.245935 140.843C0.114996 140.871 0.0604518 140.857 0.0290611 140.817C-0.0197177 140.741 -0.0992054 140.565 0.668394 140.036C0.712125 140.005 0.975339 139.884 1.27532 139.764C1.55557 139.647 1.87836 139.525 2.15353 139.412C2.72716 139.183 3.19852 138.965 3.40347 138.777C3.65652 138.523 3.05111 137.91 3.61033 137.556C4.16171 137.206 4.84028 137.708 5.71036 137.291C6.58954 136.872 6.12887 136.129 7.88808 135.885ZM478.996 149.389C477.5 149.133 477.951 151.491 479.226 150.537C479.288 150.488 479.073 149.401 478.996 149.389ZM632.341 88.5611C630.278 88.36 629.83 90.2804 631.314 90.4881C632.798 90.6942 632.969 88.621 632.341 88.5611ZM648.722 80.0021C646.482 80.1415 647.637 83.3489 649.361 81.7738C649.462 81.6831 648.852 79.9937 648.722 80.0021ZM10.8456 145.584C10.8393 145.552 9.71988 145.61 9.70985 145.643C9.19205 146.447 11.3734 146.334 10.8456 145.584ZM664.9 71.3737C664.116 71.2401 662.657 72.524 663.631 72.6913C664.415 72.8258 665.877 71.5397 664.9 71.3737ZM408.378 158.312C408.357 158.277 407.563 158.254 407.58 158.455C407.642 159.104 408.745 158.908 408.378 158.312ZM692.946 57.8743C688.748 59.7512 685.018 58.4344 689.671 56.5486C690.513 56.2069 688.295 58.2016 689.446 57.9289C691.55 57.4281 692.048 55.2357 694.401 55.1505C694.828 55.1369 693.188 57.7729 692.941 57.8813C692.943 57.879 692.944 57.8766 692.946 57.8743ZM477.458 146.837C477.422 146.814 476.366 147.079 476.35 147.116C475.985 148.007 478.117 147.473 477.458 146.837ZM362.459 155.029C362.433 154.995 361.866 154.924 361.253 154.862C360.577 154.793 359.842 154.737 359.796 154.767C359.043 155.379 360.158 155.81 361.18 155.86C362.096 155.906 362.94 155.669 362.459 155.029ZM546.413 121.416C547.245 120.268 548.53 119.663 549.765 120.205C548.648 120.594 547.54 121.023 546.413 121.416Z" fill="white"/>
<path d="M67.3773 104.947C71.0687 104.469 75.8626 104.415 79.4838 104.518C80.6525 104.547 80.0742 105.004 80.8595 105.045C82.4304 105.123 83.8224 104.84 85.3358 104.955C85.8468 104.995 85.2498 105.7 85.7868 105.726C85.9015 105.732 86.0165 105.736 86.1318 105.74C88.895 105.845 91.5001 105.557 94.3171 105.556C108.751 105.55 122.887 105.31 137.478 105.351C142.287 105.363 148.147 105.899 153.093 105.601C153.677 105.565 153.325 104.978 153.436 104.929C155.155 104.174 154.585 105.368 155.712 105.521C160.204 106.123 165.171 106.181 169.482 105.977C171.316 105.89 169.482 104.707 171.331 105.377C171.459 105.422 170.987 106.045 171.492 106.115C172.649 106.273 174.781 106.179 175.675 106.238C177.389 106.355 177.661 106.352 179.268 106.379C181.477 106.422 184.074 106.773 186.45 106.674C186.958 106.651 186.298 105.997 187.11 105.902C187.916 105.808 190.033 105.904 190.753 106.071C191.47 106.238 191.152 106.736 191.277 106.854C192.318 107.852 194.784 106.558 195.108 106.533C200.902 106.105 205.839 107.028 211.251 107.221C212.16 107.253 213.087 107.275 214.023 107.291C217.281 107.348 220.646 107.342 223.69 107.506C228.352 107.762 232.275 108.305 236.814 108.485C237.291 108.504 236.773 107.721 237.355 107.744C243.56 107.986 249.702 108.425 255.839 109.314C256.453 109.404 255.616 110.016 256.228 110.145C259.978 110.921 265.868 112.614 268.301 109.885C270.853 110.167 273.954 110.493 276.203 111.231C277.654 111.706 276.171 112.327 278.005 112.145C278.418 112.105 277.93 111.437 278.547 111.425C281.146 111.373 283.95 111.776 286.529 111.633C287.053 111.602 286.952 111.027 287.106 110.936C288.402 110.2 290.362 111.71 290.805 111.842C294.17 112.827 296.687 112.72 299.867 112.973C300.604 113.032 299.788 112.209 300.5 112.239C304.198 112.403 308.01 112.755 311.592 113.365C312.387 113.502 311.602 114.093 311.979 114.191C313.64 114.619 314.119 113.427 315.72 113.814C316.057 113.894 315.823 114.433 315.88 114.499C316.784 115.527 317.732 114.24 317.984 114.229C321.202 114.065 323.101 115.629 326.199 115.667C326.569 115.67 325.794 114.906 326.829 114.957C333.716 115.292 340.967 116.047 347.724 117.126C348.778 117.294 347.98 117.761 348.042 117.831C349.052 118.927 349.855 117.624 350.202 117.599C352.937 117.437 355.41 118.769 357.368 117.29C368.35 118.654 379.354 118.648 390.178 120.522C390.69 120.609 391.198 120.701 391.702 120.796C391.847 120.821 391.545 121.475 391.834 121.523C395.277 122.108 394.699 121.028 397.071 119.888C397.661 119.602 399.341 121.235 399.5 121.356C400.052 121.802 399.402 122.765 399.59 122.856C401.152 123.572 401.037 120.265 403.179 120.372C403.246 120.381 402.933 120.973 403.111 121.042C403.663 121.26 404.227 121.046 404.758 121.281C405.961 121.822 406.35 123.446 408.295 122.598C408.541 122.487 408.252 120.604 410.141 120.771C410.92 120.842 414.246 120.935 415.194 121.085C416.124 121.236 415.463 121.818 415.529 121.846C418.012 122.721 417.073 123.022 418.307 124.237C419.545 125.446 419.263 122.633 419.781 122.333C420.314 122.035 422.164 122.731 422.605 122.967C423.052 123.204 422.483 123.577 422.881 123.713C425.586 124.602 424.093 122.34 424.986 121.908C427.071 120.879 428.668 122.967 430.604 123.166C431.12 123.22 430.698 122.747 431.155 122.701C432.978 122.523 434.066 123.161 436.147 122.525C436.482 122.423 438.125 121.134 439.229 122.016C439.385 122.143 438.969 122.675 439.743 122.766C440.918 122.902 443.007 122.928 444.247 122.688C445.155 122.512 444.058 121.716 445.227 121.917C445.75 122.006 444.82 122.56 445.802 122.685C446.774 122.812 449.234 122.622 450.163 122.528C451.098 122.436 450.533 121.831 450.605 121.781C451.043 121.497 452.789 121.03 452.948 121.014C460.84 120.205 468.294 120.147 475.878 118.313C476.473 118.169 475.943 117.576 476.033 117.548C478.036 116.863 476.764 118.965 478.317 119.276C477.904 118.136 478.513 118.042 479.611 117.747C479.78 117.702 479.961 117.651 480.152 117.591C480.831 117.376 480.345 116.928 480.397 116.861C481.261 115.85 482.2 116.728 482.426 116.9C483.27 117.532 483.821 116.457 484.4 116.873C484.977 117.286 484.074 118.279 485.452 117.97C485.734 117.401 484.434 116.357 485.436 115.924C489.226 114.297 496.806 113.544 500.003 112.842C503.18 112.156 504.179 111.8 506.061 111.496C509.461 110.94 507.997 110.329 509.938 109.356C511.889 108.376 511.499 110.931 511.929 111.342C512.352 111.755 512.532 111.164 512.968 111.335C513.403 111.506 512.71 112.053 513.59 111.923C514.479 111.79 516.548 110.28 516.712 109.681C517.046 108.417 515.688 107.57 518.031 107.345C518.166 107.332 517.917 108.049 518.427 107.971C522.473 107.33 526.543 106.177 530.562 105.416C531.115 105.312 530.834 106.119 531.159 106.066C534.542 105.51 533.035 104.744 534.439 102.961C534.545 104.732 535.831 105.448 538.303 104.694C539.789 104.241 539.305 103.601 540.103 102.796C540.341 102.554 541.546 102.718 541.629 102.32C541.903 101.019 540.529 100.094 543.211 99.787C543.329 99.7751 543.167 100.492 543.563 100.407C546.114 99.8587 546.048 98.6074 548.663 97.6065C550.729 96.8168 554.659 96.3014 557.082 95.6157C557.651 97.4717 559.748 96.2997 560.234 94.7219C561.791 94.2533 563.434 93.6129 564.977 93.2778C565.508 93.1618 565.355 93.8084 565.439 93.8436C566.738 94.4037 566.985 92.9408 567.301 92.7773C569.805 91.526 572.213 91.1353 574.547 90.182C575.402 89.8325 576.248 89.406 577.083 88.8311C577.193 88.7551 576.939 87.4148 578.181 88.0143C578.264 88.0569 577.344 89.0387 578.965 88.507C580.588 87.9746 583.866 87.5547 585.881 86.1498C586.367 85.8116 587.353 84.2833 588.743 84.6807C588.929 84.7359 588.904 85.1573 589.188 85.2815C590.105 85.6733 590.002 84.2586 591.204 85.0467C592.41 85.8333 594.371 86.0292 596.341 84.4362C596.406 84.387 596.554 83.1779 597.264 82.9286C598.398 82.5319 600.079 82.1362 601.247 81.6849C601.808 81.4679 601.21 80.9778 601.303 80.9292C604.948 79.1404 607.843 78.6693 611.977 77.3461C612.734 77.1053 614.531 75.4258 616.223 75.5409C618.082 75.6637 617.672 79.3606 620.997 77.2144C622.345 76.348 622.651 71.7401 626.065 72.7159C630.938 70.2098 636.034 69.365 640.822 66.6117C641.037 66.4886 641.322 65.1174 641.864 64.916C642.669 64.6191 643.31 64.9477 643.892 64.7511C646.333 63.9422 648.338 62.6267 650.658 61.7626C651.539 61.433 651.448 62.0781 652.498 61.6851C653.546 61.292 653.958 60.3237 655.501 60.0816C656.666 59.9014 658.298 60.873 659.776 60.4599C659.265 59.0533 660.244 58.6868 661.814 57.618C662.115 57.4118 661.564 57.0752 661.696 56.9528C662.231 56.4441 662.985 56.6017 663.478 56.084C663.598 55.959 663.411 55.4836 663.499 55.3547C664.233 54.241 666.353 54.6134 666.718 54.6796C668.115 54.9275 668.378 54.1013 669.342 54.029C670.304 53.9572 669.177 54.8241 670.237 54.5848C672.435 54.088 675.043 52.9257 677.135 52.0897C677.969 51.7529 677.142 51.3563 677.255 51.2934C678.911 50.4245 680.924 50.3787 681.361 48.7299C683.892 51.4839 682.269 47.9872 684.994 47.6233C685.21 47.5959 686.089 49.0291 685.439 49.5612C684.788 50.0931 683.465 50.0776 682.576 50.8548C682.366 51.0381 681.559 53.0534 681.405 53.2192C680.191 54.5159 679.032 52.3101 678.901 52.2166C677.442 51.2269 676.371 53.4806 675.966 53.7728C674.104 55.1132 672.224 55.5086 670.641 56.5685C669.606 57.2582 670.113 58.8068 669.21 59.1241C666.199 60.1818 664.314 58.5036 662.281 61.4594C661.844 62.091 663.111 63.4924 660.446 63.0726C660.278 63.046 658.21 62.5102 657.602 63.6312C657.525 63.7724 657.725 64.2502 657.589 64.3524C656.677 65.0281 655.843 64.9226 654.81 65.5561C653.78 66.1885 652.553 67.0052 651.223 67.3553C650.422 67.5671 649.08 67.0702 648.626 66.9994C647.339 66.7869 646.653 68.2676 645.706 67.7616C644.751 67.2545 645.54 65.5797 643.649 65.7665C644.09 67.039 644.463 68.3772 644.869 69.6721C641.149 71.1222 637.334 72.1857 633.634 73.7258C633.175 73.9182 633.916 74.4013 633.431 74.6249C631.387 75.5635 629.366 75.812 627.277 76.8593C625.653 77.676 624.099 79.1116 622.406 79.9838C620.771 78.9727 618.349 80.4826 616.405 81.0883C615.723 81.3016 615.617 80.9017 615.095 80.9606C613.131 81.1915 614.46 82.1343 614.048 82.5237C612.284 84.1866 610.984 81.3893 608.543 82.4102C608.416 82.4625 607.394 84.6122 607.21 84.7919C606.044 85.9519 606.773 84.3477 605.852 84.5704C604.171 84.9752 602.908 85.0369 601.199 86.1985C600.698 86.5405 599.736 87.9972 598.391 87.6581C598.214 87.614 598.101 87.0772 597.977 87.0899C595.741 87.3643 596.283 88.98 595.314 89.9584C594.346 90.9363 592.114 90.5093 591.631 90.3265C590.363 89.8605 592.239 89.7016 592.262 89.601C592.519 88.4129 591.259 89.0691 590.222 89.3594C589.497 87.8463 588.118 88.4612 589.144 89.6686C589.259 89.7997 589.993 89.3629 590.222 89.3594C589.901 91.2261 588.418 91.9963 586.174 91.1847C585.124 90.8035 585.594 89.7424 583.262 90.9159C582.204 91.4465 583.02 92.3745 582.147 93.0238C580.596 94.1765 578.259 94.454 576.247 94.9752C575.67 95.1253 575.118 95.2953 574.618 95.5117C573.799 95.8656 574.826 96.1713 574.273 96.4336C572.814 97.1285 571.298 97.1582 569.852 97.9163C569.722 97.9859 570.276 98.4913 569.804 98.6641C566.205 99.9926 562.913 100.67 559.122 101.926C557.284 102.537 554.122 103.964 552.195 104.514C548.864 105.472 544.497 105.858 541.743 106.962C539.942 107.681 540.547 108.182 539.887 108.857C538.608 110.167 535.446 109.5 535.01 109.379C534.996 109.376 536.546 108.741 535.596 108.677C534.896 108.152 535.028 109.371 535.01 109.379C534.729 109.303 531.498 110.12 530.906 110.426C530.583 110.594 530.953 111.136 530.781 111.212C526.679 113.015 522.428 114.406 517.995 115.335C517.914 115.344 517.843 114.639 517.657 114.669C515.059 115.066 513.674 116.328 511.711 117.379C509.765 118.425 508.05 118.697 506.515 117.855C504.975 118.41 502.575 118.471 501.202 118.481C499.814 118.494 499.962 119.858 499.852 119.912C496.466 121.628 494.203 121.366 490.437 122.099C488.649 122.447 485.144 123.416 483.244 123.962C482.362 124.218 481.662 124.282 480.965 124.386C480.454 124.462 479.945 124.558 479.371 124.76C479.186 124.825 479.497 125.38 479.444 125.415C478.01 126.438 478.475 124.836 478.099 124.64C476.725 123.929 475.91 123.568 473.965 124.386C473.524 124.573 472.521 126.921 471.682 127.192C470.583 127.542 470.879 126.717 469.736 127.096C469.637 127.128 469.738 127.59 469.005 127.688C465.609 128.152 461.865 128.404 458.324 128.856C457.839 128.915 458.547 129.588 457.845 129.686C454.555 130.146 450.923 130.433 447.684 130.29C446.892 130.252 447.352 129.698 447.172 129.554C446.068 128.682 444.653 130.126 444.41 130.163C438.54 131.109 434.045 129.947 428.121 130.519C427.807 130.554 425.287 132 424.204 130.726C424.135 130.642 423.029 129.34 422.071 130.2C422.01 130.254 422.676 130.929 421.493 130.839C420.293 130.748 418.39 131.144 416.758 130.368C416.229 130.123 415.097 128.806 413.501 129.772C413.378 129.84 410.959 132.064 410.154 130.434C410.034 130.166 410.209 128.486 408.376 129.274C408.02 129.426 408.637 129.83 407.708 130.025C406.263 130.324 404.442 129.786 402.651 130.449C402.328 130.566 400.999 131.646 400.013 130.723C399.859 130.578 400.196 130.032 399.654 129.94C397.058 129.498 394.316 129.718 391.746 129.171C390.822 128.978 391.356 128.098 390.392 127.794C390.207 127.735 389.983 127.675 389.736 127.618C388.736 127.38 387.317 127.201 386.469 127.483C385.422 127.833 386.436 129.354 384.908 129.371C378.281 129.443 371.813 128.129 365.251 127.523C364.283 127.433 365.051 128.011 363.616 127.915C358.315 127.564 349.149 127.357 344.638 125.903C341.04 124.74 345.708 124.423 342.93 123.849C341.589 123.574 339.978 125.143 339.655 125.171C336.433 125.465 334.253 124.547 331.367 124.554C330.769 124.556 331.3 125.283 330.791 125.277C329.041 125.261 327.272 124.819 325.613 124.747C324.869 124.717 324.966 125.248 324.286 125.155C322.658 124.94 321.249 124.611 319.693 124.001C319.552 123.945 320.579 123.372 319.373 123.256C317.413 123.068 315.052 122.404 312.758 122.73C312.078 122.829 311.965 124.018 310.599 123.087C310.312 122.893 310.804 121.492 309.044 122.601C308.749 122.785 305.817 124.24 304.53 123.064C304.189 122.754 303.352 121.515 302.537 121.639C302.426 121.66 302.814 122.332 302.145 122.345C299.785 122.379 297.354 122.131 294.931 122.155C294.286 122.163 295.191 122.894 294.233 122.885C291.599 122.861 288.326 122.455 285.775 122.065C284.833 121.919 285.527 121.418 285.462 121.353C284.423 120.303 283.674 121.567 283.301 121.618C280.982 121.914 279.284 121.176 277.164 121.193C276.579 121.196 276.948 121.85 276.829 121.898C275.591 122.359 276.562 121.299 275.811 121.123C273.705 120.626 271.328 120.515 269.168 120.451C268.375 120.429 269.216 121.213 268.505 121.184C264.298 121.03 259.937 120.679 255.86 120.025C255.093 119.901 255.613 119.373 255.46 119.236C254.408 118.275 252.708 119.393 252.326 119.486C250.592 119.912 249.962 119.379 248.458 119.383C241.096 119.407 232.07 118.597 225.16 118.077C221 117.764 217.275 117.428 213.645 117.146C209.36 116.814 205.221 116.553 200.573 116.495C200.026 116.487 200.556 117.246 200.085 117.25C194.001 117.257 188.026 116.838 181.934 116.962C181.43 116.971 182.145 117.687 181.337 117.725C179.672 117.809 177.627 117.745 175.944 117.502C175.13 117.386 176.229 116.792 175.41 116.687C173.508 116.441 171.473 116.375 169.513 116.477C168.682 116.522 169.93 117.25 168.852 117.253C161.502 117.287 154.262 117.433 146.812 116.583C146.3 116.525 145.846 115.064 144.761 115.359C144.684 115.767 144.695 116.246 144.664 116.681C133.957 117.054 123.321 116.811 112.568 117.129C112.117 117.143 112.923 117.89 112.053 117.92C107.001 118.098 102.039 118.525 96.8339 118.002C96.3286 117.951 96.5104 116.574 94.9955 116.855C94.7399 116.905 92.4399 117.202 91.8767 117.528C91.8003 117.577 92.2419 118.193 91.5195 118.248C89.9514 118.364 88.3686 118.45 86.8119 118.504C84.0131 118.603 81.1702 118.609 78.4245 118.517C77.7336 118.492 78.4246 117.772 77.9351 117.749C74.42 117.591 70.6812 118.331 67.366 117.966C65.179 117.725 65.865 116.492 64.6166 115.449C64.421 115.299 63.1588 115.426 63.0146 114.781C62.5271 113.146 62.9681 111.203 62.4005 109.467C62.3097 109.291 61.7938 109.344 60.9683 109.518C60.7715 109.56 60.5722 109.611 60.449 109.629C60.3272 109.646 60.2768 109.627 60.2488 109.585C60.2027 109.505 60.1441 109.329 60.8484 108.865C60.8856 108.838 61.1251 108.737 61.3922 108.635C61.6449 108.536 61.93 108.43 62.1791 108.329C62.6945 108.123 63.1204 107.919 63.3064 107.737C63.5359 107.491 62.9934 106.862 63.4992 106.524C63.9981 106.189 64.6093 106.707 65.3989 106.309C66.1947 105.909 65.7808 105.158 67.3773 104.947ZM494.989 118.513C493.629 118.163 493.998 120.534 495.178 119.667C495.235 119.622 495.059 118.529 494.989 118.513ZM636.685 70.4985C634.792 70.1198 634.344 71.9696 635.704 72.3039C637.064 72.6367 637.261 70.6122 636.685 70.4985ZM651.922 63.5161C649.86 63.4557 650.861 66.7113 652.477 65.3146C652.572 65.2344 652.043 63.5193 651.922 63.5161ZM70.0224 114.694C70.0185 114.662 68.9992 114.701 68.9917 114.733C68.5186 115.527 70.499 115.453 70.0224 114.694ZM666.981 56.4591C666.261 56.2583 664.894 57.3913 665.787 57.642C666.506 57.8436 667.877 56.7087 666.981 56.4591ZM430.658 124.334C430.639 124.298 429.922 124.268 429.936 124.469C429.987 125.118 430.984 124.933 430.658 124.334ZM693.062 45.6732C689.16 47.1459 685.751 45.5205 690.071 44.0796C690.853 43.8185 688.773 45.5824 689.837 45.4164C691.784 45.1107 692.285 42.9999 694.454 43.1248C694.847 43.1493 693.286 45.595 693.056 45.6796C693.058 45.6775 693.06 45.6753 693.062 45.6732ZM493.632 115.88C493.6 115.856 492.632 116.052 492.616 116.088C492.268 116.95 494.221 116.554 493.632 115.88ZM389.015 121.284C388.97 121.214 386.679 121.005 386.594 121.061C385.315 122.224 389.954 122.652 389.015 121.284ZM557.136 95.6522C557.915 94.5856 559.103 94.0906 560.229 94.7225C559.193 95.0194 558.172 95.355 557.136 95.6522Z" fill="#A85F5F"/>
</svg>
