<svg width="695" height="167" viewBox="0 0 695 167" fill="none" xmlns="http://www.w3.org/2000/svg">
<path d="M98.1176 36.208H85.3496V31.312C85.3496 30.8 85.1576 30.352 84.7736 29.968C84.4536 29.584 84.0376 29.392 83.5256 29.392H78.2456C77.7336 29.392 77.2856 29.584 76.9016 29.968C76.5816 30.352 76.4216 30.8 76.4216 31.312V42.352C76.4216 42.864 76.5816 43.312 76.9016 43.696C77.2856 44.08 77.7336 44.272 78.2456 44.272H86.8856C94.8216 44.4 98.7896 48.624 98.7896 56.944V70.288C98.7896 78.736 94.8216 82.96 86.8856 82.96H75.5576C67.6216 82.96 63.6536 78.736 63.6536 70.288V63.856H76.4216V70.768C76.4216 71.28 76.5816 71.728 76.9016 72.112C77.2856 72.496 77.7336 72.688 78.2456 72.688H84.1976C84.7096 72.688 85.1256 72.496 85.4456 72.112C85.8296 71.728 86.0216 71.28 86.0216 70.768V58.576C86.0216 58.064 85.8296 57.616 85.4456 57.232C85.1256 56.848 84.7096 56.656 84.1976 56.656H75.5576C67.6216 56.656 63.6536 52.432 63.6536 43.984V31.6C63.6536 23.152 67.6216 18.928 75.5576 18.928H86.2136C94.1496 18.928 98.1176 23.152 98.1176 31.6V36.208ZM129.894 34.192C137.83 34.192 141.798 38.416 141.798 46.864V62.032H120.006V71.824C120.006 72.336 120.166 72.784 120.486 73.168C120.87 73.552 121.318 73.744 121.83 73.744H127.11C127.622 73.744 128.038 73.552 128.358 73.168C128.742 72.784 128.934 72.336 128.934 71.824V66.64H141.798V70.288C141.798 78.736 137.83 82.96 129.894 82.96H119.046C111.11 82.96 107.142 78.736 107.142 70.288V46.864C107.142 38.416 111.11 34.192 119.046 34.192H129.894ZM120.006 53.584H128.934V44.944C128.934 44.432 128.742 43.984 128.358 43.6C128.038 43.216 127.622 43.024 127.11 43.024H121.83C121.318 43.024 120.87 43.216 120.486 43.6C120.166 43.984 120.006 44.432 120.006 44.944V53.584ZM165.949 74.608H169.789V82.96H160.765C152.829 82.96 148.861 78.736 148.861 70.288V24.976H161.725V35.152H169.789V44.464H161.725V70C161.725 71.792 162.077 73.008 162.781 73.648C163.485 74.288 164.541 74.608 165.949 74.608ZM220.596 19.888C228.532 19.888 232.5 24.112 232.5 32.56V44.944C232.5 53.392 228.532 57.616 220.596 57.616H209.748V82H196.308V19.888H220.596ZM219.06 46.48V31.024C219.06 30.512 218.868 30.064 218.484 29.68C218.164 29.296 217.748 29.104 217.236 29.104H209.748V48.4H217.236C217.748 48.4 218.164 48.208 218.484 47.824C218.868 47.44 219.06 46.992 219.06 46.48ZM262.575 35.152H273.423V82H262.575V78.544C260.591 81.488 257.295 82.96 252.687 82.96H250.671C242.735 82.96 238.767 78.736 238.767 70.288V46.864C238.767 38.416 242.735 34.192 250.671 34.192H252.687C257.295 34.192 260.591 35.664 262.575 38.608V35.152ZM260.559 71.824V45.328C260.559 44.816 260.367 44.368 259.983 43.984C259.663 43.6 259.247 43.408 258.735 43.408H253.455C252.943 43.408 252.495 43.6 252.111 43.984C251.791 44.368 251.631 44.816 251.631 45.328V71.824C251.631 72.336 251.791 72.784 252.111 73.168C252.495 73.552 252.943 73.744 253.455 73.744H258.735C259.247 73.744 259.663 73.552 259.983 73.168C260.367 72.784 260.559 72.336 260.559 71.824ZM304.254 52.624C312.19 52.624 316.158 56.848 316.158 65.296V70.288C316.158 78.736 312.19 82.96 304.254 82.96H293.598C285.662 82.96 281.694 78.736 281.694 70.288V67.312H293.598V71.536C293.598 72.048 293.758 72.496 294.078 72.88C294.462 73.264 294.91 73.456 295.422 73.456H303.294C303.806 73.456 304.222 73.264 304.542 72.88C304.926 72.496 305.118 72.048 305.118 71.536V65.776C305.118 65.264 304.926 64.816 304.542 64.432C304.222 64.048 303.806 63.856 303.294 63.856H293.406C285.47 63.856 281.502 59.632 281.502 51.184V46.864C281.502 38.416 285.47 34.192 293.406 34.192H303.486C311.422 34.192 315.39 38.416 315.39 46.864V48.592H303.486V45.616C303.486 45.104 303.294 44.656 302.91 44.272C302.59 43.888 302.174 43.696 301.662 43.696H294.366C293.854 43.696 293.406 43.888 293.022 44.272C292.702 44.656 292.542 45.104 292.542 45.616V50.704C292.542 51.216 292.702 51.664 293.022 52.048C293.406 52.432 293.854 52.624 294.366 52.624H304.254ZM345.785 52.624C353.721 52.624 357.689 56.848 357.689 65.296V70.288C357.689 78.736 353.721 82.96 345.785 82.96H335.129C327.193 82.96 323.225 78.736 323.225 70.288V67.312H335.129V71.536C335.129 72.048 335.289 72.496 335.609 72.88C335.993 73.264 336.441 73.456 336.953 73.456H344.825C345.337 73.456 345.753 73.264 346.073 72.88C346.457 72.496 346.649 72.048 346.649 71.536V65.776C346.649 65.264 346.457 64.816 346.073 64.432C345.753 64.048 345.337 63.856 344.825 63.856H334.937C327.001 63.856 323.033 59.632 323.033 51.184V46.864C323.033 38.416 327.001 34.192 334.937 34.192H345.017C352.953 34.192 356.921 38.416 356.921 46.864V48.592H345.017V45.616C345.017 45.104 344.825 44.656 344.441 44.272C344.121 43.888 343.705 43.696 343.193 43.696H335.897C335.385 43.696 334.937 43.888 334.553 44.272C334.233 44.656 334.073 45.104 334.073 45.616V50.704C334.073 51.216 334.233 51.664 334.553 52.048C334.937 52.432 335.385 52.624 335.897 52.624H345.785ZM386.548 35.152H398.836L405.844 71.536L411.316 35.152H423.796L413.524 82H397.972L392.692 53.104L387.412 82H371.86L361.588 35.152H374.068L379.54 71.536L386.548 35.152ZM463.455 46.864V70.288C463.455 78.736 459.487 82.96 451.551 82.96H440.703C432.767 82.96 428.799 78.736 428.799 70.288V46.864C428.799 38.416 432.767 34.192 440.703 34.192H451.551C459.487 34.192 463.455 38.416 463.455 46.864ZM450.591 72.976V44.08C450.591 43.568 450.399 43.12 450.015 42.736C449.695 42.352 449.279 42.16 448.767 42.16H443.487C442.975 42.16 442.527 42.352 442.143 42.736C441.823 43.12 441.663 43.568 441.663 44.08V72.976C441.663 73.488 441.823 73.936 442.143 74.32C442.527 74.704 442.975 74.896 443.487 74.896H448.767C449.279 74.896 449.695 74.704 450.015 74.32C450.399 73.936 450.591 73.488 450.591 72.976ZM492.173 34.192H494.669V46.672H488.333C486.157 46.672 485.069 47.792 485.069 50.032V82H472.205V35.152H483.917V39.664C485.773 36.016 488.525 34.192 492.173 34.192ZM514.344 34.192C517.608 34.192 520.232 34.96 522.216 36.496V19.888H535.08V82H524.232V78.544C522.248 81.488 518.952 82.96 514.344 82.96H512.328C504.392 82.96 500.424 78.736 500.424 70.288V46.864C500.424 38.416 504.392 34.192 512.328 34.192H514.344ZM522.216 71.824V45.328C522.216 44.816 522.024 44.368 521.64 43.984C521.32 43.6 520.904 43.408 520.392 43.408H515.112C514.6 43.408 514.152 43.6 513.768 43.984C513.448 44.368 513.288 44.816 513.288 45.328V71.824C513.288 72.336 513.448 72.784 513.768 73.168C514.152 73.552 514.6 73.744 515.112 73.744H520.392C520.904 73.744 521.32 73.552 521.64 73.168C522.024 72.784 522.216 72.336 522.216 71.824Z" fill="white"/>
<path d="M7.88796 136.885C11.9569 136.331 17.2541 136.197 21.242 136.243C22.5259 136.254 21.8897 136.721 22.7588 136.749C24.4854 136.803 26.0184 136.498 27.6966 136.59C28.2625 136.622 27.6036 137.336 28.1983 137.354C28.2688 137.356 28.3393 137.358 28.4099 137.36C31.5211 137.438 34.4409 137.101 37.6005 137.061C53.5104 136.855 69.117 136.48 85.2023 136.453C90.5091 136.441 96.9554 136.96 102.436 136.656C103.068 136.62 102.687 136.033 102.807 135.984C104.697 135.227 104.075 136.422 105.32 136.573C110.261 137.173 115.769 137.234 120.508 137.041C122.538 136.957 120.509 135.77 122.554 136.444C122.696 136.49 122.173 137.112 122.732 137.183C123.978 137.344 126.36 137.258 127.343 137.32C129.233 137.443 129.52 137.441 131.302 137.475C133.755 137.528 136.593 137.891 139.231 137.807C139.783 137.787 139.066 137.129 139.949 137.039C140.832 136.949 143.18 137.06 143.975 137.232C144.768 137.404 144.415 137.899 144.554 138.019C145.678 139.023 148.418 137.748 148.774 137.726C155.153 137.343 160.625 138.315 166.577 138.568C167.197 138.595 167.823 138.617 168.455 138.637C172.419 138.76 176.562 138.781 180.297 139.011C185.423 139.33 189.764 139.933 194.756 140.184C195.282 140.211 194.713 139.419 195.356 139.451C202.201 139.792 208.971 140.338 215.73 141.338C216.407 141.439 215.481 142.036 216.155 142.177C220.288 143.021 226.769 144.826 229.466 142.144C232.28 142.475 235.694 142.862 238.17 143.645C239.767 144.149 238.129 144.741 240.152 144.596C240.608 144.564 240.073 143.886 240.753 143.886C243.616 143.886 246.71 144.347 249.549 144.257C250.127 144.237 250.018 143.659 250.188 143.571C251.617 142.862 253.778 144.414 254.262 144.555C257.96 145.61 260.744 145.557 264.242 145.877C265.057 145.952 264.158 145.111 264.945 145.156C269.019 145.4 273.224 145.834 277.162 146.521C278.042 146.676 277.169 147.25 277.587 147.357C279.428 147.821 279.949 146.639 281.709 147.06C282.08 147.148 281.819 147.682 281.882 147.748C282.866 148.796 283.928 147.53 284.207 147.525C287.748 147.43 289.852 149.039 293.252 149.142C293.657 149.153 292.81 148.372 293.947 148.446C301.537 148.932 309.525 149.844 316.968 151.069C318.122 151.258 317.246 151.71 317.313 151.781C318.414 152.899 319.298 151.611 319.69 151.594C322.741 151.493 325.41 152.873 327.604 151.437C338.828 152.918 350.209 153.207 361.323 154.895C362.71 155.103 364.072 155.33 365.409 155.58C365.566 155.608 365.237 156.257 365.549 156.309C369.41 156.949 368.69 155.855 371.334 154.748C372.005 154.471 373.849 156.125 374.009 156.247C374.604 156.699 373.902 157.656 374.104 157.749C375.808 158.483 375.746 155.177 378.07 155.306C378.142 155.315 377.804 155.905 377.995 155.976C378.583 156.198 379.213 155.99 379.807 156.231C381.171 156.786 381.536 158.411 383.707 157.58C383.977 157.471 383.672 155.586 385.749 155.767C386.568 155.843 390.259 155.955 391.308 156.108C392.344 156.263 391.611 156.842 391.684 156.87C394.444 157.753 393.363 158.05 394.751 159.268C396.134 160.479 395.807 157.665 396.381 157.365C396.936 157.067 399.005 157.762 399.494 157.996C399.991 158.232 399.362 158.606 399.805 158.742C402.767 159.622 401.127 157.365 402.106 156.929C404.383 155.89 406.175 157.966 408.307 158.145C408.878 158.193 408.407 157.726 408.913 157.674C410.91 157.475 412.126 158.098 414.411 157.427C414.78 157.318 416.571 155.999 417.799 156.856C417.973 156.98 417.522 157.522 418.376 157.595C419.672 157.706 421.977 157.678 423.337 157.401C424.335 157.197 423.109 156.435 424.405 156.6C424.982 156.673 423.969 157.255 425.051 157.35C426.121 157.448 428.826 157.172 429.852 157.04C430.878 156.912 430.245 156.328 430.324 156.276C430.797 155.976 432.715 155.436 432.887 155.413C441.556 154.268 449.745 153.761 458.037 151.449C458.689 151.268 458.094 150.706 458.192 150.672C458.537 150.544 458.794 150.49 458.99 150.492C460.019 150.501 459.292 152.083 460.733 152.264C460.178 150.972 461.179 150.991 462.713 150.456C463.455 150.196 462.912 149.778 462.968 149.707C463.901 148.636 464.94 149.458 465.194 149.616C466.132 150.196 466.718 149.078 467.36 149.459C467.997 149.837 467.028 150.894 468.534 150.492C468.832 149.902 467.385 148.939 468.476 148.437C472.603 146.553 480.889 145.269 484.376 144.331C487.84 143.411 488.923 142.979 490.98 142.534C494.683 141.723 493.079 141.213 495.178 140.09C497.292 138.955 496.919 141.557 497.397 141.939C497.867 142.323 498.052 141.714 498.531 141.853C499.01 141.993 498.265 142.596 499.222 142.398C500.188 142.199 502.426 140.516 502.589 139.901C502.926 138.603 501.432 137.852 503.986 137.444C504.133 137.421 503.876 138.162 504.431 138.044C508.841 137.084 513.263 135.598 517.636 134.505C518.236 134.356 517.947 135.192 518.3 135.113C521.987 134.275 520.322 133.626 521.815 131.714C521.962 133.494 523.399 134.105 526.068 133.145C527.68 132.564 527.146 131.956 527.995 131.078C528.249 130.815 529.562 130.882 529.646 130.473C529.919 129.136 528.415 128.312 531.322 127.782C531.45 127.76 531.29 128.497 531.718 128.378C534.5 127.606 534.379 126.357 537.226 125.117C539.442 124.152 543.748 123.279 546.353 122.383C547.007 124.212 549.284 122.838 549.77 121.204C551.463 120.591 553.224 119.805 554.907 119.326C555.486 119.16 555.332 119.828 555.424 119.856C556.853 120.307 557.083 118.808 557.424 118.615C559.379 117.539 561.264 116.928 563.124 116.224C564.782 115.598 566.422 114.895 567.989 113.743C568.106 113.656 567.796 112.325 569.165 112.818C569.255 112.853 568.271 113.932 570.03 113.244C571.784 112.558 575.341 111.833 577.5 110.226C578.027 109.836 579.06 108.201 580.579 108.475C580.782 108.514 580.764 108.943 581.076 109.042C582.082 109.354 581.947 107.928 583.266 108.617C584.583 109.306 586.74 109.314 588.832 107.523C588.899 107.468 589.037 106.228 589.806 105.909C591.037 105.397 592.84 104.846 594.108 104.276C594.714 104.003 594.053 103.562 594.153 103.504C598.067 101.354 601.216 100.597 605.669 98.8679C606.492 98.5491 608.395 96.6818 610.242 96.6342C612.265 96.5806 611.886 100.374 615.459 97.8771C616.901 96.8715 617.144 92.1653 620.861 92.8319C626.097 89.8233 631.608 88.4761 636.744 85.2197C636.975 85.0738 637.255 83.6545 637.839 83.3975C638.707 83.0183 639.412 83.2884 640.037 83.034C642.667 81.9771 644.812 80.4487 647.312 79.3451C648.263 78.9243 648.174 79.5896 649.304 79.0888C650.433 78.5879 650.862 77.5639 652.528 77.169C653.786 76.8738 655.579 77.7002 657.174 77.1368C656.589 75.7588 657.641 75.2926 659.322 74.0539C659.645 73.8151 659.039 73.5272 659.18 73.39C659.75 72.8213 660.57 72.908 661.093 72.335C661.22 72.1963 661.008 71.7319 661.1 71.5925C661.873 70.3901 664.18 70.5611 664.578 70.5927C666.095 70.7094 666.365 69.8439 667.408 69.6765C668.45 69.5096 667.246 70.4999 668.391 70.1534C670.761 69.4353 673.566 68.0001 675.816 66.9468C676.713 66.5232 675.808 66.2014 675.929 66.1265C677.707 65.0821 679.888 64.8394 680.326 63.1223C683.13 65.6709 681.295 62.2797 684.242 61.6435C684.475 61.5946 685.459 62.9639 684.765 63.5678C684.07 64.1716 682.636 64.2848 681.689 65.1611C681.465 65.3678 680.633 67.493 680.469 67.6764C679.18 69.112 677.878 66.9849 677.734 66.9029C676.131 66.0406 675.018 68.4337 674.584 68.77C672.594 70.3123 670.565 70.8973 668.871 72.128C667.763 72.9294 668.346 74.4522 667.372 74.8626C664.131 76.2295 662.054 74.7088 659.91 77.9083C659.45 78.5918 660.851 79.8925 657.955 79.724C657.772 79.7134 655.518 79.3711 654.881 80.5684C654.801 80.7192 655.027 81.1849 654.883 81.3017C653.912 82.0741 653.001 82.0499 651.895 82.7932C650.789 83.5363 649.481 84.4818 648.043 84.9673C647.177 85.2607 645.714 84.8849 645.22 84.857C643.819 84.7665 643.105 86.3361 642.067 85.9144C641.021 85.4915 641.839 83.7169 639.796 84.0874C640.302 85.3361 640.734 86.6581 641.202 87.9331C637.194 89.7659 633.081 91.2116 629.101 93.1288C628.607 93.3681 629.421 93.787 628.898 94.0607C626.695 95.212 624.515 95.6539 622.265 96.9186C620.53 97.8976 618.859 99.5093 617.048 100.551C615.246 99.6844 612.66 101.441 610.553 102.243C609.817 102.524 609.695 102.128 609.132 102.237C607.007 102.656 608.466 103.487 608.028 103.921C606.138 105.778 604.685 103.057 602.045 104.327C601.904 104.393 600.85 106.664 600.652 106.864C599.406 108.151 600.168 106.455 599.169 106.769C597.347 107.339 595.988 107.515 594.147 108.856C593.613 109.248 592.604 110.812 591.129 110.596C590.935 110.568 590.801 110.034 590.666 110.059C588.245 110.544 588.873 112.128 587.835 113.212C586.797 114.295 584.377 114.063 583.841 113.925C582.449 113.572 584.491 113.235 584.514 113.131C584.77 111.903 583.41 112.686 582.286 113.077C581.465 111.612 579.985 112.359 581.124 113.488C581.251 113.61 582.037 113.102 582.286 113.077C581.981 114.995 580.382 115.913 577.926 115.297C576.775 115.007 577.275 113.886 574.753 115.291C573.61 115.927 574.521 116.79 573.587 117.526C571.447 119.208 567.882 119.537 565.452 120.724C565.224 120.836 565.13 120.933 565.105 121.021C565.035 121.274 565.54 121.453 565.096 121.688C563.503 122.53 561.888 122.681 560.31 123.585C560.168 123.667 560.785 124.129 560.271 124.346C556.392 126.006 552.815 126.983 548.708 128.583C546.73 129.356 543.311 131.072 541.214 131.795C537.594 133.051 532.862 133.8 529.869 135.148C527.928 136.019 528.585 136.48 527.88 137.216C526.521 138.64 523.045 138.231 522.573 138.142C522.558 138.139 524.232 137.374 523.196 137.386C522.423 136.913 522.592 138.132 522.573 138.142C522.27 138.087 518.752 139.176 518.114 139.53C517.762 139.727 518.179 140.243 517.991 140.334C513.545 142.484 508.932 144.221 504.105 145.498C504.018 145.514 503.925 144.809 503.723 144.853C500.897 145.452 499.404 146.829 497.277 148.036C495.168 149.235 493.302 149.634 491.601 148.901C489.929 149.573 487.304 149.809 485.798 149.918C484.28 150.031 484.469 151.391 484.35 151.454C480.676 153.421 478.192 153.315 474.08 154.308C472.125 154.779 468.304 155.985 466.232 156.655C464.573 157.195 463.506 157.13 461.998 157.703C461.795 157.78 462.148 158.318 462.09 158.356C460.719 159.341 460.934 158.186 460.72 157.779C460.691 157.724 460.653 157.683 460.603 157.662C459.075 157.034 458.186 156.72 456.062 157.662C455.583 157.877 454.534 160.292 453.618 160.614C452.428 161.029 452.727 160.186 451.481 160.633C451.374 160.671 451.492 161.129 450.694 161.269C446.978 161.932 442.864 162.392 438.974 163.016C438.442 163.1 439.236 163.739 438.466 163.871C434.853 164.489 430.84 164.929 427.259 164.895C426.384 164.884 426.882 164.314 426.681 164.176C425.449 163.341 423.906 164.828 423.638 164.872C417.169 165.986 412.163 164.899 405.63 165.521C405.274 165.559 402.519 167.022 401.296 165.751C401.206 165.666 400.015 164.369 398.942 165.231C398.873 165.285 399.62 165.959 398.302 165.87C396.957 165.781 394.87 166.177 393.07 165.396C392.517 165.151 391.202 163.829 389.469 164.789C389.372 164.858 386.636 167.067 385.769 165.431C385.627 165.162 385.871 163.485 383.81 164.258C383.413 164.407 384.103 164.817 383.065 165.003C381.48 165.291 379.444 164.735 377.489 165.38C377.154 165.495 375.674 166.559 374.566 165.623C374.392 165.476 374.77 164.934 374.162 164.835C371.354 164.365 368.341 164.549 365.436 163.959C364.429 163.753 365.015 162.88 363.973 162.563C363.229 162.336 361.925 162.074 360.803 162.061C360.369 162.057 359.964 162.094 359.638 162.189C358.497 162.523 359.608 164.061 357.926 164.052C350.604 164.012 343.472 162.574 336.241 161.836C335.165 161.726 335.998 162.319 334.428 162.195C328.581 161.737 318.473 161.335 313.526 159.785C309.553 158.543 314.695 158.326 311.648 157.693C310.178 157.389 308.408 158.925 308.041 158.946C304.471 159.168 302.082 158.203 298.904 158.148C298.247 158.137 298.826 158.876 298.268 158.859C296.36 158.807 294.369 158.321 292.561 158.215C291.745 158.169 291.848 158.703 291.102 158.596C289.313 158.344 287.741 157.983 286.042 157.34C285.887 157.281 287.018 156.73 285.694 156.587C283.547 156.358 280.923 155.64 278.409 155.918C277.661 156.002 277.528 157.189 276.019 156.228C275.702 156.027 276.251 154.636 274.31 155.708C273.985 155.886 270.754 157.279 269.33 156.074C268.957 155.756 268.042 154.499 267.145 154.606C267.023 154.624 267.446 155.305 266.71 155.304C264.115 155.288 261.425 154.987 258.762 154.96C258.051 154.954 259.047 155.706 257.988 155.676C255.079 155.596 251.479 155.121 248.668 154.679C247.632 154.514 248.398 154.026 248.327 153.96C247.188 152.889 246.357 154.138 245.945 154.181C243.384 154.429 241.52 153.657 239.183 153.632C238.538 153.623 238.942 154.284 238.81 154.33C237.443 154.767 238.519 153.725 237.691 153.534C235.373 152.995 232.753 152.837 230.374 152.732C229.499 152.694 230.423 153.494 229.639 153.452C225 153.215 220.197 152.783 215.707 152.054C214.862 151.916 215.437 151.397 215.269 151.257C214.111 150.276 212.235 151.364 211.816 151.451C209.902 151.847 209.208 151.302 207.548 151.28C199.435 151.175 189.485 150.221 181.87 149.604C176.853 149.196 172.393 148.774 168.018 148.429C163.7 148.091 159.465 147.826 154.778 147.734C154.173 147.722 154.758 148.486 154.236 148.485C147.532 148.438 140.953 147.977 134.221 148.071C133.674 148.078 134.45 148.797 133.571 148.831C131.739 148.906 129.452 148.833 127.626 148.585C126.726 148.465 127.942 147.875 127.037 147.767C124.925 147.514 122.709 147.443 120.532 147.54C119.614 147.583 120.992 148.314 119.801 148.315C111.685 148.334 103.732 148.481 95.5031 147.651C94.9401 147.594 94.4254 146.135 93.2435 146.433C93.1602 146.841 93.1721 147.319 93.1395 147.755C81.32 148.162 69.6192 147.989 57.7517 148.417C57.253 148.435 58.1465 149.174 57.1834 149.213C51.6058 149.443 46.1594 149.929 40.4076 149.476C39.8424 149.432 40.0632 148.05 38.3815 148.353C38.093 148.407 35.5713 148.735 34.9431 149.07C34.8587 149.12 35.3491 149.73 34.5499 149.796C32.7794 149.937 30.9717 150.05 29.2023 150.129C26.1692 150.264 23.0975 150.311 20.1212 150.264C19.3566 150.251 20.1189 149.519 19.5772 149.503C15.7044 149.403 11.5879 150.206 7.93541 149.911C5.52507 149.72 6.27699 148.47 4.89691 147.459C4.67984 147.313 3.29933 147.482 3.1354 146.845C2.57998 145.228 3.05249 143.259 2.40829 141.544C2.30876 141.373 1.72622 141.441 0.810482 141.686C0.595156 141.744 0.376828 141.815 0.245813 141.843C0.114874 141.871 0.0603298 141.857 0.028939 141.817C-0.0198398 141.741 -0.0993274 141.565 0.668272 141.036C0.712003 141.005 0.975217 140.884 1.2752 140.764C1.55545 140.647 1.87824 140.525 2.1534 140.412C2.72704 140.183 3.1984 139.965 3.40335 139.777C3.6564 139.523 3.05099 138.91 3.6102 138.556C4.16159 138.206 4.84016 138.708 5.71024 138.291C6.58942 137.872 6.12875 137.129 7.88796 136.885ZM478.996 150.389C477.5 150.133 477.951 152.491 479.226 151.537C479.288 151.488 479.073 150.401 478.996 150.389ZM632.341 89.5611C630.278 89.36 629.83 91.2804 631.314 91.4881C632.798 91.6942 632.969 89.621 632.341 89.5611ZM648.721 81.0021C646.482 81.1415 647.637 84.3489 649.361 82.7738C649.462 82.6831 648.852 80.9937 648.721 81.0021ZM10.8455 146.584C10.8392 146.552 9.71976 146.61 9.70972 146.643C9.19193 147.447 11.3733 147.334 10.8455 146.584ZM664.9 72.3737C664.116 72.2401 662.656 73.524 663.631 73.6913C664.415 73.8258 665.877 72.5397 664.9 72.3737ZM408.378 159.312C408.357 159.277 407.563 159.254 407.58 159.455C407.642 160.104 408.745 159.908 408.378 159.312ZM692.946 58.8743C688.748 60.7512 685.018 59.4344 689.67 57.5486C690.513 57.2069 688.295 59.2016 689.445 58.9289C691.549 58.4281 692.048 56.2357 694.401 56.1505C694.828 56.1369 693.188 58.7729 692.941 58.8813C692.943 58.879 692.944 58.8766 692.946 58.8743ZM477.458 147.837C477.422 147.814 476.366 148.079 476.35 148.116C475.985 149.007 478.117 148.473 477.458 147.837ZM362.459 156.029C362.433 155.995 361.866 155.924 361.253 155.862C360.577 155.793 359.842 155.737 359.796 155.767C359.043 156.379 360.158 156.81 361.18 156.86C362.096 156.906 362.939 156.669 362.459 156.029ZM546.412 122.416C547.245 121.268 548.53 120.663 549.765 121.205C548.648 121.594 547.54 122.023 546.412 122.416Z" fill="white"/>
<path d="M67.3772 102.947C71.0686 102.469 75.8625 102.415 79.4837 102.518C80.6524 102.547 80.0741 103.004 80.8594 103.045C82.4303 103.123 83.8222 102.84 85.3357 102.955C85.8466 102.995 85.2497 103.7 85.7867 103.726C85.9014 103.732 86.0164 103.736 86.1317 103.74C88.8949 103.845 91.5 103.557 94.317 103.556C108.751 103.55 122.887 103.31 137.478 103.351C142.287 103.363 148.147 103.899 153.092 103.601C153.677 103.565 153.325 102.978 153.435 102.929C155.155 102.174 154.585 103.368 155.712 103.521C160.204 104.123 165.171 104.181 169.482 103.977C171.316 103.89 169.481 102.707 171.331 103.377C171.459 103.422 170.987 104.045 171.492 104.115C172.649 104.273 174.781 104.179 175.675 104.238C177.389 104.355 177.661 104.352 179.268 104.379C181.477 104.422 184.074 104.773 186.45 104.674C186.958 104.651 186.298 103.997 187.11 103.902C187.916 103.808 190.033 103.904 190.752 104.071C191.47 104.238 191.152 104.736 191.277 104.854C192.318 105.852 194.784 104.558 195.107 104.533C200.902 104.105 205.839 105.028 211.251 105.221C212.16 105.253 213.087 105.275 214.023 105.291C217.281 105.348 220.646 105.341 223.69 105.506C228.352 105.762 232.275 106.305 236.814 106.485C237.291 106.504 236.773 105.721 237.355 105.744C243.56 105.986 249.702 106.425 255.839 107.314C256.453 107.404 255.616 108.016 256.228 108.145C259.978 108.921 265.867 110.614 268.301 107.885C270.853 108.167 273.954 108.493 276.203 109.231C277.654 109.706 276.17 110.327 278.004 110.145C278.418 110.105 277.93 109.437 278.547 109.425C281.146 109.373 283.95 109.776 286.529 109.633C287.053 109.602 286.951 109.027 287.106 108.936C288.402 108.2 290.362 109.71 290.805 109.842C294.17 110.827 296.687 110.72 299.867 110.973C300.604 111.032 299.788 110.209 300.5 110.239C304.198 110.403 308.01 110.755 311.592 111.365C312.387 111.502 311.601 112.093 311.979 112.191C313.64 112.619 314.119 111.427 315.719 111.814C316.057 111.894 315.822 112.433 315.88 112.499C316.783 113.527 317.732 112.24 317.984 112.229C321.202 112.065 323.101 113.629 326.199 113.667C326.568 113.67 325.794 112.906 326.829 112.957C333.716 113.292 340.967 114.047 347.723 115.126C348.778 115.294 347.98 115.761 348.042 115.831C349.052 116.927 349.855 115.624 350.202 115.599C352.937 115.437 355.41 116.769 357.368 115.29C368.35 116.654 379.354 116.648 390.178 118.522C390.69 118.609 391.198 118.701 391.702 118.796C391.847 118.821 391.544 119.475 391.834 119.523C395.277 120.108 394.699 119.028 397.071 117.888C397.661 117.602 399.341 119.235 399.5 119.356C400.052 119.802 399.402 120.765 399.59 120.856C401.152 121.572 401.037 118.265 403.179 118.372C403.246 118.381 402.933 118.973 403.111 119.042C403.663 119.26 404.227 119.046 404.758 119.281C405.961 119.822 406.35 121.446 408.295 120.598C408.541 120.487 408.252 118.604 410.141 118.771C410.92 118.842 414.246 118.935 415.194 119.085C416.124 119.236 415.463 119.818 415.529 119.846C418.011 120.721 417.073 121.022 418.307 122.237C419.545 123.446 419.262 120.633 419.78 120.333C420.314 120.035 422.163 120.731 422.605 120.967C423.051 121.204 422.483 121.577 422.881 121.713C425.586 122.602 424.093 120.34 424.986 119.908C427.071 118.879 428.668 120.967 430.603 121.166C431.12 121.22 430.698 120.747 431.155 120.701C432.978 120.523 434.066 121.161 436.147 120.525C436.482 120.423 438.125 119.134 439.229 120.016C439.385 120.143 438.969 120.675 439.743 120.766C440.918 120.902 443.007 120.928 444.247 120.688C445.155 120.512 444.058 119.716 445.227 119.917C445.75 120.006 444.82 120.56 445.802 120.685C446.774 120.812 449.234 120.622 450.163 120.528C451.098 120.436 450.533 119.831 450.605 119.781C451.043 119.497 452.789 119.03 452.948 119.014C460.84 118.205 468.293 118.147 475.878 116.313C476.473 116.169 475.943 115.576 476.033 115.548C478.036 114.863 476.764 116.965 478.317 117.276C477.904 116.136 478.513 116.042 479.611 115.747C479.78 115.702 479.961 115.651 480.152 115.591C480.831 115.376 480.344 114.928 480.397 114.861C481.261 113.85 482.2 114.728 482.426 114.9C483.27 115.532 483.82 114.457 484.4 114.873C484.977 115.286 484.074 116.279 485.452 115.97C485.733 115.401 484.434 114.357 485.436 113.924C489.226 112.297 496.806 111.544 500.003 110.842C503.18 110.156 504.179 109.8 506.06 109.496C509.461 108.94 507.997 108.329 509.938 107.356C511.889 106.376 511.498 108.931 511.929 109.342C512.352 109.755 512.532 109.164 512.968 109.335C513.403 109.506 512.71 110.053 513.59 109.923C514.479 109.79 516.548 108.28 516.711 107.681C517.046 106.417 515.687 105.57 518.03 105.345C518.166 105.332 517.916 106.049 518.427 105.971C522.473 105.33 526.543 104.177 530.562 103.416C531.115 103.312 530.834 104.119 531.159 104.066C534.542 103.51 533.035 102.744 534.439 100.961C534.545 102.732 535.831 103.448 538.303 102.694C539.788 102.241 539.304 101.601 540.103 100.796C540.341 100.554 541.545 100.718 541.629 100.32C541.903 99.0187 540.529 98.0939 543.21 97.787C543.329 97.7751 543.167 98.492 543.563 98.4068C546.114 97.8587 546.048 96.6074 548.663 95.6065C550.729 94.8168 554.659 94.3014 557.082 93.6157C557.651 95.4717 559.748 94.2997 560.234 92.7219C561.791 92.2533 563.434 91.6129 564.977 91.2778C565.508 91.1618 565.355 91.8084 565.439 91.8436C566.738 92.4037 566.985 90.9408 567.301 90.7774C569.805 89.526 572.213 89.1353 574.547 88.182C575.402 87.8325 576.247 87.406 577.083 86.8311C577.192 86.7551 576.939 85.4148 578.181 86.0143C578.263 86.0569 577.344 87.0387 578.965 86.507C580.588 85.9746 583.866 85.5547 585.88 84.1498C586.367 83.8116 587.353 82.2833 588.743 82.6807C588.929 82.7359 588.904 83.1573 589.188 83.2815C590.105 83.6733 590.002 82.2586 591.204 83.0467C592.41 83.8333 594.37 84.0292 596.341 82.4362C596.406 82.387 596.554 81.1779 597.264 80.9286C598.397 80.5319 600.079 80.1362 601.247 79.6849C601.808 79.4679 601.21 78.9778 601.303 78.9292C604.948 77.1404 607.843 76.6693 611.977 75.3461C612.734 75.1053 614.531 73.4258 616.223 73.5409C618.082 73.6637 617.672 77.3606 620.997 75.2144C622.345 74.348 622.651 69.7401 626.065 70.7159C630.938 68.2098 636.033 67.365 640.822 64.6117C641.037 64.4886 641.322 63.1174 641.863 62.916C642.669 62.6191 643.31 62.9477 643.892 62.7511C646.333 61.9422 648.338 60.6267 650.658 59.7626C651.539 59.433 651.448 60.0781 652.498 59.6851C653.546 59.292 653.958 58.3237 655.501 58.0816C656.666 57.9014 658.298 58.873 659.776 58.4599C659.265 57.0533 660.244 56.6868 661.814 55.618C662.115 55.4118 661.564 55.0752 661.696 54.9528C662.231 54.4441 662.984 54.6017 663.478 54.084C663.598 53.959 663.411 53.4836 663.499 53.3547C664.233 52.241 666.352 52.6134 666.718 52.6796C668.115 52.9275 668.378 52.1013 669.342 52.029C670.304 51.9572 669.177 52.8241 670.237 52.5848C672.435 52.088 675.043 50.9257 677.134 50.0897C677.969 49.7529 677.141 49.3563 677.255 49.2934C678.911 48.4245 680.924 48.3787 681.361 46.7299C683.892 49.4839 682.269 45.9872 684.994 45.6233C685.209 45.5959 686.089 47.0291 685.439 47.5612C684.788 48.0931 683.464 48.0776 682.576 48.8548C682.366 49.0381 681.559 51.0534 681.404 51.2192C680.191 52.5159 679.031 50.3101 678.901 50.2166C677.442 49.2269 676.371 51.4806 675.966 51.7728C674.103 53.1132 672.224 53.5086 670.641 54.5685C669.606 55.2582 670.113 56.8068 669.209 57.1241C666.198 58.1818 664.314 56.5036 662.281 59.4594C661.844 60.091 663.111 61.4924 660.446 61.0726C660.278 61.046 658.21 60.5102 657.602 61.6312C657.525 61.7724 657.724 62.2502 657.589 62.3524C656.677 63.0281 655.843 62.9226 654.81 63.5561C653.78 64.1885 652.553 65.0052 651.223 65.3553C650.422 65.5671 649.08 65.0702 648.626 64.9994C647.339 64.7869 646.652 66.2676 645.706 65.7616C644.751 65.2545 645.54 63.5797 643.649 63.7665C644.09 65.039 644.463 66.3772 644.869 67.6721C641.149 69.1222 637.334 70.1857 633.634 71.7258C633.175 71.9182 633.916 72.4013 633.431 72.6249C631.387 73.5635 629.366 73.812 627.277 74.8593C625.653 75.676 624.099 77.1116 622.406 77.9838C620.771 76.9727 618.349 78.4826 616.404 79.0883C615.723 79.3016 615.617 78.9017 615.095 78.9606C613.131 79.1915 614.46 80.1343 614.048 80.5237C612.284 82.1866 610.984 79.3893 608.543 80.4102C608.416 80.4625 607.394 82.6122 607.21 82.7919C606.043 83.9519 606.773 82.3477 605.852 82.5704C604.171 82.9752 602.908 83.0369 601.199 84.1985C600.698 84.5405 599.736 85.9972 598.391 85.6581C598.214 85.614 598.1 85.0772 597.976 85.0899C595.741 85.3643 596.283 86.98 595.314 87.9584C594.345 88.9363 592.114 88.5093 591.631 88.3265C590.363 87.8605 592.239 87.7016 592.262 87.601C592.519 86.4129 591.259 87.0691 590.222 87.3594C589.497 85.8463 588.118 86.4612 589.144 87.6686C589.259 87.7997 589.993 87.3629 590.222 87.3594C589.901 89.2261 588.418 89.9963 586.174 89.1847C585.123 88.8035 585.594 87.7424 583.262 88.9159C582.204 89.4465 583.02 90.3745 582.147 91.0238C580.595 92.1765 578.259 92.454 576.247 92.9752C575.669 93.1253 575.118 93.2953 574.618 93.5117C573.798 93.8656 574.826 94.1713 574.273 94.4336C572.814 95.1285 571.298 95.1582 569.852 95.9163C569.721 95.9859 570.276 96.4913 569.803 96.6641C566.205 97.9926 562.913 98.6695 559.122 99.9262C557.284 100.537 554.122 101.964 552.195 102.514C548.864 103.472 544.497 103.858 541.742 104.962C539.942 105.681 540.547 106.182 539.887 106.857C538.607 108.167 535.446 107.5 535.01 107.379C534.996 107.376 536.546 106.741 535.596 106.677C534.896 106.152 535.027 107.371 535.01 107.379C534.729 107.303 531.498 108.12 530.906 108.426C530.583 108.594 530.953 109.136 530.781 109.212C526.679 111.015 522.428 112.406 517.995 113.335C517.914 113.344 517.843 112.639 517.657 112.669C515.059 113.066 513.673 114.328 511.711 115.379C509.765 116.425 508.05 116.697 506.515 115.855C504.975 116.41 502.575 116.471 501.202 116.481C499.814 116.494 499.961 117.858 499.852 117.912C496.466 119.628 494.203 119.366 490.437 120.099C488.649 120.447 485.144 121.416 483.244 121.962C482.361 122.218 481.662 122.282 480.965 122.386C480.454 122.462 479.945 122.558 479.371 122.76C479.186 122.825 479.497 123.38 479.443 123.415C478.01 124.438 478.475 122.836 478.099 122.64C476.725 121.929 475.91 121.568 473.965 122.386C473.524 122.573 472.521 124.921 471.682 125.192C470.583 125.542 470.879 124.717 469.735 125.096C469.637 125.128 469.738 125.59 469.005 125.688C465.608 126.152 461.865 126.404 458.324 126.856C457.839 126.915 458.547 127.588 457.845 127.686C454.554 128.146 450.923 128.433 447.684 128.29C446.892 128.252 447.352 127.698 447.172 127.554C446.068 126.682 444.653 128.126 444.41 128.163C438.54 129.109 434.045 127.947 428.121 128.519C427.807 128.554 425.287 130 424.204 128.726C424.135 128.642 423.029 127.34 422.071 128.2C422.009 128.254 422.676 128.929 421.493 128.839C420.293 128.748 418.39 129.144 416.758 128.368C416.229 128.123 415.097 126.806 413.501 127.772C413.378 127.84 410.959 130.064 410.154 128.434C410.034 128.166 410.209 126.486 408.375 127.274C408.02 127.426 408.637 127.83 407.708 128.025C406.262 128.324 404.441 127.786 402.651 128.449C402.328 128.566 400.999 129.646 400.013 128.723C399.859 128.578 400.196 128.032 399.654 127.94C397.058 127.498 394.316 127.718 391.746 127.171C390.822 126.978 391.356 126.098 390.392 125.794C390.206 125.735 389.983 125.675 389.736 125.618C388.736 125.38 387.317 125.201 386.469 125.483C385.422 125.833 386.436 127.354 384.907 127.371C378.281 127.443 371.812 126.129 365.251 125.523C364.283 125.433 365.051 126.011 363.615 125.915C358.315 125.564 349.149 125.357 344.638 123.903C341.039 122.74 345.707 122.423 342.93 121.849C341.589 121.574 339.978 123.143 339.655 123.171C336.433 123.465 334.253 122.547 331.367 122.554C330.769 122.556 331.3 123.283 330.791 123.277C329.041 123.261 327.271 122.819 325.612 122.747C324.869 122.717 324.966 123.248 324.286 123.155C322.658 122.94 321.249 122.611 319.693 122.001C319.552 121.945 320.579 121.372 319.373 121.256C317.412 121.068 315.052 120.404 312.758 120.73C312.078 120.829 311.965 122.018 310.599 121.087C310.312 120.893 310.804 119.492 309.044 120.601C308.749 120.785 305.817 122.24 304.53 121.064C304.189 120.754 303.352 119.515 302.537 119.639C302.426 119.66 302.814 120.332 302.145 120.345C299.785 120.379 297.354 120.131 294.931 120.155C294.286 120.163 295.191 120.894 294.233 120.885C291.599 120.861 288.325 120.455 285.775 120.065C284.833 119.919 285.527 119.418 285.462 119.353C284.423 118.303 283.674 119.567 283.301 119.618C280.982 119.914 279.284 119.176 277.164 119.193C276.579 119.196 276.948 119.85 276.829 119.898C275.591 120.359 276.562 119.299 275.811 119.123C273.705 118.626 271.328 118.515 269.168 118.451C268.375 118.429 269.216 119.213 268.505 119.184C264.298 119.03 259.937 118.679 255.86 118.025C255.093 117.901 255.613 117.373 255.46 117.236C254.408 116.275 252.708 117.393 252.326 117.486C250.592 117.912 249.962 117.379 248.458 117.383C241.096 117.407 232.07 116.597 225.16 116.077C221 115.764 217.275 115.428 213.645 115.146C209.36 114.814 205.22 114.553 200.573 114.495C200.026 114.487 200.556 115.246 200.085 115.25C194.001 115.257 188.026 114.838 181.934 114.962C181.43 114.971 182.145 115.687 181.337 115.725C179.671 115.809 177.627 115.745 175.943 115.502C175.13 115.386 176.229 114.792 175.41 114.687C173.508 114.441 171.473 114.375 169.512 114.477C168.682 114.522 169.93 115.25 168.852 115.253C161.502 115.287 154.261 115.433 146.812 114.583C146.3 114.525 145.846 113.064 144.761 113.359C144.684 113.767 144.695 114.246 144.664 114.681C133.957 115.054 123.321 114.811 112.568 115.129C112.117 115.143 112.923 115.89 112.052 115.92C107 116.098 102.039 116.525 96.8338 116.002C96.3285 115.951 96.5103 114.574 94.9954 114.855C94.7398 114.905 92.4397 115.202 91.8766 115.528C91.8002 115.577 92.2418 116.193 91.5193 116.248C89.9513 116.364 88.3685 116.45 86.8118 116.504C84.013 116.603 81.1701 116.609 78.4244 116.517C77.7335 116.492 78.4245 115.772 77.935 115.749C74.4199 115.591 70.6811 116.331 67.3659 115.966C65.1789 115.725 65.8649 114.492 64.6164 113.449C64.4209 113.299 63.1587 113.426 63.0145 112.781C62.527 111.146 62.9679 109.203 62.4004 107.467C62.3096 107.291 61.7937 107.344 60.9682 107.518C60.7714 107.56 60.5721 107.611 60.4489 107.629C60.3271 107.646 60.2767 107.627 60.2487 107.585C60.2026 107.505 60.1439 107.329 60.8482 106.865C60.8855 106.838 61.125 106.737 61.3921 106.635C61.6448 106.536 61.9299 106.43 62.179 106.329C62.6944 106.123 63.1203 105.919 63.3063 105.737C63.5358 105.491 62.9933 104.862 63.4991 104.524C63.998 104.189 64.6092 104.707 65.3988 104.309C66.1946 103.909 65.7806 103.158 67.3772 102.947ZM494.989 116.513C493.629 116.163 493.998 118.534 495.178 117.667C495.235 117.622 495.059 116.529 494.989 116.513ZM636.684 68.4985C634.792 68.1198 634.344 69.9696 635.704 70.3039C637.064 70.6367 637.261 68.6122 636.684 68.4985ZM651.922 61.5161C649.86 61.4557 650.861 64.7113 652.477 63.3146C652.572 63.2344 652.043 61.5193 651.922 61.5161ZM70.0222 112.694C70.0184 112.662 68.9991 112.701 68.9916 112.733C68.5185 113.527 70.4988 113.453 70.0222 112.694ZM666.981 54.4591C666.261 54.2583 664.894 55.3913 665.787 55.642C666.506 55.8436 667.877 54.7087 666.981 54.4591ZM430.658 122.334C430.639 122.299 429.922 122.268 429.936 122.469C429.986 123.118 430.984 122.933 430.658 122.334ZM693.061 43.6732C689.16 45.1459 685.751 43.5205 690.071 42.0796C690.853 41.8185 688.773 43.5824 689.837 43.4164C691.784 43.1107 692.285 40.9999 694.453 41.1248C694.846 41.1493 693.286 43.595 693.056 43.6796C693.058 43.6775 693.06 43.6753 693.061 43.6732ZM493.631 113.88C493.599 113.856 492.631 114.052 492.616 114.088C492.268 114.95 494.221 114.554 493.631 113.88ZM389.014 119.284C388.969 119.214 386.679 119.005 386.594 119.061C385.315 120.224 389.954 120.652 389.014 119.284ZM557.135 93.6522C557.915 92.5856 559.103 92.0906 560.229 92.7225C559.193 93.0194 558.172 93.355 557.135 93.6522Z" fill="#A85F5F"/>
</svg>
