<svg width="695" height="193" viewBox="0 0 695 193" fill="none" xmlns="http://www.w3.org/2000/svg">
<path d="M91.7096 19.888H104.67L91.8056 82H76.3496L63.4856 19.888H76.5416L84.1256 65.2L91.7096 19.888ZM133.551 34.192C141.487 34.192 145.455 38.416 145.455 46.864V62.032H123.663V71.824C123.663 72.336 123.823 72.784 124.143 73.168C124.527 73.552 124.975 73.744 125.487 73.744H130.767C131.279 73.744 131.695 73.552 132.015 73.168C132.399 72.784 132.591 72.336 132.591 71.824V66.64H145.455V70.288C145.455 78.736 141.487 82.96 133.551 82.96H122.703C114.767 82.96 110.799 78.736 110.799 70.288V46.864C110.799 38.416 114.767 34.192 122.703 34.192H133.551ZM123.663 53.584H132.591V44.944C132.591 44.432 132.399 43.984 132.015 43.6C131.695 43.216 131.279 43.024 130.767 43.024H125.487C124.975 43.024 124.527 43.216 124.143 43.6C123.823 43.984 123.663 44.432 123.663 44.944V53.584ZM172.485 34.192H174.981V46.672H168.645C166.469 46.672 165.381 47.792 165.381 50.032V82H152.517V35.152H164.229V39.664C166.085 36.016 168.837 34.192 172.485 34.192ZM193.792 29.296C192.448 30.64 190.816 31.312 188.896 31.312C186.976 31.312 185.312 30.64 183.904 29.296C182.496 27.888 181.792 26.224 181.792 24.304C181.792 22.32 182.496 20.656 183.904 19.312C185.312 17.904 186.976 17.2 188.896 17.2C190.816 17.2 192.448 17.904 193.792 19.312C195.2 20.656 195.904 22.32 195.904 24.304C195.904 26.288 195.2 27.952 193.792 29.296ZM182.464 82V35.152H195.328V82H182.464ZM221.449 27.76C220.041 27.76 218.985 28.08 218.281 28.72C217.577 29.36 217.225 30.576 217.225 32.368V35.152H225.289V44.848H217.225V82H204.361V31.6C204.361 23.152 208.329 18.928 216.265 18.928H225.289V27.76H221.449ZM252.778 35.152H265.642V85.552C265.642 94 261.674 98.224 253.738 98.224H244.138C236.202 98.224 232.234 94 232.234 85.552V84.016H244.714V87.088C244.714 87.6 244.874 88.048 245.194 88.432C245.578 88.816 246.026 89.008 246.538 89.008H250.954C251.466 89.008 251.882 88.816 252.202 88.432C252.586 88.048 252.778 87.6 252.778 87.088V77.584C250.858 79.12 248.234 79.888 244.906 79.888H242.89C234.954 79.888 230.986 75.664 230.986 67.216V35.152H243.85V68.752C243.85 69.264 244.01 69.712 244.33 70.096C244.714 70.48 245.162 70.672 245.674 70.672H250.954C251.466 70.672 251.882 70.48 252.202 70.096C252.586 69.712 252.778 69.264 252.778 68.752V35.152ZM318.951 18.928C326.887 18.928 330.855 23.152 330.855 31.6V82H317.415V61.168H307.719V82H294.279V31.6C294.279 23.152 298.247 18.928 306.183 18.928H318.951ZM307.719 50.8H317.415V29.968C317.415 29.456 317.223 29.008 316.839 28.624C316.519 28.24 316.103 28.048 315.591 28.048H309.543C309.031 28.048 308.583 28.24 308.199 28.624C307.879 29.008 307.719 29.456 307.719 29.968V50.8ZM375.048 53.584H362.184V45.328C362.184 44.816 361.992 44.368 361.608 43.984C361.288 43.6 360.872 43.408 360.36 43.408H355.08C354.568 43.408 354.12 43.6 353.736 43.984C353.416 44.368 353.256 44.816 353.256 45.328V71.824C353.256 72.336 353.416 72.784 353.736 73.168C354.12 73.552 354.568 73.744 355.08 73.744H360.36C360.872 73.744 361.288 73.552 361.608 73.168C361.992 72.784 362.184 72.336 362.184 71.824V63.568H375.048V70.288C375.048 78.736 371.08 82.96 363.144 82.96H352.296C344.36 82.96 340.392 78.736 340.392 70.288V46.864C340.392 38.416 344.36 34.192 352.296 34.192H363.144C371.08 34.192 375.048 38.416 375.048 46.864V53.584ZM417.892 53.584H405.028V45.328C405.028 44.816 404.836 44.368 404.452 43.984C404.132 43.6 403.716 43.408 403.204 43.408H397.924C397.412 43.408 396.964 43.6 396.58 43.984C396.26 44.368 396.1 44.816 396.1 45.328V71.824C396.1 72.336 396.26 72.784 396.58 73.168C396.964 73.552 397.412 73.744 397.924 73.744H403.204C403.716 73.744 404.132 73.552 404.452 73.168C404.836 72.784 405.028 72.336 405.028 71.824V63.568H417.892V70.288C417.892 78.736 413.924 82.96 405.988 82.96H395.14C387.204 82.96 383.236 78.736 383.236 70.288V46.864C383.236 38.416 387.204 34.192 395.14 34.192H405.988C413.924 34.192 417.892 38.416 417.892 46.864V53.584ZM460.736 46.864V70.288C460.736 78.736 456.768 82.96 448.832 82.96H437.984C430.048 82.96 426.08 78.736 426.08 70.288V46.864C426.08 38.416 430.048 34.192 437.984 34.192H448.832C456.768 34.192 460.736 38.416 460.736 46.864ZM447.872 72.976V44.08C447.872 43.568 447.68 43.12 447.296 42.736C446.976 42.352 446.56 42.16 446.048 42.16H440.768C440.256 42.16 439.808 42.352 439.424 42.736C439.104 43.12 438.944 43.568 438.944 44.08V72.976C438.944 73.488 439.104 73.936 439.424 74.32C439.808 74.704 440.256 74.896 440.768 74.896H446.048C446.56 74.896 446.976 74.704 447.296 74.32C447.68 73.936 447.872 73.488 447.872 72.976ZM491.278 35.152H504.142V82H492.43V79.6C490.446 81.84 487.438 82.96 483.406 82.96H481.39C473.454 82.96 469.486 78.736 469.486 70.288V35.152H482.35V71.824C482.35 72.336 482.51 72.784 482.83 73.168C483.214 73.552 483.662 73.744 484.174 73.744H489.454C489.966 73.744 490.382 73.552 490.702 73.168C491.086 72.784 491.278 72.336 491.278 71.824V35.152ZM525.756 82H512.892V35.152H524.604V37.552C526.588 35.312 529.596 34.192 533.628 34.192H535.644C543.58 34.192 547.548 38.416 547.548 46.864V82H534.684V45.328C534.684 44.816 534.492 44.368 534.108 43.984C533.788 43.6 533.372 43.408 532.86 43.408H527.58C527.068 43.408 526.62 43.6 526.236 43.984C525.916 44.368 525.756 44.816 525.756 45.328V82ZM573.387 74.608H577.227V82.96H568.203C560.267 82.96 556.299 78.736 556.299 70.288V24.976H569.163V35.152H577.227V44.464H569.163V70C569.163 71.792 569.515 73.008 570.219 73.648C570.923 74.288 571.979 74.608 573.387 74.608Z" fill="white"/>
<path d="M7.88796 162.885C11.9569 162.331 17.2541 162.197 21.242 162.243C22.5259 162.254 21.8897 162.721 22.7588 162.749C24.4854 162.803 26.0184 162.498 27.6966 162.59C28.2625 162.622 27.6036 163.336 28.1983 163.354C28.2688 163.356 28.3393 163.358 28.4099 163.36C31.5211 163.438 34.4409 163.101 37.6005 163.061C53.5104 162.855 69.117 162.48 85.2023 162.453C90.5091 162.441 96.9554 162.96 102.436 162.656C103.068 162.62 102.687 162.033 102.807 161.984C104.697 161.227 104.075 162.422 105.32 162.573C110.261 163.173 115.769 163.234 120.508 163.041C122.538 162.957 120.509 161.77 122.554 162.444C122.696 162.49 122.173 163.112 122.732 163.183C123.978 163.344 126.36 163.258 127.343 163.32C129.233 163.443 129.52 163.441 131.302 163.475C133.755 163.528 136.593 163.891 139.231 163.807C139.783 163.787 139.066 163.129 139.949 163.039C140.832 162.949 143.18 163.06 143.975 163.232C144.768 163.404 144.415 163.899 144.554 164.019C145.678 165.023 148.418 163.748 148.774 163.726C155.153 163.343 160.625 164.315 166.577 164.568C167.197 164.595 167.823 164.617 168.455 164.637C172.419 164.76 176.562 164.781 180.297 165.011C185.423 165.33 189.764 165.933 194.756 166.184C195.282 166.211 194.713 165.419 195.356 165.451C202.201 165.792 208.971 166.338 215.73 167.338C216.407 167.439 215.481 168.036 216.155 168.177C220.288 169.021 226.769 170.826 229.466 168.144C232.28 168.475 235.694 168.862 238.17 169.645C239.767 170.149 238.129 170.741 240.152 170.596C240.608 170.564 240.073 169.886 240.753 169.886C243.616 169.886 246.71 170.347 249.549 170.257C250.127 170.237 250.018 169.659 250.188 169.571C251.617 168.862 253.778 170.414 254.262 170.555C257.96 171.61 260.744 171.557 264.242 171.877C265.057 171.952 264.158 171.111 264.945 171.156C269.019 171.4 273.224 171.834 277.162 172.521C278.042 172.676 277.169 173.25 277.587 173.357C279.428 173.821 279.949 172.639 281.709 173.06C282.08 173.148 281.819 173.682 281.882 173.748C282.866 174.796 283.928 173.53 284.207 173.525C287.748 173.43 289.852 175.039 293.252 175.142C293.657 175.153 292.81 174.372 293.947 174.446C301.537 174.932 309.525 175.844 316.968 177.069C318.122 177.258 317.246 177.71 317.313 177.781C318.414 178.899 319.298 177.611 319.69 177.594C322.741 177.493 325.41 178.873 327.604 177.437C338.828 178.918 350.209 179.207 361.323 180.895C362.71 181.103 364.072 181.33 365.409 181.58C365.566 181.608 365.237 182.257 365.549 182.309C369.41 182.949 368.69 181.855 371.334 180.748C372.005 180.471 373.849 182.125 374.009 182.247C374.604 182.699 373.902 183.656 374.104 183.749C375.808 184.483 375.746 181.177 378.07 181.306C378.142 181.315 377.804 181.905 377.995 181.976C378.583 182.198 379.213 181.99 379.807 182.231C381.171 182.786 381.536 184.411 383.707 183.58C383.977 183.471 383.672 181.586 385.749 181.767C386.568 181.843 390.259 181.955 391.308 182.108C392.344 182.263 391.611 182.842 391.684 182.87C394.444 183.753 393.363 184.05 394.751 185.268C396.134 186.479 395.807 183.665 396.381 183.365C396.936 183.067 399.005 183.762 399.494 183.996C399.991 184.232 399.362 184.606 399.805 184.742C402.767 185.622 401.127 183.365 402.106 182.929C404.383 181.89 406.175 183.966 408.307 184.145C408.878 184.193 408.407 183.726 408.913 183.674C410.91 183.475 412.126 184.098 414.411 183.427C414.78 183.318 416.571 181.999 417.799 182.856C417.973 182.98 417.522 183.522 418.376 183.595C419.672 183.706 421.977 183.678 423.337 183.401C424.335 183.197 423.109 182.435 424.405 182.6C424.982 182.673 423.969 183.255 425.051 183.35C426.121 183.448 428.826 183.172 429.852 183.04C430.878 182.912 430.245 182.328 430.324 182.276C430.797 181.976 432.715 181.436 432.887 181.413C441.556 180.268 449.745 179.761 458.037 177.449C458.689 177.268 458.094 176.706 458.192 176.672C458.537 176.544 458.794 176.49 458.99 176.492C460.019 176.501 459.292 178.083 460.733 178.264C460.178 176.972 461.179 176.991 462.713 176.456C463.455 176.196 462.912 175.778 462.968 175.707C463.901 174.636 464.94 175.458 465.194 175.616C466.132 176.196 466.718 175.078 467.36 175.459C467.997 175.837 467.028 176.894 468.534 176.492C468.832 175.902 467.385 174.939 468.476 174.437C472.603 172.553 480.889 171.269 484.376 170.331C487.84 169.411 488.923 168.979 490.98 168.534C494.683 167.723 493.079 167.213 495.178 166.09C497.292 164.955 496.919 167.557 497.397 167.939C497.867 168.323 498.052 167.714 498.531 167.853C499.01 167.993 498.265 168.596 499.222 168.398C500.188 168.199 502.426 166.516 502.589 165.901C502.926 164.603 501.432 163.852 503.986 163.444C504.133 163.421 503.876 164.162 504.431 164.044C508.841 163.084 513.263 161.598 517.636 160.505C518.236 160.356 517.947 161.192 518.3 161.113C521.987 160.275 520.322 159.626 521.815 157.714C521.962 159.494 523.399 160.105 526.068 159.145C527.68 158.564 527.146 157.956 527.995 157.078C528.249 156.815 529.562 156.882 529.646 156.473C529.919 155.136 528.415 154.312 531.322 153.782C531.45 153.76 531.29 154.497 531.718 154.378C534.5 153.606 534.379 152.357 537.226 151.117C539.442 150.152 543.748 149.279 546.353 148.383C547.007 150.212 549.284 148.838 549.77 147.204C551.463 146.591 553.224 145.805 554.907 145.326C555.486 145.16 555.332 145.828 555.424 145.856C556.853 146.307 557.083 144.808 557.424 144.615C559.379 143.539 561.264 142.928 563.124 142.224C564.782 141.598 566.422 140.895 567.989 139.743C568.106 139.656 567.796 138.325 569.165 138.818C569.255 138.853 568.271 139.932 570.03 139.244C571.784 138.558 575.341 137.833 577.5 136.226C578.027 135.836 579.06 134.201 580.579 134.475C580.782 134.514 580.764 134.943 581.076 135.042C582.082 135.354 581.947 133.928 583.266 134.617C584.583 135.306 586.74 135.314 588.832 133.523C588.899 133.468 589.037 132.228 589.806 131.909C591.037 131.397 592.84 130.846 594.108 130.276C594.714 130.003 594.053 129.562 594.153 129.504C598.067 127.354 601.216 126.597 605.669 124.868C606.492 124.549 608.395 122.682 610.242 122.634C612.265 122.581 611.886 126.374 615.459 123.877C616.901 122.872 617.144 118.165 620.861 118.832C626.097 115.823 631.608 114.476 636.744 111.22C636.975 111.074 637.255 109.655 637.839 109.398C638.707 109.018 639.412 109.288 640.037 109.034C642.667 107.977 644.812 106.449 647.312 105.345C648.263 104.924 648.174 105.59 649.304 105.089C650.433 104.588 650.862 103.564 652.528 103.169C653.786 102.874 655.579 103.7 657.174 103.137C656.589 101.759 657.641 101.293 659.322 100.054C659.645 99.8151 659.039 99.5272 659.18 99.39C659.75 98.8213 660.57 98.908 661.093 98.335C661.22 98.1963 661.008 97.7319 661.1 97.5925C661.873 96.3901 664.18 96.5611 664.578 96.5927C666.095 96.7094 666.365 95.8439 667.408 95.6765C668.45 95.5096 667.246 96.4999 668.391 96.1534C670.761 95.4353 673.566 94.0001 675.816 92.9468C676.713 92.5232 675.808 92.2014 675.929 92.1265C677.707 91.0821 679.888 90.8394 680.326 89.1223C683.13 91.6709 681.295 88.2797 684.242 87.6435C684.475 87.5946 685.459 88.9639 684.765 89.5678C684.07 90.1716 682.636 90.2848 681.689 91.1611C681.465 91.3678 680.633 93.493 680.469 93.6764C679.18 95.112 677.878 92.9849 677.734 92.9029C676.131 92.0406 675.018 94.4337 674.584 94.77C672.594 96.3123 670.565 96.8973 668.871 98.128C667.763 98.9294 668.346 100.452 667.372 100.863C664.131 102.23 662.054 100.709 659.91 103.908C659.45 104.592 660.851 105.893 657.955 105.724C657.772 105.713 655.518 105.371 654.881 106.568C654.801 106.719 655.027 107.185 654.883 107.302C653.912 108.074 653.001 108.05 651.895 108.793C650.789 109.536 649.481 110.482 648.043 110.967C647.177 111.261 645.714 110.885 645.22 110.857C643.819 110.767 643.105 112.336 642.067 111.914C641.021 111.491 641.839 109.717 639.796 110.087C640.302 111.336 640.734 112.658 641.202 113.933C637.194 115.766 633.081 117.212 629.101 119.129C628.607 119.368 629.421 119.787 628.898 120.061C626.695 121.212 624.515 121.654 622.265 122.919C620.53 123.898 618.859 125.509 617.048 126.551C615.246 125.684 612.66 127.441 610.553 128.243C609.817 128.524 609.695 128.128 609.132 128.237C607.007 128.656 608.466 129.487 608.028 129.921C606.138 131.778 604.685 129.057 602.045 130.327C601.904 130.393 600.85 132.664 600.652 132.864C599.406 134.151 600.168 132.455 599.169 132.769C597.347 133.339 595.988 133.515 594.147 134.856C593.613 135.248 592.604 136.812 591.129 136.596C590.935 136.568 590.801 136.034 590.666 136.059C588.245 136.544 588.873 138.128 587.835 139.212C586.797 140.295 584.377 140.063 583.841 139.925C582.449 139.572 584.491 139.235 584.514 139.131C584.77 137.903 583.41 138.686 582.286 139.077C581.465 137.612 579.985 138.359 581.124 139.488C581.251 139.61 582.037 139.102 582.286 139.077C581.981 140.995 580.382 141.913 577.926 141.297C576.775 141.007 577.275 139.886 574.753 141.291C573.61 141.927 574.521 142.79 573.587 143.526C571.447 145.208 567.882 145.537 565.452 146.724C565.224 146.836 565.13 146.933 565.105 147.021C565.035 147.274 565.54 147.453 565.096 147.688C563.503 148.53 561.888 148.681 560.31 149.585C560.168 149.667 560.785 150.129 560.271 150.346C556.392 152.006 552.815 152.983 548.708 154.583C546.73 155.356 543.311 157.072 541.214 157.795C537.594 159.051 532.862 159.8 529.869 161.148C527.928 162.019 528.585 162.48 527.88 163.216C526.521 164.64 523.045 164.231 522.573 164.142C522.558 164.139 524.232 163.374 523.196 163.386C522.423 162.913 522.592 164.132 522.573 164.142C522.27 164.087 518.752 165.176 518.114 165.53C517.762 165.727 518.179 166.243 517.991 166.334C513.545 168.484 508.932 170.221 504.105 171.498C504.018 171.514 503.925 170.809 503.723 170.853C500.897 171.452 499.404 172.829 497.277 174.036C495.168 175.235 493.302 175.634 491.601 174.901C489.929 175.573 487.304 175.809 485.798 175.918C484.28 176.031 484.469 177.391 484.35 177.454C480.676 179.421 478.192 179.315 474.08 180.308C472.125 180.779 468.304 181.985 466.232 182.655C464.573 183.195 463.506 183.13 461.998 183.703C461.795 183.78 462.148 184.318 462.09 184.356C460.719 185.341 460.934 184.186 460.72 183.779C460.691 183.724 460.653 183.683 460.603 183.662C459.075 183.034 458.186 182.72 456.062 183.662C455.583 183.877 454.534 186.292 453.618 186.614C452.428 187.029 452.727 186.186 451.481 186.633C451.374 186.671 451.492 187.129 450.694 187.269C446.978 187.932 442.864 188.392 438.974 189.016C438.442 189.1 439.236 189.739 438.466 189.871C434.853 190.489 430.84 190.929 427.259 190.895C426.384 190.884 426.882 190.314 426.681 190.176C425.449 189.341 423.906 190.828 423.638 190.872C417.169 191.986 412.163 190.899 405.63 191.521C405.274 191.559 402.519 193.022 401.296 191.751C401.206 191.666 400.015 190.369 398.942 191.231C398.873 191.285 399.62 191.959 398.302 191.87C396.957 191.781 394.87 192.177 393.07 191.396C392.517 191.151 391.202 189.829 389.469 190.789C389.372 190.858 386.636 193.067 385.769 191.431C385.627 191.162 385.871 189.485 383.81 190.258C383.413 190.407 384.103 190.817 383.065 191.003C381.48 191.291 379.444 190.735 377.489 191.38C377.154 191.495 375.674 192.559 374.566 191.623C374.392 191.476 374.77 190.934 374.162 190.835C371.354 190.365 368.341 190.549 365.436 189.959C364.429 189.753 365.015 188.88 363.973 188.563C363.229 188.336 361.925 188.074 360.803 188.061C360.369 188.057 359.964 188.094 359.638 188.189C358.497 188.523 359.608 190.061 357.926 190.052C350.604 190.012 343.472 188.574 336.241 187.836C335.165 187.726 335.998 188.319 334.428 188.195C328.581 187.737 318.473 187.335 313.526 185.785C309.553 184.543 314.695 184.326 311.648 183.693C310.178 183.389 308.408 184.925 308.041 184.946C304.471 185.168 302.082 184.203 298.904 184.148C298.247 184.137 298.826 184.876 298.268 184.859C296.36 184.807 294.369 184.321 292.561 184.215C291.745 184.169 291.848 184.703 291.102 184.596C289.313 184.344 287.741 183.983 286.042 183.34C285.887 183.281 287.018 182.73 285.694 182.587C283.547 182.358 280.923 181.64 278.409 181.918C277.661 182.002 277.528 183.189 276.019 182.228C275.702 182.027 276.251 180.636 274.31 181.708C273.985 181.886 270.754 183.279 269.33 182.074C268.957 181.756 268.042 180.499 267.145 180.606C267.023 180.624 267.446 181.305 266.71 181.304C264.115 181.288 261.425 180.987 258.762 180.96C258.051 180.954 259.047 181.706 257.988 181.676C255.079 181.596 251.479 181.121 248.668 180.679C247.632 180.514 248.398 180.026 248.327 179.96C247.188 178.889 246.357 180.138 245.945 180.181C243.384 180.429 241.52 179.657 239.183 179.632C238.538 179.623 238.942 180.284 238.81 180.33C237.443 180.767 238.519 179.725 237.691 179.534C235.373 178.995 232.753 178.837 230.374 178.732C229.499 178.694 230.423 179.494 229.639 179.452C225 179.215 220.197 178.783 215.707 178.054C214.862 177.916 215.437 177.397 215.269 177.257C214.111 176.276 212.235 177.364 211.816 177.451C209.902 177.847 209.208 177.302 207.548 177.28C199.435 177.175 189.485 176.221 181.87 175.604C176.853 175.196 172.393 174.774 168.018 174.429C163.7 174.091 159.465 173.826 154.778 173.734C154.173 173.722 154.758 174.486 154.236 174.485C147.532 174.438 140.953 173.977 134.221 174.071C133.674 174.078 134.45 174.797 133.571 174.831C131.739 174.906 129.452 174.833 127.626 174.585C126.726 174.465 127.942 173.875 127.037 173.767C124.925 173.514 122.709 173.443 120.532 173.54C119.614 173.583 120.992 174.314 119.801 174.315C111.685 174.334 103.732 174.481 95.5031 173.651C94.9401 173.594 94.4254 172.135 93.2435 172.433C93.1602 172.841 93.1721 173.319 93.1395 173.755C81.32 174.162 69.6192 173.989 57.7517 174.417C57.253 174.435 58.1465 175.174 57.1834 175.213C51.6058 175.443 46.1594 175.929 40.4076 175.476C39.8424 175.432 40.0632 174.05 38.3815 174.353C38.093 174.407 35.5713 174.735 34.9431 175.07C34.8587 175.12 35.3491 175.73 34.5499 175.796C32.7794 175.937 30.9717 176.05 29.2023 176.129C26.1692 176.264 23.0975 176.311 20.1212 176.264C19.3566 176.251 20.1189 175.519 19.5772 175.503C15.7044 175.403 11.5879 176.206 7.93541 175.911C5.52507 175.72 6.27699 174.47 4.89691 173.459C4.67984 173.313 3.29933 173.482 3.1354 172.845C2.57998 171.228 3.05249 169.259 2.40829 167.544C2.30876 167.373 1.72622 167.441 0.810482 167.686C0.595156 167.744 0.376828 167.815 0.245813 167.843C0.114874 167.871 0.0603298 167.857 0.028939 167.817C-0.0198398 167.741 -0.0993274 167.565 0.668272 167.036C0.712003 167.005 0.975217 166.884 1.2752 166.764C1.55545 166.647 1.87824 166.525 2.1534 166.412C2.72704 166.183 3.1984 165.965 3.40335 165.777C3.6564 165.523 3.05099 164.91 3.6102 164.556C4.16159 164.206 4.84016 164.708 5.71024 164.291C6.58942 163.872 6.12875 163.129 7.88796 162.885ZM478.996 176.389C477.5 176.133 477.951 178.491 479.226 177.537C479.288 177.488 479.073 176.401 478.996 176.389ZM632.341 115.561C630.278 115.36 629.83 117.28 631.314 117.488C632.798 117.694 632.969 115.621 632.341 115.561ZM648.721 107.002C646.482 107.141 647.637 110.349 649.361 108.774C649.462 108.683 648.852 106.994 648.721 107.002ZM10.8455 172.584C10.8392 172.552 9.71976 172.61 9.70972 172.643C9.19193 173.447 11.3733 173.334 10.8455 172.584ZM664.9 98.3737C664.116 98.2401 662.656 99.524 663.631 99.6913C664.415 99.8258 665.877 98.5397 664.9 98.3737ZM408.378 185.312C408.357 185.277 407.563 185.254 407.58 185.455C407.642 186.104 408.745 185.908 408.378 185.312ZM692.946 84.8743C688.748 86.7512 685.018 85.4344 689.67 83.5486C690.513 83.2069 688.295 85.2016 689.445 84.9289C691.549 84.4281 692.048 82.2357 694.401 82.1505C694.828 82.1369 693.188 84.7729 692.941 84.8813C692.943 84.879 692.944 84.8766 692.946 84.8743ZM477.458 173.837C477.422 173.814 476.366 174.079 476.35 174.116C475.985 175.007 478.117 174.473 477.458 173.837ZM362.459 182.029C362.433 181.995 361.866 181.924 361.253 181.862C360.577 181.793 359.842 181.737 359.796 181.767C359.043 182.379 360.158 182.81 361.18 182.86C362.096 182.906 362.939 182.669 362.459 182.029ZM546.412 148.416C547.245 147.268 548.53 146.663 549.765 147.205C548.648 147.594 547.54 148.023 546.412 148.416Z" fill="white"/>
<path d="M67.3772 122.947C71.0686 122.469 75.8625 122.415 79.4837 122.518C80.6524 122.547 80.0741 123.004 80.8594 123.045C82.4303 123.123 83.8222 122.84 85.3357 122.955C85.8466 122.995 85.2497 123.7 85.7867 123.726C85.9014 123.732 86.0164 123.736 86.1317 123.74C88.8949 123.845 91.5 123.557 94.317 123.556C108.751 123.55 122.887 123.31 137.478 123.351C142.287 123.363 148.147 123.899 153.092 123.601C153.677 123.565 153.325 122.978 153.435 122.929C155.155 122.174 154.585 123.368 155.712 123.521C160.204 124.123 165.171 124.181 169.482 123.977C171.316 123.89 169.481 122.707 171.331 123.377C171.459 123.422 170.987 124.045 171.492 124.115C172.649 124.273 174.781 124.179 175.675 124.238C177.389 124.355 177.661 124.352 179.268 124.379C181.477 124.422 184.074 124.773 186.45 124.674C186.958 124.651 186.298 123.997 187.11 123.902C187.916 123.808 190.033 123.904 190.752 124.071C191.47 124.238 191.152 124.736 191.277 124.854C192.318 125.852 194.784 124.558 195.107 124.533C200.902 124.105 205.839 125.028 211.251 125.221C212.16 125.253 213.087 125.275 214.023 125.291C217.281 125.348 220.646 125.341 223.69 125.506C228.352 125.762 232.275 126.305 236.814 126.485C237.291 126.504 236.773 125.721 237.355 125.744C243.56 125.986 249.702 126.425 255.839 127.314C256.453 127.404 255.616 128.016 256.228 128.145C259.978 128.921 265.867 130.614 268.301 127.885C270.853 128.167 273.954 128.493 276.203 129.231C277.654 129.706 276.17 130.327 278.004 130.145C278.418 130.105 277.93 129.437 278.547 129.425C281.146 129.373 283.95 129.776 286.529 129.633C287.053 129.602 286.951 129.027 287.106 128.936C288.402 128.2 290.362 129.71 290.805 129.842C294.17 130.827 296.687 130.72 299.867 130.973C300.604 131.032 299.788 130.209 300.5 130.239C304.198 130.403 308.01 130.755 311.592 131.365C312.387 131.502 311.601 132.093 311.979 132.191C313.64 132.619 314.119 131.427 315.719 131.814C316.057 131.894 315.822 132.433 315.88 132.499C316.783 133.527 317.732 132.24 317.984 132.229C321.202 132.065 323.101 133.629 326.199 133.667C326.568 133.67 325.794 132.906 326.829 132.957C333.716 133.292 340.967 134.047 347.723 135.126C348.778 135.294 347.98 135.761 348.042 135.831C349.052 136.927 349.855 135.624 350.202 135.599C352.937 135.437 355.41 136.769 357.368 135.29C368.35 136.654 379.354 136.648 390.178 138.522C390.69 138.609 391.198 138.701 391.702 138.796C391.847 138.821 391.544 139.475 391.834 139.523C395.277 140.108 394.699 139.028 397.071 137.888C397.661 137.602 399.341 139.235 399.5 139.356C400.052 139.802 399.402 140.765 399.59 140.856C401.152 141.572 401.037 138.265 403.179 138.372C403.246 138.381 402.933 138.973 403.111 139.042C403.663 139.26 404.227 139.046 404.758 139.281C405.961 139.822 406.35 141.446 408.295 140.598C408.541 140.487 408.252 138.604 410.141 138.771C410.92 138.842 414.246 138.935 415.194 139.085C416.124 139.236 415.463 139.818 415.529 139.846C418.011 140.721 417.073 141.022 418.307 142.237C419.545 143.446 419.262 140.633 419.78 140.333C420.314 140.035 422.163 140.731 422.605 140.967C423.051 141.204 422.483 141.577 422.881 141.713C425.586 142.602 424.093 140.34 424.986 139.908C427.071 138.879 428.668 140.967 430.603 141.166C431.12 141.22 430.698 140.747 431.155 140.701C432.978 140.523 434.066 141.161 436.147 140.525C436.482 140.423 438.125 139.134 439.229 140.016C439.385 140.143 438.969 140.675 439.743 140.766C440.918 140.902 443.007 140.928 444.247 140.688C445.155 140.512 444.058 139.716 445.227 139.917C445.75 140.006 444.82 140.56 445.802 140.685C446.774 140.812 449.234 140.622 450.163 140.528C451.098 140.436 450.533 139.831 450.605 139.781C451.043 139.497 452.789 139.03 452.948 139.014C460.84 138.205 468.293 138.147 475.878 136.313C476.473 136.169 475.943 135.576 476.033 135.548C478.036 134.863 476.764 136.965 478.317 137.276C477.904 136.136 478.513 136.042 479.611 135.747C479.78 135.702 479.961 135.651 480.152 135.591C480.831 135.376 480.344 134.928 480.397 134.861C481.261 133.85 482.2 134.728 482.426 134.9C483.27 135.532 483.82 134.457 484.4 134.873C484.977 135.286 484.074 136.279 485.452 135.97C485.733 135.401 484.434 134.357 485.436 133.924C489.226 132.297 496.806 131.544 500.003 130.842C503.18 130.156 504.179 129.8 506.06 129.496C509.461 128.94 507.997 128.329 509.938 127.356C511.889 126.376 511.498 128.931 511.929 129.342C512.352 129.755 512.532 129.164 512.968 129.335C513.403 129.506 512.71 130.053 513.59 129.923C514.479 129.79 516.548 128.28 516.711 127.681C517.046 126.417 515.687 125.57 518.03 125.345C518.166 125.332 517.916 126.049 518.427 125.971C522.473 125.33 526.543 124.177 530.562 123.416C531.115 123.312 530.834 124.119 531.159 124.066C534.542 123.51 533.035 122.744 534.439 120.961C534.545 122.732 535.831 123.448 538.303 122.694C539.788 122.241 539.304 121.601 540.103 120.796C540.341 120.554 541.545 120.718 541.629 120.32C541.903 119.019 540.529 118.094 543.21 117.787C543.329 117.775 543.167 118.492 543.563 118.407C546.114 117.859 546.048 116.607 548.663 115.607C550.729 114.817 554.659 114.301 557.082 113.616C557.651 115.472 559.748 114.3 560.234 112.722C561.791 112.253 563.434 111.613 564.977 111.278C565.508 111.162 565.355 111.808 565.439 111.844C566.738 112.404 566.985 110.941 567.301 110.777C569.805 109.526 572.213 109.135 574.547 108.182C575.402 107.832 576.247 107.406 577.083 106.831C577.192 106.755 576.939 105.415 578.181 106.014C578.263 106.057 577.344 107.039 578.965 106.507C580.588 105.975 583.866 105.555 585.88 104.15C586.367 103.812 587.353 102.283 588.743 102.681C588.929 102.736 588.904 103.157 589.188 103.282C590.105 103.673 590.002 102.259 591.204 103.047C592.41 103.833 594.37 104.029 596.341 102.436C596.406 102.387 596.554 101.178 597.264 100.929C598.397 100.532 600.079 100.136 601.247 99.6849C601.808 99.4679 601.21 98.9778 601.303 98.9292C604.948 97.1404 607.843 96.6693 611.977 95.3461C612.734 95.1053 614.531 93.4258 616.223 93.5409C618.082 93.6637 617.672 97.3606 620.997 95.2144C622.345 94.348 622.651 89.7401 626.065 90.7159C630.938 88.2098 636.033 87.365 640.822 84.6117C641.037 84.4886 641.322 83.1174 641.863 82.916C642.669 82.6191 643.31 82.9477 643.892 82.7511C646.333 81.9422 648.338 80.6267 650.658 79.7626C651.539 79.433 651.448 80.0781 652.498 79.6851C653.546 79.292 653.958 78.3237 655.501 78.0816C656.666 77.9014 658.298 78.873 659.776 78.4599C659.265 77.0533 660.244 76.6868 661.814 75.618C662.115 75.4118 661.564 75.0752 661.696 74.9528C662.231 74.4441 662.984 74.6017 663.478 74.084C663.598 73.959 663.411 73.4836 663.499 73.3547C664.233 72.241 666.352 72.6134 666.718 72.6796C668.115 72.9275 668.378 72.1013 669.342 72.029C670.304 71.9572 669.177 72.8241 670.237 72.5848C672.435 72.088 675.043 70.9257 677.134 70.0897C677.969 69.7529 677.141 69.3563 677.255 69.2934C678.911 68.4245 680.924 68.3787 681.361 66.7299C683.892 69.4839 682.269 65.9872 684.994 65.6233C685.209 65.5959 686.089 67.0291 685.439 67.5612C684.788 68.0931 683.464 68.0776 682.576 68.8548C682.366 69.0381 681.559 71.0534 681.404 71.2192C680.191 72.5159 679.031 70.3101 678.901 70.2166C677.442 69.2269 676.371 71.4806 675.966 71.7728C674.103 73.1132 672.224 73.5086 670.641 74.5685C669.606 75.2582 670.113 76.8068 669.209 77.1241C666.198 78.1818 664.314 76.5036 662.281 79.4594C661.844 80.091 663.111 81.4924 660.446 81.0726C660.278 81.046 658.21 80.5102 657.602 81.6312C657.525 81.7724 657.724 82.2502 657.589 82.3524C656.677 83.0281 655.843 82.9226 654.81 83.5561C653.78 84.1885 652.553 85.0052 651.223 85.3553C650.422 85.5671 649.08 85.0702 648.626 84.9994C647.339 84.7869 646.652 86.2676 645.706 85.7616C644.751 85.2545 645.54 83.5797 643.649 83.7665C644.09 85.039 644.463 86.3772 644.869 87.6721C641.149 89.1222 637.334 90.1857 633.634 91.7258C633.175 91.9182 633.916 92.4013 633.431 92.6249C631.387 93.5635 629.366 93.812 627.277 94.8593C625.653 95.676 624.099 97.1116 622.406 97.9838C620.771 96.9727 618.349 98.4826 616.404 99.0883C615.723 99.3016 615.617 98.9017 615.095 98.9606C613.131 99.1915 614.46 100.134 614.048 100.524C612.284 102.187 610.984 99.3893 608.543 100.41C608.416 100.462 607.394 102.612 607.21 102.792C606.043 103.952 606.773 102.348 605.852 102.57C604.171 102.975 602.908 103.037 601.199 104.199C600.698 104.541 599.736 105.997 598.391 105.658C598.214 105.614 598.1 105.077 597.976 105.09C595.741 105.364 596.283 106.98 595.314 107.958C594.345 108.936 592.114 108.509 591.631 108.326C590.363 107.861 592.239 107.702 592.262 107.601C592.519 106.413 591.259 107.069 590.222 107.359C589.497 105.846 588.118 106.461 589.144 107.669C589.259 107.8 589.993 107.363 590.222 107.359C589.901 109.226 588.418 109.996 586.174 109.185C585.123 108.804 585.594 107.742 583.262 108.916C582.204 109.446 583.02 110.375 582.147 111.024C580.595 112.177 578.259 112.454 576.247 112.975C575.669 113.125 575.118 113.295 574.618 113.512C573.798 113.866 574.826 114.171 574.273 114.434C572.814 115.128 571.298 115.158 569.852 115.916C569.721 115.986 570.276 116.491 569.803 116.664C566.205 117.993 562.913 118.67 559.122 119.926C557.284 120.537 554.122 121.964 552.195 122.514C548.864 123.472 544.497 123.858 541.742 124.962C539.942 125.681 540.547 126.182 539.887 126.857C538.607 128.167 535.446 127.5 535.01 127.379C534.996 127.376 536.546 126.741 535.596 126.677C534.896 126.152 535.027 127.371 535.01 127.379C534.729 127.303 531.498 128.12 530.906 128.426C530.583 128.594 530.953 129.136 530.781 129.212C526.679 131.015 522.428 132.406 517.995 133.335C517.914 133.344 517.843 132.639 517.657 132.669C515.059 133.066 513.673 134.328 511.711 135.379C509.765 136.425 508.05 136.697 506.515 135.855C504.975 136.41 502.575 136.471 501.202 136.481C499.814 136.494 499.961 137.858 499.852 137.912C496.466 139.628 494.203 139.366 490.437 140.099C488.649 140.447 485.144 141.416 483.244 141.962C482.361 142.218 481.662 142.282 480.965 142.386C480.454 142.462 479.945 142.558 479.371 142.76C479.186 142.825 479.497 143.38 479.443 143.415C478.01 144.438 478.475 142.836 478.099 142.64C476.725 141.929 475.91 141.568 473.965 142.386C473.524 142.573 472.521 144.921 471.682 145.192C470.583 145.542 470.879 144.717 469.735 145.096C469.637 145.128 469.738 145.59 469.005 145.688C465.608 146.152 461.865 146.404 458.324 146.856C457.839 146.915 458.547 147.588 457.845 147.686C454.554 148.146 450.923 148.433 447.684 148.29C446.892 148.252 447.352 147.698 447.172 147.554C446.068 146.682 444.653 148.126 444.41 148.163C438.54 149.109 434.045 147.947 428.121 148.519C427.807 148.554 425.287 150 424.204 148.726C424.135 148.642 423.029 147.34 422.071 148.2C422.009 148.254 422.676 148.929 421.493 148.839C420.293 148.748 418.39 149.144 416.758 148.368C416.229 148.123 415.097 146.806 413.501 147.772C413.378 147.84 410.959 150.064 410.154 148.434C410.034 148.166 410.209 146.486 408.375 147.274C408.02 147.426 408.637 147.83 407.708 148.025C406.262 148.324 404.441 147.786 402.651 148.449C402.328 148.566 400.999 149.646 400.013 148.723C399.859 148.578 400.196 148.032 399.654 147.94C397.058 147.498 394.316 147.718 391.746 147.171C390.822 146.978 391.356 146.098 390.392 145.794C390.206 145.735 389.983 145.675 389.736 145.618C388.736 145.38 387.317 145.201 386.469 145.483C385.422 145.833 386.436 147.354 384.907 147.371C378.281 147.443 371.812 146.129 365.251 145.523C364.283 145.433 365.051 146.011 363.615 145.915C358.315 145.564 349.149 145.357 344.638 143.903C341.039 142.74 345.707 142.423 342.93 141.849C341.589 141.574 339.978 143.143 339.655 143.171C336.433 143.465 334.253 142.547 331.367 142.554C330.769 142.556 331.3 143.283 330.791 143.277C329.041 143.261 327.271 142.819 325.612 142.747C324.869 142.717 324.966 143.248 324.286 143.155C322.658 142.94 321.249 142.611 319.693 142.001C319.552 141.945 320.579 141.372 319.373 141.256C317.412 141.068 315.052 140.404 312.758 140.73C312.078 140.829 311.965 142.018 310.599 141.087C310.312 140.893 310.804 139.492 309.044 140.601C308.749 140.785 305.817 142.24 304.53 141.064C304.189 140.754 303.352 139.515 302.537 139.639C302.426 139.66 302.814 140.332 302.145 140.345C299.785 140.379 297.354 140.131 294.931 140.155C294.286 140.163 295.191 140.894 294.233 140.885C291.599 140.861 288.325 140.455 285.775 140.065C284.833 139.919 285.527 139.418 285.462 139.353C284.423 138.303 283.674 139.567 283.301 139.618C280.982 139.914 279.284 139.176 277.164 139.193C276.579 139.196 276.948 139.85 276.829 139.898C275.591 140.359 276.562 139.299 275.811 139.123C273.705 138.626 271.328 138.515 269.168 138.451C268.375 138.429 269.216 139.213 268.505 139.184C264.298 139.03 259.937 138.679 255.86 138.025C255.093 137.901 255.613 137.373 255.46 137.236C254.408 136.275 252.708 137.393 252.326 137.486C250.592 137.912 249.962 137.379 248.458 137.383C241.096 137.407 232.07 136.597 225.16 136.077C221 135.764 217.275 135.428 213.645 135.146C209.36 134.814 205.22 134.553 200.573 134.495C200.026 134.487 200.556 135.246 200.085 135.25C194.001 135.257 188.026 134.838 181.934 134.962C181.43 134.971 182.145 135.687 181.337 135.725C179.671 135.809 177.627 135.745 175.943 135.502C175.13 135.386 176.229 134.792 175.41 134.687C173.508 134.441 171.473 134.375 169.512 134.477C168.682 134.522 169.93 135.25 168.852 135.253C161.502 135.287 154.261 135.433 146.812 134.583C146.3 134.525 145.846 133.064 144.761 133.359C144.684 133.767 144.695 134.246 144.664 134.681C133.957 135.054 123.321 134.811 112.568 135.129C112.117 135.143 112.923 135.89 112.052 135.92C107 136.098 102.039 136.525 96.8338 136.002C96.3285 135.951 96.5103 134.574 94.9954 134.855C94.7398 134.905 92.4397 135.202 91.8766 135.528C91.8002 135.577 92.2418 136.193 91.5193 136.248C89.9513 136.364 88.3685 136.45 86.8118 136.504C84.013 136.603 81.1701 136.609 78.4244 136.517C77.7335 136.492 78.4245 135.772 77.935 135.749C74.4199 135.591 70.6811 136.331 67.3659 135.966C65.1789 135.725 65.8649 134.492 64.6164 133.449C64.4209 133.299 63.1587 133.426 63.0145 132.781C62.527 131.146 62.9679 129.203 62.4004 127.467C62.3096 127.291 61.7937 127.344 60.9682 127.518C60.7714 127.56 60.5721 127.611 60.4489 127.629C60.3271 127.646 60.2767 127.627 60.2487 127.585C60.2026 127.505 60.1439 127.329 60.8482 126.865C60.8855 126.838 61.125 126.737 61.3921 126.635C61.6448 126.536 61.9299 126.43 62.179 126.329C62.6944 126.123 63.1203 125.919 63.3063 125.737C63.5358 125.491 62.9933 124.862 63.4991 124.524C63.998 124.189 64.6092 124.707 65.3988 124.309C66.1946 123.909 65.7806 123.158 67.3772 122.947ZM494.989 136.513C493.629 136.163 493.998 138.534 495.178 137.667C495.235 137.622 495.059 136.529 494.989 136.513ZM636.684 88.4985C634.792 88.1198 634.344 89.9696 635.704 90.3039C637.064 90.6367 637.261 88.6122 636.684 88.4985ZM651.922 81.5161C649.86 81.4557 650.861 84.7113 652.477 83.3146C652.572 83.2344 652.043 81.5193 651.922 81.5161ZM70.0222 132.694C70.0184 132.662 68.9991 132.701 68.9916 132.733C68.5185 133.527 70.4988 133.453 70.0222 132.694ZM666.981 74.4591C666.261 74.2583 664.894 75.3913 665.787 75.642C666.506 75.8436 667.877 74.7087 666.981 74.4591ZM430.658 142.334C430.639 142.299 429.922 142.268 429.936 142.469C429.986 143.118 430.984 142.933 430.658 142.334ZM693.061 63.6732C689.16 65.1459 685.751 63.5205 690.071 62.0796C690.853 61.8185 688.773 63.5824 689.837 63.4164C691.784 63.1107 692.285 60.9999 694.453 61.1248C694.846 61.1493 693.286 63.595 693.056 63.6796C693.058 63.6775 693.06 63.6753 693.061 63.6732ZM493.631 133.88C493.599 133.856 492.631 134.052 492.616 134.088C492.268 134.95 494.221 134.554 493.631 133.88ZM389.014 139.284C388.969 139.214 386.679 139.005 386.594 139.061C385.315 140.224 389.954 140.652 389.014 139.284ZM557.135 113.652C557.915 112.586 559.103 112.091 560.229 112.723C559.193 113.019 558.172 113.355 557.135 113.652Z" fill="#A85F5F"/>
</svg>
